<mxfile host="65bd71144e">
    <diagram id="qTPcVuKwp9ivYJZm04wb" name="第 1 页">
        <mxGraphModel dx="2923" dy="2749" grid="1" gridSize="10" guides="1" tooltips="1" connect="1" arrows="1" fold="1" page="1" pageScale="1" pageWidth="827" pageHeight="1169" math="0" shadow="0">
            <root>
                <mxCell id="0"/>
                <mxCell id="1" parent="0"/>
                <mxCell id="13" style="edgeStyle=none;html=1;startArrow=none;" parent="1" source="12" target="11" edge="1">
                    <mxGeometry relative="1" as="geometry"/>
                </mxCell>
                <mxCell id="14" style="edgeStyle=none;html=1;entryX=0;entryY=0.5;entryDx=0;entryDy=0;startArrow=none;" parent="1" source="15" target="16" edge="1">
                    <mxGeometry relative="1" as="geometry">
                        <mxPoint x="680" y="400" as="targetPoint"/>
                    </mxGeometry>
                </mxCell>
                <mxCell id="7" value="GA" style="whiteSpace=wrap;html=1;" parent="1" vertex="1">
                    <mxGeometry x="414" y="360" width="120" height="60" as="geometry"/>
                </mxCell>
                <mxCell id="23" style="edgeStyle=none;html=1;entryX=1;entryY=0.5;entryDx=0;entryDy=0;" parent="1" source="11" target="20" edge="1">
                    <mxGeometry relative="1" as="geometry"/>
                </mxCell>
                <mxCell id="48" style="edgeStyle=none;html=1;exitX=0.5;exitY=1;exitDx=0;exitDy=0;entryX=0;entryY=0;entryDx=0;entryDy=0;" parent="1" source="11" target="44" edge="1">
                    <mxGeometry relative="1" as="geometry"/>
                </mxCell>
                <mxCell id="50" style="edgeStyle=none;html=1;exitX=0;exitY=0;exitDx=0;exitDy=0;entryX=0;entryY=1;entryDx=0;entryDy=0;startArrow=none;" parent="1" source="51" target="7" edge="1">
                    <mxGeometry relative="1" as="geometry"/>
                </mxCell>
                <mxCell id="11" value="GE" style="whiteSpace=wrap;html=1;" parent="1" vertex="1">
                    <mxGeometry x="414" y="560" width="120" height="60" as="geometry"/>
                </mxCell>
                <mxCell id="16" value="结束" style="whiteSpace=wrap;html=1;" parent="1" vertex="1">
                    <mxGeometry x="870" y="340" width="120" height="60" as="geometry"/>
                </mxCell>
                <mxCell id="25" style="edgeStyle=none;html=1;exitX=0.5;exitY=1;exitDx=0;exitDy=0;entryX=0.441;entryY=0.033;entryDx=0;entryDy=0;entryPerimeter=0;" parent="1" source="17" target="20" edge="1">
                    <mxGeometry relative="1" as="geometry"/>
                </mxCell>
                <mxCell id="26" style="edgeStyle=none;html=1;exitX=0.5;exitY=1;exitDx=0;exitDy=0;entryX=0.5;entryY=0;entryDx=0;entryDy=0;" parent="1" source="17" target="18" edge="1">
                    <mxGeometry relative="1" as="geometry"/>
                </mxCell>
                <mxCell id="17" value="Actor" style="whiteSpace=wrap;html=1;" parent="1" vertex="1">
                    <mxGeometry x="120" y="130" width="120" height="60" as="geometry"/>
                </mxCell>
                <mxCell id="24" style="edgeStyle=none;html=1;exitX=0.5;exitY=1;exitDx=0;exitDy=0;entryX=0.5;entryY=0;entryDx=0;entryDy=0;" parent="1" source="18" target="7" edge="1">
                    <mxGeometry relative="1" as="geometry"/>
                </mxCell>
                <mxCell id="18" value="ASC" style="whiteSpace=wrap;html=1;" parent="1" vertex="1">
                    <mxGeometry x="230" y="260" width="120" height="60" as="geometry"/>
                </mxCell>
                <mxCell id="19" value="" style="shape=image;verticalLabelPosition=bottom;labelBackgroundColor=#ffffff;verticalAlign=top;aspect=fixed;imageAspect=0;image=data:image/png,iVBORw0KGgoAAAANSUhEUgAAA9kAAAJYCAYAAAB2LyUjAAAgAElEQVR4AezdCbx21fz38f/z8A/1D5XIVFFUJA0kQ2YNpkqTSJRQKoQ0iAYqKpJCpVHRHI2iQRpF8zyQIYQkIUP8ref1Xs+z7md3/a9z7nOf+9znXNc53/167Xvva++11/BZ+77O9V2/3/qt/yjZQiAEQiAEQiAEQiAEQiAEQiAEQiAEJoTAf0xILskkBEIgBEIgBEIgBEIgBEIgBEIgBEKgRGTnJQiBEAiBEAiBEAiBEAiBEAiBEAiBCSIQkT1BIJNNCIRACIRACIRACIRACIRACIRACERk5x0IgRAIgRAIgRAIgRAIgRAIgRAIgQkiEJE9QSCTTQiEQAiEQAiEQAiEQAiEQAiEQAhEZOcdCIEQCIEQCIEQCIEQCIEQCIEQCIEJIhCRPUEgk00IhEAIhEAIhEAIhEAIhEAIhEAIRGTnHQiBEAiBEAiBEAiBEAiBEAiBEAiBCSIQkT1BIJNNCIRACIRACIRACIRACIRACIRACERk5x0IgRAIgRAIgRAIgRAIgRAIgRAIgQkiEJE9QSCTTQiEQAiEQAiEQAiEQAiEQAiEQAhEZOcdCIEQCIEQCIEQCIEQCIEQCIEQCIEJIhCRPUEgk00IhEAIhEAIhEAIhEAIhEAIhEAIRGTnHQiBEAiBEAiBEAiBEAiBEAiBEAiBCSIQkT1BIJNNCIRACIRACIRACIRACIRACIRACERk5x0IgRAIgRAIgRAIgRAIgRAIgRAIgQkiEJE9QSCTTQiEQAiEQAiEQAiEQAiEQAiEQAhEZOcdCIEQCIEQCIEQCIEQCIEQCIEQCIEJIhCRPUEgk00IhEAIhEAIhEAIhEAIhEAIhEAIRGTnHQiBEAiBEAiBEAiBEAiBEAiBEAiBCSIQkT1BIJNNCIRACIRACIRACIRACIRACIRACERk5x0IgRAIgRAIgRAIgRAIgRAIgRAIgQkiEJE9QSCTTQiEQAiEQAiEQAiEQAiEQAiEQAhEZOcdCIEQCIEQCIEQCIEQCIEQCIEQCIEJIhCRPUEgk00IhEAIhEAIhEAIhEAIhEAIhEAIRGTnHQiBEBg6Av/617/KL37xi3LWWWeV/fbbr3z84x8vu+66az06H2kfLY17o91vZczrNINSj9bekVi267Pj0fLZY489yrHHHlt+8pOflL/97W/lv//7v4fuvUuFQyAEQiAEQiAEQmAsBCKyx0IpaUIgBAaCwL///e/y0EMPVXG92mqrlUc96lHlMY95TN3nn3/+Yve5e94+90vX71r32e75aPl003XPx/rM7OoxJ/kov5tf97zdG62O3fTd837PjpZP91579tGPfnRZbLHFyu67715+/etfF/2ZLQRCIARCIARCIASmG4GI7OnWo2lPCExjAgT2iSeeWJ773OeWBRZYoLzsZS8rO+20U7Vms2i3fd99963nox3da7vnRkvb8h3PsTfffnn0ppnd5355jOXaaPm613Z5jZR2LOX0S0NYb7rppmXJJZcs8803X9lll13Kb3/72wjtafz/NU0LgRAIgRAIgZlKICJ7pvZ82h0CQ0jgmmuuKW9+85vLwgsvXHbcccfyy1/+srodcz3OPvgMuPmfeeaZZYUVVihPfOITywUXXFA9E4bwVUyVQyAEQiAEQiAEQmBEAhHZI6LJjRAIgUEjcNppp5VnPetZZf311y833nhjFdZcjsfjdtye6T1ORZt769A+T2ZdWpkjHee2LvK1E9qf+MQnqsjea6+9yv333z+3Wef5EAiBEAiBEAiBEBgoAvNcZLcfVpPd6lZuO87L8lsZjvN665Y1GeWN1p7eurTPoz0z3nst797jaPl10/amcy/b8BE4/PDDy4ILLli22267iLPh675aYx4HRx55ZHUb33LLLcs999wzpC1JtUMgBEIgBEIgBEKgP4G5FtnEyt///vfy+9//vh5bMa7/5S9/Kffdd1954IEHyh//+McJdQtkDVGmKLXd7Z///Ge9zo207QLsKH9eRLPVTu1Tl3/84x+1vXjMi8181N/97nez2oXt7MSi+3/961/LH/7wh8r/T3/6U63v7J6bXf3xv/fee2fVpbF2baI5y4+161e/+tXDytOv2tbbFu+EuZ7ehQcffLD2jXN5eCfl9+c//7m+E73Pzq7duT+1BA455JAa7GyHHXZ42PfN1NYqpc8JAf//TjrppLLUUkvVOdr+H2cLgRAIgRAIgRAIgelEYK5Fth9MP//5z6tl4tZbb50leAidK664opxwwgnl8ssvL5deemkVekRN796AjiZ4ep8hllhDbrvttvZ4PRK7Rx99dA3a4we5/Stf+Uo544wzqgCWqDevVm7v9d60Dyvo/+VDbJ533nm1TAL4nHPOKXfffXdNOrv8eu+3z73l+IznzTffXI455pjaJu06/vjjq/BUh/Zs75Hwv/7662uwKAL42muvLT/4wQ+qAO1N2y13tHvSEamHHnpo+dznPlf5qo/P3/rWt+pgQ/f5lm+/a+51rzvv3Qjpb37zm7WsL33pS7Paf8QRR5Q777zzf7QFp/3337+K6jvuuKOcffbZ9fzkk0+ubcfyhhtuKBdffHF9trcOrfzeevWrW0ub4+QQ8J6JKE5ke7ezDR+BXpFt8CxbCIRACIRACIRACEwnAnMtsgkPVmIiiMBkMbQRu9aw/fa3v13FbbP0EmfWt7VWKusnAdUstM3K6BpLpB/RLf+f/vSn9RlH9+VDZHWFvbTKIewvvPDCWRZVeakbcUmQsmi2/Ahi1k51kO5nP/tZHTRQF9dbXdWXxboJLfddswvkQ9irE9dH9VMO6/Fdd91V83Sd5VmbXGe9kbd6EL+/+c1val7S9YoHP0oJ5aOOOuphovL73/9++epXvzrLUuvHqufVSb6NuWcx0U/a7rq6qoP2S68u2mRrLNRdPtK2dtcEHZH9wx/+sKZv16XTdnWRJ544su63shwxsnU5KQ8j7e1u0nq/vvvd79Y+cK+3PvJvfXXllVfWyNLaynKvLso0KON9xN+9ZnXv9jMm8mr18pw2/PjHP67p2/vdrV/OJ49ARPbksZ5XJUVkzyuyyTcEQiAEQiAEQmBQCMy1yNYQooTYYmUlYPyIIkostcNyaie4iSDpCFKC59hjj62WaOL2lFNOqZZaAo/Y+sY3vlEFI5FEGElPZH7+85+vgnOsIpsYaxZmlkvnLM/mdhKojqyarhOiX/7yl6uFmIW0tUnZX/jCF2okXFZQou973/teOfjgg8vXvva1KvbVjUDzmfUUBxZU+Wmv/Tvf+U4V8ueee25tD0t0K09AJ5bgr3/961XYdoUmEcgKe/XVV89ykdUuYhxzngLSHHbYYZWpNrH4ega/6667rraNACfMDTi4pl2eVy7x8qMf/ajmSVifeuqptV2u4yafrrDF33MEbRsMcd9OrLc8tVF+rMvKMzDiKEq090bf6191Vn8DFvqiW1ZXZBsoaOW0I+GrPeqqH5RpCSF94LoyteEzn/lMTeN9xOz000+vol27vQvKP+6442pdiX39JU+MvvjFL9Z3FMNu3QblP/JMqYf+iCV7uHs7Inu4+y+1D4EQCIEQCIEQmD2BCRHZfjQRUsTI7bffXl2br7rqqlku2kQN8SQaMIFH1BBYt9xySxWkLI0E4U033VStoiyrxGaztBLoLI/K4Y5MRBF9I1myCSWCWX7E3SWXXFJFI6u3vLmusxyzTKsXq7cBAMKeAJc3MXf++efX9IQ/gUvAEV8GAbhJy4voNpjgnnZgoJzm2s1aL2/tIdqU29pATOJE3GEiLQ5N7LbuI0QNSCiPhbVtxB6hiEcT2eY6OicuCW1lO8eDQLzooouq+G/ik0s/iy53eoMC2oAJqzEGrOAGDvRrt+wmspVvkEJ7DS4Q3O4RrfLTZyzn6o87waxMeZpm4By/5kWg/pdddtnDrONNZGsnNsqy4+Ged4Oob8/pN/1DZHv3DHDoN2x5MxgEkFY/yEO/+yy9Z6UzSOS9c0+/eJf0oWOXQ+uLHCeHQET25HCel6VEZM9Lusk7BEIgBEIgBEJgEAhMiMjWEAKFKCGkiDnWSedEaBPZRBjBS8i6RpgThETYSCKbwJWOQCfmCK3ZiWyi6sADD6zpiEtWYs+zeKoPcScvApeIaiKbwCPCpLFpB1FFaBKdRD2xRnATkQSeH4za0hXZ8mYxVq7BBGLe5yayDTTIzz31IlS5JGPoXP5dl/HRRDaLOh6EozqxLBOBzT16NJGtvcSk9rL0qpM+kh/PAtZm4lO7ifJunZrIZoknPnEm1PWneyzTPAHURdtYgvW7fAhZgxHyb14KxLP0ypZOPm1rIlsexLk0ds9ipo1EtgEC/aHt0rrXT2TLW7v0j/5Vd3l4P3z2LqobjwN9ZtBF3vomIrv1ytQcI7KnhvtElhqRPZE0k1cIhEAIhEAIhMAgEpgwkU0IccElWAg9Ao6YJVyayGbFJRiJWtZLQo41m8W6K7JZglk+XWdFJMiIKnkST85Hs2SrgzJ63XoJPqJSWcQagX3QQQdV0UdkEV1EIGFPKLJ0SqeuhCYhR2SzvrI+jySym5BsIltduyKbiPS5ibrZiWyWWm1mvVW3tmkPqzPRTmQTtniOVWRrH/HYT2RrK46Yawf3+W7ZTWQTxt3rmLvXvAzUxXvA3R5L+dkJZILVUZ+2sripE7jYtq2JbIMABix6N4Mwgtt5X+ZEZCvLAIpBAv3vWe+e9hroUJ5+wkfeEdm95Cf/c0T25DOf6BIjsieaaPILgRAIgRAIgRAYNAITJrIJLVZZlk1iihWQ5bMrsglcgohQZcXlusyC6hoRSbARi64TaYQNazjxyCpJbBG84xXZ6sOSTtyzUnPXJrSaJbsrstWJZVj0ciJLPdRJ3d3TToMG8mTt7FqyiWEDC0Q8K72BBQKtWbLnVGRjiAlBrUzClZhldcZGfVhnnROJcyOyWZ2Vo736gis54a7dfhy3bawi2zPq7J0gqvHCXp6uK4cF3EACAa1NBla0oW1dkd1vTra64S9/rAjkAw44oK8l2wCJdrFkC6Zm8IDAJ7a1yXXvmPq1forIbj0x9ceI7Knvg7mtQUT23BLM8yEQAiEQAiEQAoNOYMJEth9OrKKEqfmwrLm2rsgmglgHuZUT144EKQFt/i7xTPASwfIhsokdVlXXCTJijWWb2GrW0maxdiRqR7Jkq4t6Eb8ErzyJM3UiVLsimwBnTSc4CXP3/MB3naBVRwKd+JVOvbRf3cxfVndizfPEmuvjFdk4Erss1iy/ODQxqG6E60SJbIKVJZkAveCCC+qR5Z81uit8xyqy9QmRrL/1C8swlqzo2mROtLKw0T7Mmmt/+8/TRLZpAPpM23lN2DE3YMNtnkUaD/VlOe+6ixPxytVv5tTLQx30p/5v74Ty5WFgJCK79cDgHCOyB6cvxluTiOzxkstzIRACIRACIRACw0JgwkS2BhN6LIIEDFFja+KbmCaMWUoJJYLKnGjWS0KMKCVYiS1CmFXbPVZE+RGXhBRRxhqpLG7pxFB3Y6VkRWY1b+K73feZ8JK38uXD6sl6SpwTd+pBTNp9JsDshDNRp07a1Oadq5e2EabuaRPxSPjKVzl2LtLqz3Xcde1o+Rh8aJZ6efVactVf3eVPACpTnuqunu4pr/GQL9baqR8IUUyVrVwDF64pV54GHwhPbSRYsZWeN4K2u9d1CVcf6fDjZt0V3+5166Ju3bqrNw7Kb/VmTdbvysOcqO5uzUuiCXHtb7u6qb/2en9c9w6qm3yUY76390i7DRxgYFClWb4JbeJf3TCUl/a1fpI/TtKzvuObbWoIRGRPDfeJLNX/H9+HSy21VNl0003r/9GJzD95hUAIhEAIhEAIhMBUE5hQkT3VjRmU8olOIpxwM6DASs+KShASltlCIATGRyAie3zcBumpiOxB6o3UJQRCIARCIARCYF4QiMieB1T9iGTx5CLNauvIWttr8Z0HRSfLEJjWBCKyh797I7KHvw/TghAIgRAIgRAIgdEJRGSPzid3QyAEBohARPYAdcY4qxKRPU5weSwEQiAEQiAEQmBoCERkD01XpaIhEAIR2cP/DkRkD38fpgUhEAIhEAIhEAKjE4jIHp1P7oZACAwQgYjsAeqMcVYlInuc4PJYCIRACIRACITA0BCIyB6arkpFQyAEIrKH/x2IyB7+PkwLQiAEQiAEQiAERicQkT06n9wNgRAYIAIR2QPUGeOsSkT2OMHlsRAIgRAIgRAIgaEhEJE9NF2VioZACERkD/87EJE9/H2YFoRACIRACIRACIxOICJ7dD65GwIhMEAEIrIHqDPGWZWI7HGCy2MhEAIhEAIhEAJDQyAie2i6KhUNgRCIyB7+dyAie/j7MC0IgRAIgRAIgRAYnUBE9uh8cjcEQmCACMytyP73v/9d7NmmjkBE9tSxT8khEAIhEAIhEAKTQyAie3I4p5QQCIEJIDAekU1UE3b/+te/Hra71k9wt/Qj3Z+AZgxcFtrcj8W8qGhE9rygmjxDIARCIARCIAQGiUBE9iD1RuoSAiEwKoE5Fdl///vfyzXXXFP22Wefss4665SVV165vOxlLyvvf//7y0knnVT+8Ic//A9x6dpee+1V3vjGN5bLL7/8f9wftYJDdpOwvueee8opp5xS/vznP09K7SOyJwVzCgmBEAiBEAiBEJhCAhHZUwg/RYdACMwZgbGKbFbrG2+8sWy33XZlueWWK4suumh5wQteUF7xileUl770peVpT3taecpTnlLWWGONct5551VLd6vJ7373u7LNNtuUZZZZpt6bLAtvK3+yjtp19913l80226x84AMfKPfff/+kDChEZE9WD6ecEAiBEAiBEAiBqSIQkT1V5FNuCITAHBMYi8gmHi+77LLy+te/voppVmsW6V/+8pflN7/5TbXc3nrrreUTn/hEWWSRRcqLXvSi8sMf/nCWwCSyPfPsZz+7fPe7360CXJ7dfXYV76Zt5/2ecc/W0rRjb9p2vXvsTdPvcze98+7m85133lle85rXlPe85z3lvvvue9hgQ0vbm0dvPi2dY0vbPe9NH5HdJZbzEAiBEAiBEAiB6UggIns69mraFALTlMDsRDZB9/Of/7xsscUWVSR//vOfL7/61a/KP//5z1limchj6X7ggQfKnnvuWRZYYIGy6aablt/+9reVWq/I7s7l7ubTD7HyW/6ek97RtV6x2dK6132mN21LJ6+2j5Rnq1N7plsH560O7f7tt99eXvWqV5V3v/vd5d577611bWnk5dw+Uj6tvJa2W6/Wpt72+MxVf6mllqrc9U+2EAiBEAiBEAiBEJhOBCKyp1Nvpi0hMM0JzE5kE3knnHBCdRF/61vfWm677bYqYPthIR7vuuuusu6665YPf/jD5Sc/+UkVlF2RfcYZZ5RLL720bLnlllW0L7vssmX77bevlu+HHnroYdkSj/L48pe/XN785jeXxRdfvCy88MLl5S9/eZ0TzmpMJDfh+uMf/7isvfba5UMf+lC5/vrry9ve9ray2GKLlbe//e3VEi/dP/7xj3pvjz32KKuvvnp5whOeUPM1v/yII46oVnnpupvP5lkfddRRtW3qsfzyy5ett966XHHFFeVvf/tbZeL5JZdcssw333zlMY95TK3rBhtsUH7/+9/XOmoPF/Ljjjuuzk+X9jnPeU7ZdtttKxN1625XX311WX/99ctWW21VTj/99DrQseKKK5Z3vetd1ZOgpY/I7lLLeQiEQAiEQAiEwHQkEJE9HXs1bQqBaUpgNJFNXLJGE8GE5UEHHVRF4kgopCf4iD+C2bmtiWzzuIllc7q5jrP4EtmPetSjyqqrrloI8CaaiXtzuwnhRz/60VWMvva1r60CmzD2zOte97pCiCpL2XfccUcNwsZdW9rnPe95dY74K1/5ynLdddeVv/zlL+Ub3/hGeeYzn1ke//jHl1VWWaWsueaa5YUvfGFZaKGFqijm5k2sy8+mDQK9bbTRRuWxj31s5WAeuvnonlliiSXKkUceWa34xDORr34EtDq8973vneU2/tOf/rRssskmZf755y9PfepTi3q95CUvqemf8YxnlP3337/88Y9/nFX2lVdeWdZaa61CWBtYaMd3vvOdVdxj1OoYS3ZFkX9CIARCIARCIASmKYGI7GnasWlWCExHArMT2SzXhCMhaj41q+2cbk1kP+IRj6ji8ytf+UoVkwS1ed277bZbFa/mbftM4BK6XM5XWmmlcswxx1RxT1TaWbdZwoncfffdd5Yw5aotCNt//ud/1vusxtIT/S0qOmEvzUUXXVTFufvuXXLJJVXQrrDCCtVy36zEv/jFL2qwN67YO++8cyGU1ZuwxwMX+bFoe0YdXv3qV9fyWbCJdDvxzGL9uMc9ruy444514EHZeJq/zuLNqv31r3+95o8xkW0QwDMCx2HSyvZsdyAgIntO38qkD4EQCIEQCIEQGCYCEdnD1FupawjMcAKzE9kE4Itf/OJqdSUke126x4KviWyWbEK1WWuJRAJUvsTkm970purK7ZpAa+Y1c+smbKVtO4H5zW9+s85BJj7NfXaPwLWcmOBrF1988az50O4R0meddVZZb731yhe/+MX6ueXnSBAfcMAB1aLuaPkt9TjnnHPKaqutVt7xjneUW265pV5rz8nTgAG3dFb3v/71r9Wa3hv4TH2JetZtrt6Cxcm75UNoX3DBBdXqbu67OfDuNZFNyH/rW9+qIr490+Uur4jsLpGch0AIhEAIhEAITDcCEdnTrUfTnhCYxgRmJ7KJVa7c1rjmck0wzunWRDaRyVJLFHa3m2++ubpRK+Paa6+dJT6l6+6suKzF3L6JzqWXXrpaeOVPfDaRLbq5c9e6Wzcv59oiT2LZnOsvfOEL1X27iWzlcJE3yECYt8GBbp7KkFcTvy26ODfxtma4MgSM424uP/n86U9/qi7m7djmkCvLAIP8msjmdm4ee297Wj2UH5HdaOQYAiEQAiEQAiEwHQlEZE/HXk2bQmCaEpidyCb+zEG2W7ZrbizZbQmvXrFoLjULb1dkw02cEqEEMNGsfHOqzRFn3RXFnCW7V2RzbzeXvLccn9WfGzm3dOL++9//frVGb7755nUdbwMBRLZyWbdZ0lnHldvPVV6erRzHfiLbc+osINrzn//86hVgPjbXdcc2N1vZ5pGz0suriWzW9xtuuGFWOb2vYkR2L5F8DoEQCIEQCIEQmG4EIrKnW4+mPSEwjQnMTmSLFi6qOGv22WefXV2iR8NBHLLUEqgsxD43S/aciGxi+Kabbiq77757FdSihD/5yU8uT3/602uwtJVXXrksuOCCYxbZ6sGdm1AXFXyZZZYp3Nef8pSnzMrTnGj7eES2/O39RDbBzvX9kY98ZHnSk55UBDkTfK3tPred27y53vKKyB7tTcu9EAiBEAiBEAiBmUQgInsm9XbaGgJDTmA0ka1pBOKnPvWpKgj322+/Gil7pCYThqy2n/zkJ+s8ZYLWtTkV2dy4b7zxxiKKNpdwEcn32WefcuaZZ9br3LDNlX7Ws541ZpFNtAtuJlo5QStvS4Odf/75VRhbW9r8albr5i5+33331bYLbHbsscf2HWDA5+67766u4SzvrPLmZHfdxYl7y4oJYHbyySdXCz3rc78dL7stInukNy3XQyAEQiAEQiAEZhqBiOyZ1uNpbwgMMYHZiWyC1xrNonxzWzZnmphsQrDbdGnN2xYozNJWXLHHI7IFHTv00EPrklUf+MAHajRxgrQJUOWfeuqpVfiP1V2ci/hHP/rRum62+dHmW3fzNBBgCS0W+yaypSHEzfEm8ptbemuz9p544ok1+jqODzzwQF+RLd2BBx5Yo6Hvvffesyz8LR/tevDBB2vAM9HMndsishuhHEMgBEIgBEIgBGY6gYjsmf4GpP0hMEQEZieyNcX85o985CPVTXvXXXetUbZ75ycLSGZpLctwCfD1sY99rIpOz8+pJVu08E9/+tN1/jJRKhp3E9gs0sohrhdeeOExWbI9a173ZpttVl3DCWP5tDy1RWCxddddt0YAbyKbCGfpNmd6nXXWqRHLW7vdY/0219qa2azs7jVLNkt5i3ouLcFsPra1vUVs50pvawL73HPPrRZ763QbqLBFZFcM+ScEQiAEQiAEQiAESkR2XoIQCIGhITAWkU0I/uhHPyobb7xxFaGWsxLNmlgUGO2qq66q0b6ta23taoK0G6hrTkU2Sy73bKJ0rbXWqutWs6Dbv/Od75SddtqpWtaJ+fe9732zRHiLLt4v8BkrM7f3pz71qcUyWRdeeOGsup9yyinVvXvZZZetAwlt7W2dSOA3wS84GzFNBBPAn/nMZ8oqq6xS19H+2c9+Vi3jlhtTPus3l/Zbb721Cmrl77nnnlXkWxP7jDPOqOVfffXV1SqPraBnXPK5w9sisofmv1EqGgIhEAIhEAIhMI8JRGTPY8DJPgRCYOIIjEVkK401lrj84Ac/WC23AoY997nPrSJTsDCfiWIWZsKSMG/bnIpsZQkgtsMOO9QAZYsvvnhZYYUV6lJaK664YrU4E6Mvf/nLy/rrr18jj3PJHk1kczG/5ppr6lxxruwCqLFAc23nIk5As9JbLksbzbO2aYe67LLLLtV9fbnlliuCrqmPc4LdAARLvrTEtLXAiXlzxrnYNwHO8m2AwLOCnskHMwHhREsXyVzaxi4iu71BOYZACIRACIRACMx0AhHZM/0NSPtDYIgIjFVka1ITkeZas/ZyiWa13mSTTcpee+1VrcOs0E0kNgyijZvbzOrc1sFu9xyJT2tUE5lcwT1vJ3S/9rWvla222qqKVa7oxxxzTGEtFr3c2tWE+C233FLXvJbPjjvuWHbbbbe6TFdvPbiIE+LcwbmOsyhLb845i/Vtt91Wo5mrhzLaJh/lia7ODX7DDTcsW265ZTniiCOqKO7OUZeWKGe1xkbdRWh33U6EN2u8fOwCxV1wwRVGOFEAACAASURBVAXFXHRp2sb13D1su+K73W9HgxJZJ7vRyDEEQiAEQiAEQmA6EojIno69mjaFwDQlMCciG4ImFkc69sPUTTsn99tzRKTzdnTeW5d++fa71ptn+zy7PLvpnPfWpbeslr73evvcm0e/9O2a42hbRPZodHIvBEIgBEIgBEJgOhCIyJ4OvZg2hMAMITCnInuGYBmqZkZkD1V3pbIhEAIhEAIhEALjIBCRPQ5oeSQEQmBqCERkTw33iSw1InsiaSavEAiBEAiBEAiBQSQQkT2IvZI6hUAI9CUQkd0Xy1BdjMgequ5KZUMgBEIgBEIgBMZBICJ7HNDySAiEwNQQiMieGu4TWWpE9kTSTF4hEAIhEAIhEAKDSCAiexB7JXUKgRDoSyAiuy+WoboYkT1U3ZXKhkAIhEAIhEAIjINARPY4oOWREAiBqSEQkT013Cey1IjsiaSZvEIgBEIgBEIgBAaRQET2IPZK6hQCIdCXQER2XyxDdTEie6i6K5UNgRAIgRAIgRAYB4GI7HFAyyMhEAJTQyAie2q4T2SpEdkTSTN5hUAIhEAIhEAIDCKBiOxB7JXUKQRCoC+BiOy+WIbqYkT2UHVXKhsCIRACIRACITAOAhHZ44CWR0IgBKaGQET21HCfyFIjsieSZvIKgRAIgRAIgRAYRAIR2YPYK6lTCIRAXwIR2X2xDNXFiOyh6q5UNgRCIARCIARCYBwEIrLHAS2PhEAITA2BiOyp4T6RpUZkTyTN5BUCIRACIRACITCIBCKyB7FXUqcQCIG+BCKy+2IZqosR2UPVXalsCIRACIRACITAOAhEZI8DWh4JgRCYGgIR2VPDfSJLjcieSJrJKwRCIARCIARCYBAJRGQPYq+kTiEQAn0JRGT3xTJUFyOyh6q7UtkQCIEQCIEQCIFxEIjIHge0PBICITA1BCKyp4b7RJYakT2RNJNXCIRACIRACITAIBKIyB7EXkmdQiAE+hKIyO6LZaguRmQPVXelsiEQAiEQAiEQAuMgEJE9Dmh5JARCYGoIRGRPDfeJLDUieyJpJq8QCIEQCIEQCIFBJBCRPYi9kjqFQAj0JRCR3RfLUF2MyB6q7kplQyAEQiAEQiAExkEgInsc0PJICITA1BCIyJ4a7hNZakT2RNJMXiEQAiEQAiEQAoNIICJ7EHsldQqBEOhLoCuy//73v/dNk4uDTSAie7D7J7ULgRAIgRAIgRCYewIR2XPPMDmEQAhMEoEjjjiiPPaxjy3bbLNN+cMf/lD+/e9/T1LJKWaiCBDZhx9+eFliiSXKe97znnLPPfdMVNbJJwRCIARCIARCIAQGgkBE9kB0QyoRAiEwFgKnn356WXbZZcs666xTrr322ojssUAboDQGRf71r3+VnXbaqSy66KJl3333Lffff/8A1TBVCYEQCIEQCIEQCIG5JxCRPfcMk0MIhMAkEbjhhhvKhhtuWBZccMFqzb7rrrvKQw89VP75z3/Wo/O2uzbS9ZamHfulc28qrvcr07WJut7aPNqxX1mNR797Y60fF/8TTjihPPvZzy6LLbZYueSSS2q7Jun1STEhEAIhEAIhEAIhMCkEIrInBXMKCYEQmAgCLKFnn312WXXVVct8881Xll9++epyzDI60r7zzjvXe73Hbvree+1zN81EnLd8e4/dvHvvtc/dNHNz3vLrPXbz7L3X+7mbdqzn2223XXn9619fnvCEJ5QFFlig7LPPPuW+++6LN8JE/MdIHiEQAiEQAiEQAgNFICJ7oLojlQmBEBiNAJFtv/DCC8saa6xRFl544TpHm2W7u5u37XO/o2u9e0vbrrfP/Y6utb3l3z73O7Y0Le/uZ+l7rxOgj3zkI+sgQsuv95n2XLs/u2Pv8/0+99ajX5pWbks7u3J77z/+8Y8vyyyzTPn85z9f7r333tG6OvdCIARCIARCIARCYGgJRGQPbdel4iEwcwkQ2r/73e/KxRdfXARDO+CAA6bFTnzusssuhRhdccUVqxidLm07+OCDyxlnnFF+9atfVZd+fZgtBEIgBEIgBEIgBKYjgYjs6diraVMIzBACzbI97EcRt+1/+9vfype//OXyiEc8oiy99NI18rZAYcPevm79Z8irmWaGQAiEQAiEQAjMYAIR2TO489P0EJiuBIg622jHXuE3WtpeTiOl7U03uzq0+60uv/71r8viiy9e/tf/+l913vLWW29dxXdved1yeu+1z2NJ09I6dvdWr7Ecx1JON03OQyAEQiAEQiAEQmC6E4jInu49nPaFQAgMPAECV4RuVmwC+z/+4z/q8TnPeU75xS9+MWuwYOAbkgqGQAiEQAiEQAiEQAiUiOy8BCEQAiEwxQSI7HvuuacsscQSs0Q2oS3A2LbbblvXlp7iKqb4EAiBEAiBEAiBEAiBMRKIyB4jqCQLgRAIgXlFwHzsL3zhC3UuNkv2//7f/7vu5mavsMIK5c4775xXRSffEAiBEAiBPgS6U2jaeZ9k8/RSK9exu/ns74aYHS2mR/e+837PtPx60/Z+Hmu63uem8nNve9VlTtvRm0fv56lsX8oePgIR2cPXZ6lxCITANCLgj/hvf/vb8rSnPa3OwxZV3NJkSy65ZA1+ttBCCxVrTOeP/TTq9DQlBEJg4An8+c9/LldffXX53ve+V37+859PukeR7/zf//735Sc/+Un5y1/+MovXX//611qvM888s67YcNZZZ5WbbrqpBs6UiOj+6U9/Wu67775a59/85jd1VQeCXJuuvfba8o9//GNWfr0n8lfmMC2z+OCDDxbt7HLSroceeqjccsstRbwTU7JG27C5/fbbazqsrGByxx13THq/j1bH3BsuAhHZw9VfqW0IhMA0JHD99deX1Vdfvbzvfe8r5557bllppZXKVlttVY488sjy1re+tXzyk5+MyJ6G/Z4mhUAI/F8ChCFR96Mf/ah67nQF0d///vdy2223lZ/97GdVNPUyM0h58803V4FFKP3whz8s999/fxWUV1xxRfnTn/5UReUNN9xQ/vCHP/Q+/rDPBOZ1111XTj/99HLssceWj370o0UASt/Lt956a/nOd75TvvnNb9b73/rWt8qFF15YxZj6E8XqLd3ZZ589K81ll11W5Ou+nSC85JJL6n3lyMdOLBP1DzzwQBV7p512Wtl7773Lu9/97vK1r32tcrnrrrvK97///fLe9763/s1YZ511ygte8IKy5557lquuuqqcf/755eSTT65/Sz772c+WU045pey6667lIx/5SL0u7serX/3q2jZLKvKSUqdmDVd/wlK5P/jBDx5mLSc8m+VcX7U2qDsmjct5551XfvnLX06qOCWwla/OVulo7fE+fPGLXyxf/epXqwhv9W99ob3eHe+Io7+1hLr+0ue4OncNq2EaeHjYi50PU0IgIntKsKfQEAiBEHg4gWuuuab+KPGDcZVVVik77LDDrBF1o/HZQiAEQmC6EiA8icx3vOMdZZ999qmWx9ZWFkXXDDoSz70b8fyNb3yjegQRQptsskkVq7/61a/K/vvvX624xPX2229fBTiBNdLGcnz00UeXDTbYoGy00Ubl+OOPL0S++hFqG264Yc1/0003LRtvvHH9fNFFF1XxT9BdcMEFta6bb755kcZuwPSEE04of/zjH6v4YxVfd911697SaDcx/ZWvfKUGuyS+XVtjjTWqiN5iiy3KYYcdVg455JDypS99qYpggp+4PPjgg6tgJ26J6be//e1l1VVXLWuttVat6ytf+coqyA3YvulNbypLLbVUrfe73vWuagk3gPH1r3+9HHfcceWYY44pn/rUp8qb3/zmKk5dc6+7K5fQ//SnP13bt95669U6rrnmmrXsD3/4w1Xs4jZZG7FswEPfGVghkNXd/pnPfKa85S1vKfvtt18dXHANK4MZxLNBCAMjN954Y8FEHgZJTjrppLL77ruXu+++uw6CEOv+To/2/kxWe1POcBCIyB6OfkotQyAEZgABo+9+UBLZH/vYx+oPsvxBnwEdnyaGwAwnYBUFAtP33m677VZdtJt12HciyyqhTfSy6rKiEq2+H1lNWcCJJlbYJrIJa2LK89/97nfL2muvXfMgKlm7iSfPK4c78ZVXXllFPMHm3uGHH17FJcsoMUZosto6ZxEl+A888MDCUi0Nsf2BD3ygDha0NNKxrhLs0imLyGaJNiDgfrOuutd21+TJMs0i7Uj8EX4s1sr99re/Xcs86KCDqru4Z9Sd5dU9btIGB7QVL+c4s2ZjIy0hLG+DAgQm8e/vD4bvfOc76+5626XTF0RpqyvmBCy3egPC6mHAgRDHjHDHzYCAe5gbTOYpoC8vv/zy2iaW5PH+vVMXbVKmthsoMDDRdvXu7piqj3p2RbZBCOk8b1DFYMuhhx5a9t1338q6vXMz/L9rmj9GAhHZYwSVZCEQAiEwrwn4gRGRPa8pJ/8QCIFBIkB4EYKf+9znqkASBPKII46oYrZ9J7IostBy3X7Pe95T3bhZvokellXi3Dxic2oJREKUECSauH8TTKbhbLbZZlV4cwMm/ghN4vOcc86pYovgI2RZP1mSiTSWY5ZNlmQWZunVi6hn3SSefW8TZqeeemoVbo2vdHaWVW0kBpvI/vGPf1zvud829wlQbVMu6ztLcbNCE4TE9l577VWt46zY3KRxIDK5hxPRBizaUT7d3XV7c6FudfQ87oS2vmjPtPREMZZtPnert3ZIT+DiyfUah5122qm8//3vr/2lH3gitHp+/vOfrwJWfxK87h9wwAGVT2Mx1qPBCGzlT+g3Idza5YiruhmMMfhgMMB1fdlEdtddXJ7c9V/2spdVDtzEeTl4r3DKFgJjIRCRPRZKSRMCIRACk0DAH/2I7EkAnSJCIAQGgoDvPBbhE088sQpWVmnihshlcW7fiebKckPm0ksAsYyaUsNVnOWSyCb2+ols4olA+tCHPlSt1ayX5i17RnAwopa4JCLlR/QR9C984Qury7XAkwQcsUlksxTbiGxWZCKboP/4xz9exNcg5mzqbgCh7YSecyKbaGax93zblWFOtrnnRPIHP/jBaknm7m3uteUcWcrVb4899qh15g6v3v5uEI8GGAwOqLO0jm984xsLV+5tttlm1nXid7XVVqs81FNbuLRzXxcbxHPdXXoWXgzw625dka19+pMFmwVfWkLWYID89O+ll15ay2lBxgh37u3jFdm8BgyS8A4wGGOwRZ0EhvMOGRTAnufAJz7xierVwIKv3U1ke0e8W+po8MX76B3jEq8N0hPoBmfknS0ExkIgInsslJImBEIgBCaBQPtBGXfxSYCdIkIgBKacAPFDHLJsskizMPpMZLOGEkgEJHdk865ZSX1PEkxEJHdwYmo0kS0/YrrNyVaGubVELBFGNBF4xJ68iXhzq4lVgc/cJ8a4qveK7GbJFrGbaCa2CU35yJtVnii2s2YTa0Q0N2RztVl72846ffHFF1eRTjhy8dYulmUWde7yLNzEoHINRpiHLG8WXPkqgzjkTi69nfWeqCcYfcZW0DNWb4IfU3kZyDB3WTvas+3oWYMUxP/sRLaXqnHUP9hyNyfeiWxu+AYWDEZIJ78dd9yxsvI+jGeTDyuzd0R/YcTNGwdzsA1eqIeBDO+C9Hac9bEBG/PZcTZwYe67uquztnOR32WXXWp+/eICjKfOeWb6E4jInv59nBaGQAgMCQF/9GPJHpLOSjVDIATmmgCRw4IqSBdLNaFJdL7hDW+owsfcaN+JxCrx2KzI5hYTfQS263Misgm5e+65p7o4e56Fkms0a7d7RBqBRnAJdMbKTTwTcCOJbEKe2zFLeLNku0acEa3yYQ0mKJu7eJuTrcy2+xtABLIEe0YAMjwIPIHWlMESTGSbZ46HwQku5Fj5bECCS/3OO+9cy2bdXn/99aulnZDWLlZx7A1iyIf4lI+BBYJTOXbWeUd14No9Fkt2m+et7Z5jPX7b295WLc1ENhFrLnYbjJCekNXHOIxnw60rsuXT2CgPD3Ww1FkT9+4bODGQoI3qafDBdVwEzvMetHtEuv5VVrYQGAuBiOyxUEqaEAiBEJgEAhHZkwA5RYRACAwMAaKLwOKmTJTZiR5WXtG2BRMToKpZspsVdW4s2b5nCUyCmbAi8ll1WbgJXK7H5isTsqzErJrmabPA9opsFlnzuNWRK7H78m6bsgg+ZXDX7opsYt59e3cz55egZ+3m6s3KaxCB6Ca2uyKbGGRFN0jAct5EtnooS9nOiXYWep+5t3OLbiKbW7d+ICCJbBZ/4phIbzvhrU9mJ7IJWAMguMpD//ECYIE3iKIcbHFrIls9pZ1okW2tcG7q6uz90RYszR0n7LHS79ztcVWH3nZ7plmwBcfr7atuv+U8BHoJRGT3EsnnEAiBEJgiAv6Ax5I9RfBTbAiEwKQSILJYkQkbrtE+E4F2EauJbxZaa0OzwBJuzXWbMPKZtXh2c7K77uIiiCuHoCZOzTPmLkxgui5/1kz1Yt3laky8cjdm0WY1Jwql7UYXJ9hYhOXlSFhKY1d/bti9IlsbidKWzlHb/R0wT5zIZ7026MDFW11xILK517P6G5QgwIlofztGE9nuKQ/rJrKVZVc2F2sDG/IVyEwZjnaDDdypDThof3fDrBv4DG91spQWYU90my9tZ21XPjHf5mSbx25+eFdkc2Hnrs06PZZNuwyOqJ9BA0HqRARnffZ+6Ct9jCWPAmVqs7bzUtDW0XaWd3yzhcCcEIjInhNaSRsCIRAC85CAP/gR2fMQcLIOgRAYCAK+6wgfQaZYF1kJuxsrKyEtYjfLI+FnDjaLKtdfrsvcmwk+R6KO2OsX+Izokx+hutlmm9V5zMQsd2Ci1bPq4horMlHo3lFHHfU/1slugcEIteaC3JauIgwJdELOfG+i2q7eBgSkY3k2d5roJjTdl5fduYEFbfB3gOh77WtfWy3IrMhc6A1INJFtvrFBCFZyeRKNo4lsFnf1YiHnBq4u+sHmWZzwxqJ3w8+8bVbo0US2fLjdE934aJeBAFZsru/ErUjdXLhZ5rWZgNc270IbZNAebvbmxs9uUyYxjof66ze796K3LQK8saqzcisrWwjMSwIR2fOSbvIOgRAIgTkgEJE9B7CSNARCYKgJEISsi6zGBF93I5wILUszOUrHCm25KhZlAb/aUk2so+4RUEQVYUbIOSe0COcmIlkkzcv1Xcs1vAlp99vmHvfvJmDVTV195jos+BfXca7IBLRgZSzjnmNRZfUmGNXTLoAb4em+nUi1JJh7RGt3l9aAg/orh2WZddbcYGURkdy9uVuzmDehLF+b8glZzFqdCH/u5yy22qvurPjtGc9pv/tEfhOmRCgxysKsHltuueUst/rGyhF3/aPeTSRz5xehW1ks0iJ+a7M06mhOfGu/vhQtnYhXp1YX7vf6dnabwQ0eBtziWc+xMl/fwER3NzDTPotCzpNAHQl9193v3bvXeSl4/1jns4XAWAhEZI+FUtKEQAiEwCQQ8AMjluxJAJ0iQiAEZjQB37XmB5vLTCD2boQUy3izeBJ+zom+JsiJWK7kvrMn2ipqzjA3c3WQt119m5VbuU3U9ta997M6q3urd+99n/EwaIFFG/Bwjdg///zzq1cBd2wW/rnZ5GlAxCAExj6rG1dygy0+u86lXN/gMLtNGm00aKKNmBHdPCFG2g08GEgxiGNKwEjputfNyxeVXr9nC4GxEIjIHgulpAmBEAiBSSDgB0ZE9iSAThEhEAIzlgCRxBrMOks4cYUeafOd3N1m97mbdm7PRyvLvd77c1tev+dbOc1C3S/NnF5j1RZczbJi1iNnoWfFZuFXHqFMABPfc9rGVl/HNjjR79hNN7u03eelzRYCYyUQkT1WUkkXAiEQAvOYgD/gEdnzGHKyD4EQmNEEiDiWTxZaAcayTS4B/AVZY03m4s3dvnee9+TWKKWFwLwhEJE9b7gm1xAIgRCYYwIR2XOMLA+EQAiEQF8Cvk9Hsjz2u9eujfYMgWg3r3h2e9f6O7u8+zagc3FOnx8p/UjXW1Htvs/O+7XVta51t1+afmwaj1ZGy6N9bnVoZfe73k3T71yerX6eb1vLq3ut3RvpONIzI10fKZ9cn7kEIrJnbt+n5SEQAgNGwB/vWLIHrFNSnRAIgaEj4LtUNG/Wauez24hC1lWBrSy/1W8zH1ok8le96lXlFa94xaz9la98ZbG3a86lsT6zgGk2dTDfWVRvgcLmdGtzo6+77roxPWr+tL3rCm/usoBp6tGPiYBn1o02p9m8aAHJNtlkk//RNtdYoFvwsnXXXXdW2xuDdmxcHAVt045WNt7mQ7fPrWHqaa60+vfea2n6Hc1RF8VdWZbu4nLeNpZyAea0fSxzqon1n//85zW4nXZ268H7gRXelINsITAagYjs0ejkXgiEQAhMIgF/yCOyJxF4igqBEJjnBAhYLsEvf/nLy+qrr15e9rKXzTq6Jmq1iNjj2YgxEcRbpHHiqFlRjz/++BrQiqhyzT3fsfZm8WxpBftSByKN0CSO2z2WUc8QaiJwW4e5dxfV2k7YW7rq8Y9/fBHJnGD0LAGrnU960pPKi1/84lksGpMul3e96101CJilut75zndWVi960YvKsssuW57//OfXz9LbRSAXPb1t2kXEi55NpKpzs+yKOG4JMMHLtK1dbyyIScuGCe4lYrf1pQljfae92mc5Net3W5dbmyx35npbW1tkd58bn3buKOJ4C6qmvgS3udkEMVFvUyciX2Tx7mCAOooKL2p4a/tLXvKS+i6198ncbuJX2eZzY982dZWntimr9W3vUfl274zyLHmmPu269ALSGUAxICOde+qnn7OFQJdARHaXRs5DIARCYAoJ+CMdkT2FHZCiQyAEJpxAE5kEDlFsOSlCkgh0TaRsYnCsIqWlcyTUiDQBzJxbVuulL31pWXnllcszn/nM8oxnPKOev+AFL6hrbBPjhJEI19aqXmWVVcpKK61U0zznOc8piy22WFl88cXrtXb9bW97W7XqElgjbepCvH7kIx8p6623XhVgol0TXwTedtttVwhlAb4s8aXd3R0XkawJcUKWUFZXol46gp0V3ZrYPhOSltuyXJW/Gcq3E7IbbbRRefKTn1ye9axn1XbsvPPONc1hhx1WllhiiSrU8Vl11VVrnqKW77fffmWFFVYoT3/608tyyy1XWKcJ+COPPHLWQIG2E6is2OrRrOSOlgazpFgTyyNx6l4nTg1sqK8lxbBifSbY5d8VydqmHIIXPwMrG2+8cbVaW4bLNW1vdeqW49xggHXJ9WnbMeju3gXvzsknn1yXavM+GBQh4g2+WCNd+uc+97n1HfF++ey5XXfdda4jr/fWOZ+Hn0BE9vD3YVoQAiEwTQj4IRGRPU06M80IgRB4GAHfbyyZBNGOO+5Y3XEJK6KXcCQwV1xxxSoCt9122yow3bfGtLWauSCvv/765XOf+1zZf//9y80331wtkqyWu+22WxXwBCNhygpJ8O677771/KKLLqpRrAlfdWBZ9QxxJx/p7e3c0S4dsWlAQD17N20iBolMFtb3ve99tS0s4e3ePvvsU++vscYa5dnPfnYVswQtq7Td+fOe97yy/PLLly222KIKQs/am/BUBwMITbgTs4S3pbC4L4vYTZg26zNXb+0hRglAAtg6zwYXWttYqFlq/c0xQCAtK7yBAK7crNWs7q2uxKn6Ep0EexO0LOSbbbZZFfXS6sPuvs4661SOjR9en/3sZ6vY1eZFFlmkcpF3G+hYaqmlalmvf/3r6/rajYe66nsDJMQ10c3qrk+9B9rDYt271Jj26AfeAa2PW383Hrfcckt9d3gGEOVnnnlmFeas894rFmxpTUHw7uiP9qz7XSt973uSzzOTQET2zOz3tDoEQmAACfghEZE9gB2TKoVACEwIgSaouS0TMqzD5hl/8pOfrKKRNZIg3GabbaqYEgWcNdV9rtjWUnaPVZFY9zwhSnwSts6bOCWwzfllMSWCiO6uSG0u5t2GNTHXrnmWld08bfd6N9fMzeW6TMQRnF2Lt/sGCbTDklXapo12ArHtrPnWdsZF2rYRcUTygQceWK282mcj6Fi+m8jmJk34EsrmXctD2fJnRV9zzTWrdd1zrtvNYSa81Q87bvIs/gYeCGh1bYMZrc7qoz8I8Cay9YO2n3XWWbPa09qlb5XPOt8s09rA66ClcSR4Weq5YLeyHPEkotWXcN5ll13KQgstVB7zmMeUpzzlKYUYX3rppev+6le/uhxxxBG1r5ugbxwJZYMS+n8sm34nurmnE9fKtzmaq33IIYdU13Sf272x5Js0M4tARPbM6u+0NgRCYIAJ+GMdkT3AHZSqhUAIzBWBXpHtO4/wI3iJNveJP5ZrAo+AMweYgCME3eduzmLZRDbXavdZIAlcuzwJP1ZH54QRwUTcSWfOMnff7s61fMkll6y78+Zu7kgAmrPcb2M1Zj0VGK2J/G46bVTum970pvLUpz61uhpz225ltSPByJJtQEAdCWsWW1Z4Ql/e3MSPPvroWhYrOyuxvIhjwvfyyy+vz2kvDnfccUe1uhLHRDQrNQEpL9e22mqr+jeHKN98882reFVHFmwDG4KFKRtDO9byMN+9iWxi3BxlolhbGwNH7Wjzq9XHfeU715fdfPfee+9a/3bNURpp5eUoP20jvgl4opt3gwEK7406tfK7fWCwhaUc626ftz7W39zrvUfqqCx8TGvgvm6u+pvf/Ob6PJf6Jz7xiXVqgfxMD2Ah91y2EOgSiMju0sh5CIRACEwhAX+kI7KnsANSdAiEwDwlQDRxDW+W7CZMHFkzzZt9whOeUIUQcUYkE9ncnG3ScXNm3W0imyuwebTmZnPHXnTRRWse//Vf/1UDkMmPS/ICCyxQ52ibx8w6Svj6vm27+cGEPetwu8YVWzrpicN+Gwu754i/kTbPmptNjBK20iqjWwfnRCyRaCcY2xzy6VQjNQAAIABJREFUxolFuLkpE4Lue46Flgu5NhDI2tw4YGqAwH1zr7nbqw/eBhvUQ5u33nrrGv2cqCf0CVPzj+VjJyzlyyUcwzYoQnTbCeDups68FXbYYYcaxEx9XfvSl75Unva0p9X8uvkuuOCCtb+U0647Z4Vn6bfJg6AleAWNI/a1XV1OPfXUypfbeOPlaNd2Fntt1ae9R9e8U7wSsCfYTV9gJSfg9Z1+FgiOZdvzmCoTU+76rcwug5zPbAIR2TO7/9P6EAiBASLgj7Q/3gKpsJz0G5EfoOqmKiEQAiEwRwR6RbbvOBZgFlzWWK7IBEuzZJ933nlVZAsMZvMdeckll9RAVFdddVW1dAp6xsJLCLO6OhLyAo1xoSZc296ssvJxfu6551YLsHoQvuY+s/h2ramE3WjfxbMT2coiaglCQn/++eevYpLb88ILL1x30cgFKzMnmls0y7K/AW2AwNH+uMc9ruYhfXvWAAIrLQ4GI1hdiVJtFqHbYAURqR5ctln48SKy99hjj2oV5mLus4GK5i6OPbfoJv7bwIRymiWbG71BEJHP1adbX/XSRktqybOJbGzl1XYDBQZO9JfBCp/Vvd1XBn7eE5ZlDDB89KMfXR772MdWlsp23WfzvLnSy8Nzyu1azbt926zlyuLWzjtAe1nVBXgTG4A7u/7XL94n74d8XcfHPHj3s4VAL4GI7F4i+RwCIRACU0TAj6CI7CmCn2JDIATmOYFekU30mS8rUjaRSxCxTBK7LK7mYBNxXJKb2GU9/PCHP1yIbFZFopIwb0LY96hrrLPEOnHmWu/GEskKaR6z+6yu3NAf9ahH1Z2Is2+wwQY1EFjv8+3z7EQ2kchVXb6iVIvczVLKuqr9xCBBJ8hXq4v6aC8RKE0ThlhxI2exbvfcx5XwY9XvnZONbRPZ8sVJWqKaAFc/16TBixu2a8oy6NGCuEnjnGW3G11cXiOJWEJUkDPWZc/3burDSqw/ud3L1wCJ6/bu5nNj0ngQ7+rM+t6usajrf+7zuJu7rR/xd5xvvvke1scGtb1LRLbBB+VoT++cbGV7H/WhKQsGJMzz1o/ZQqAfgYjsflRyLQRCIASmgIA/7hHZUwA+RYZACEwKgX4im7AUgItAJLiIo1e96lXVykqccS82P5goJMTf//73F8tqcRdniSZ4CPMmjohQYpnYYpU015hgIpJs0hFGLJCve93rauRv9ZI3yyTX5yZECch+4rALizgk1j3fuymHRZplVF7qYEBAuaJ0axfrL4syy3orSx1bPeVPzPnbQEwS0cQlTgYiDCKov2dZrok/4pYg1m5C2tJY8rM5SisvdSOoXZN/V2Rz1We5ZVmWlx1TltxmyW75eb53V4bBAKK0DYI0PtKqM+uweecGTqSXP0u7colmzFoZ7utnwh9PgwLeGYMwBjoIdDxEl8dZGZ5pe+tLx95dXtYkb/PK3e8V2fLRR6KOW3bs8MMPr9Z2abOFQD8CEdn9qORaCIRACEwBAT8KIrKnAHyKDIEQmBQCxA9LqSWQWgRsc2VZO7lAC0RlvjaxZ44sYU0ASe+e+caCXRFiAlMRmsQQMcs6zN3avFlzdJvo851KFBFgzV2cQLfsFMFqLrIym9WcWGuuytLbCUwiyyZfApA4lY4AFhxLe/ptnpNWPgQrcaat3Jubi7N5zpYJk0Za1mntIcLf/va31wBmrhtUICqJV3mJxm1tZ+VrJ5HN7Vq+rYw2J1s9cFIG67kAavJyvf3taVZyZXELt6SWfOxcvx3N0zYnWx64dFn1nrMMG4DgceCe/tc2fb799tvXedWCs3XZyldfrbbaatXCrC54a7PI8tb9Nmdc2aYRqLOAb9IQ/4LBiTJuwEa7ejfXcPCOqBMe3gfvThuskTeLOgu7uvvsPTNPu0UxF+FeMDvzuOXX2tBbXj7PXAIR2TO379PyEAiBASPQfuhkTvaAdUyqEwIhMGEEfM91xY9zAqXt3c+snUQQkcNi6DMLKxHOOtry4tpMSBNb0vTm7xoxTCCynBPt5hwrk1glGrkVmxcturZzwbkcfSauWIxtRB9xat1o94hB1k117LexzrKSSisSOHdr5TZrKuFJdBKj0lhvmzWatZaVnhBkPWb5Vh+BxAhwm3y4vXMJFxmbWCTiWYjlzxOA6zSLvnqY06wM+xve8IYqIBsrdWBBNnihLeZJK78JSPm5bjCAuNcPXN/l1Tg5tr33us/c4lm21/x/wcxa/3W5tWvaSOTyauBhYMChrVcuAJzgZ/Ik1rXX5llWe4MwljUjpHs3/W2utYji3XoT7J7XvzwLlltuuVkB7XharL322nWue3tPHQ0YGcTQv7hlC4EugYjsLo2ch0AIhMAUEvAHPpbsKeyAFB0CITBQBFiHP/OZz1TLJFHN6kkAsViyVLatCTPHkbZumnYurfMmnJrw7R7bvZZ3e9Z16RzbvX5ld9OPlFaaVk732PLtvd+ut/J87u6913vb2coYKZ/u8+28e/Rcy8Oxy2uk8256571ld/N33trTfa4901t+u97yaM+2z91j77Mt/24e3Wstfb8827WxtKdbh5zPDAIR2TOjn9PKEAiBISDgD3ZE9hB0VKoYAiEwKQR8J3LHfetb31oti6yL5mh3BXariLSz25oo6k3bvT7SeW/e3XS993o/jyVtN0077+bTrjmOd+vmMTf5KL83rzn9PNY2dPPtPjPS9W6akc67z7bzbtp2zdHWjt003fPZ3e+mzfnMIRCRPXP6Oi0NgRAYcAL+UEdkD3gnpXohEAKTSsD3IkthsxpPd6vhWAVbb7rezzrJtX7Xu/caz5GOIz0/qS9BCguBISQQkT2EnZYqh0AITE8CfsxEZE/Pvk2rQiAExk+gicV2HH9Og/2kOc+CepmHbdNec6LNpzZX2GdHfydacDfpWPZdE/yru7kmkBgB3d18No9ZsLfRdtG7la3cbCEQAnNGICJ7zngldQiEQAjMMwJ+yDSRLbhNsyzMswKTcQiEQAiEwJQT8F0vIJcAboK6XXLJJTW4mUjc5qELQCYwl7W8LT121FFH1WjXnrNbR5wbvbRt+SrB3kTeFiRMPu3vib8z0uy+++5FVHMR20UkX3HFFcviiy9eVl111RrM7YUvfGFZa6216vJaEdlT/oqkAkNIICJ7CDstVQ6BEJieBPyQsVzN8ssvX5cq4R6ZHzfTs6/TqhAIgRBAgPgVEZtwtiyUZcm+/OUv16jZRLcI1qKZf+UrX6lRxy1RJrI3i7d1nQlykbTf/e5314jkooxbysta2ZalOuaYY2okdXkR6qzkBLiI5AcffHCNti7iumWvRMkWOZxod9x///1rZPP8Hcq7GgJzTiAie86Z5YkQCIEQmCcE/JCxHItlRTbffPNZlod5UlgyDYEQCIEQmHICBO+VV15Zv/PXXHPNuryV4+te97q61NTJJ59cPvShD1UBziptqS1Ljlnn2nJd1tFmce7ue+65ZxXr1tB+7WtfW9ZYY42yzDLLVBH9s5/9rIpslmxWbGW5b4mwpZdeuq4D7dprXvOauua05cMisqf8NUkFhpBARPYQdlqqHAIhMD0J+CHDouHHEJfB5t43PVubVoVACIRACCBg3vVNN91UXbOJWrv1tFmTWbatm92syizeu+66a3Ub95y51XfddVd1N2fBJqLNo2bx3nnnnevfFK7onrHWt78rzZJteTQi3s61fOONN66Wb5+tK87aHZGddzQExkcgInt83PJUCIRACEw4gSayl1122YjsCaebDEMgBEJgMAnce++9Zb/99qtW5A033LCsv/76Zb311qvC2jxswnqjjTaqIpgQ3nvvvauruBgeRPhpp51W3cePO+64YuduzsL9jne8o7qNcy3fcccda8wPf2fMyWbtZsG2PJo811577TpHW7k+v+Utb6n3Tj311FiyB/O1Sa0GnEBE9oB3UKoXAiEwcwhEZM+cvk5LQyAEQqARILIFLvvYxz5WjjzyyHLYYYeV3Xbbrc7F/ulPf1qDnEnDCm1O9bXXXltuvvnmas1mjTbXmnXaPGyCfNttt62u5Jtsskm54oor6pxsIr5FJJePudvSOye65Ud433ffffXan//853L11VeXq666qlUzxxAIgTkgEJE9B7CSNARCIATmJYGI7HlJN3mHQAiEwGASIKC5g7/+9a8vW265ZZ2fTSB/7nOfKxdddFEV24T0LbfcUt23BUET/OzSSy8tJ510UnXtPvvss2t6QdC4hxPURDPh/t73vrcGRyOmuZife+65VcwT9E3Ucw1fd911a1mCoLnuKLK54GtEfLYQCIGxE4jIHjurpAyBEAiBeUogInue4k3mIRACITCQBIjsgw46qFqgxeMguIlj50T2Rz/60fLJT36yWriJX2K7rT5BNJu/LZK4YGYs36zT/p5YA3u11Varruc/+clP6nXim0jffvvta0C1rbfeugiQJvDZSiutVF71qldVV/EPfvCDxa5c0cYtA5YtBEJg7AQissfOKilDIARCYJ4SiMiep3iTeQiEQAgMJAEiW3Azc6F32GGHKoAtyeUakc39W4Txyy+/vFqiLd1lJ7BZp3/wgx/UOdc77bRTXRf7wQcfrIL6sssuKy9/+ctrBPFbb721CnMCnEAnts8555xaxrHHHlst4uZts4QT8pb+ItilbaJ9IOGlUiEwoAQisge0Y1KtEAiBmUcgInvm9XlaHAIhEAKW5RKwjAu4vwN//etfi3Wtzc1u7uLXXHNNFbssyqJ/E8O//vWv69xqlu8TTzyxWr732GOPcuONN5YzzzyzWqEJ5y222KK6jJuDLViafM0B/+pXv1o++9nPFsHVWMe5l9999921HuZ6WypM3tzLzQXPFgIhMHYCEdljZ5WUIRACITBPCURkz1O8yTwEQiAEBpIAkS1KOLdsy3GJDv7hD3+4zom+/vrrq/jl1s0d3FJcLNbmYFvia9999y3f+c536jzs+++/v14noLl5W37LNSLacl4f//jHayAz4pq1WrnNss3SbV629P4WPfDAAzXfJrIFQssWAiEwdgIR2WNnlZQhEAIhME8JRGTPU7zJPARCIAQGkgDLNUsygW2da2tUH3744cW618TuhRdeWJf4EiGc6CWezbHmDi4qeJsv7W+Ic1Zwlu/udWtnE/Is1dLZ2+ZcVHHu6O0Z93rTtfQ5hkAIzJ5ARPbsGSVFCIRACEwKAT9ofvOb35Sskz0puFNICIRACAwMgSZoe48q6BqLc9v7pek2pN3vXmv5uJctBEJg3hOIyJ73jFNCCIRACIyJgB8/EdljQpVEIRACIRACIRACITCwBCKyB7ZrUrEQCIGZRiAie6b1eNobAiEQAiEQAiEwHQlEZE/HXk2bQiAEhpJARPZQdlsqHQIhEAIhEAIhEAIPIxCR/TAc+RACIRACU0cgInvq2KfkEAiBEAiBEAiBEJgoAhHZE0Uy+YRACITAXBKIyJ5LgHk8BEIgBEIgBEIgBAaAQET2AHRCqhACIRACCERk5z0IgRAIgRAIgRAIgeEnEJE9/H2YFoRACEwTAhHZ06Qj04wQCIEQCIEQCIEZTSAie0Z3fxofAiEwSAQisgepN1KXEAiBEAiBEAiBEBgfgYjs8XHLUyEQAiEw4QQisiccaTIMgRAIgRAIgRAIgUknEJE96chTYAiEQAj0JxCR3Z9LroZACIRACIRACITAMBGIyB6m3kpdQyAExkWAeLVP9NbyHOk4p+XJ5ze/+U1Zdtllyxe+8IXy3//937Xernd3+faWOadlJX0IhEAIhEAIhEAIhMC8IRCRPW+4JtcQmLEEesVgF8Ro96RzvwnLsXzu5t3vvOX3r3/9q9h9bvn21qX7uaXr5ulaq1s7/+c//1keeuih0o7O22dp+23t2ZHKILKXWWaZcsABB9S8Wn7dYyunXdM2mzy7e7f8ka63NO6rc28bR2pH97nGtz3b7vU7jlaP0e7Jq9XRcSyf+5WfayEQAiEQAiEQAiEwrwlEZM9rwsk/BGYYgb/97W/l85//fDn33HPLgw8++DDR98Mf/rB85CMfKX/5y19mXYeHaJL29NNPLx/72MfK/fffX6/9/e9/LxdffHE56qij6jN//etfy2mnnVaOOOKIct9999U0XbxNpLU8f/7zn5dNN920PPnJTy677LJLeeCBB2pyYvBzn/tc2X///WfVg1C84447avk/+9nPZl1vgk67vve975Vjjjmm/OpXvyoHH3xwFcOPf/zjS9sf97jHlYUWWqi89KUvLd/97nerSG51asfDDz+8fP3rXy/a0q61o3oR2c961rPKlltuWVZZZZWH5a0cZdjb+TOf+cyy1157ld///vflH//4Rzn11FPLcccdV37729/O4iP/W2+9teyzzz7l9ttvr0K6y825+uibk046qQ4aXHjhhWWdddYpP/nJT2bl0/uMz8rZbbfdap0//elPl9/97nc1mTJtvUccDzrooHLWWWeVP//5zw9jcNVVV1X++qkxaXl47pxzzikf/OAHZ70f2nvFFVeUww47rOalDWeeeWY55JBDKo9agfwTAiEQAiEQAiEQApNMICJ7koGnuBCYrgSIIiKRgCb6CGZiqWvlveSSS8pWW21V/vjHP1ZB6B5x6zMhfeihh1bRRih94xvfqMKb2HP9+9//fnnPe95TBR0hqiz3XvOa15THPvaxdV9wwQXLf/3Xf836/Na3vrXccsstNR9W3ybc7r333vKud72r3lO+ewQb4U6gfepTn6qirWspNgjwne98p9aFCD/yyCOruCNuf/CDH5Sjjz663HjjjbX+RORFF11UDBK0/OWlXCLx0ksvraLWtd7917/+dVl66aXLNttsU/bee+8qWv/0pz8VO57d3WAE4Un4y1t5J5xwQq2bfAjTr371q+WUU04pl112Wdljjz1mtbn7HmJJrGK3wAILlMbx0Y9+dL3WhD3Oq6++ek1rIMX1Zz/72eWzn/1sZac84lka96SX13Oe85zyta99rdbd+7HvvvvWwQD1774f6qjd+kF/tPfDM/ga2NDOs88+u7aZqPZO4X355ZeXrbfeuuy8885F27WpCfxuW3MeAiEQAiEQAiEQAvOaQET2vCac/ENghhAgaAhjAvGRj3xkmW+++cqb3vSm8ra3va0KLp9df8QjHlH+8z//s+6LLLJIFUssqK61+47PeMYzqqWZZXbllVcu6623XrU033TTTeVLX/pSFVeEVBOxv/jFL6qAJ+JZa11vu3RtU09C1ECA+8S9urXyW93a55VWWqkK1be//e21fq6/4AUvKO9///urRZ3ovfrqq6v1mLWYcFQ/gwKs2Z7XHs9pu/O2d8tyTuQSiUsttVTZfPPNqzh1vaXvHtuziy22WB14ID6J3OOPP7684Q1vKF/+8pfLzTffXAcMLrjgglrH3XffveBH2DcRisdtt91Wre8s9cSt/a677io77LBDHTRoAwFN9HrG89qKJZGLg3Q8GLwHLNr4EsIs6wYDsCa42zuw9tprF1wXXnjh2gfa1+5pH4F+7LHHlp122mlW/0jj3tOe9rRqmTcg88IXvrDIC39t+cpXvlIHYNQzWwiEQAiEQAiEQAhMNoGI7MkmnvJCYJoSIGjsLL4ssGeccUa1BjehS6Cx4BKnrLLtOrHmnmt/+MMf6k68cd0mGFmxWTC5aLt+/vnnV1FHLHqOVZl1eN11162WZmKTZZzoI7pYs3fddddZLsbcm9/73vdWAUqU2olDIp2rOpdlIrNdV0/tIhaJZq7J0rLkctVuVl6CsJ2vuuqqVWzKx/Pqec8991Sx+KMf/ahaY7VVe9rOdVr6riWbxRcX96T76U9/Wribm6+tHa657zmilhs9cf7FL36xDgzst99+ZbXVVquu5azKrNSOXNrtBgO41BuYIMxb/Zsr+vzzz1/T+yz98ssvXwW0NunnX/7yl9XCrBz1xpyVWb/pB9xw5B7/7W9/u973nPTc/vVTew8wYk3fbrvt6jvgs3veD/0jb+1t7wg3dmK+8VAX+RncOPDAA8v1118fS/Y0/a5Js0IgBEIgBEJg0AlEZA96D6V+ITBkBIjRz3zmM+Vb3/pWdfslqpowIlK5fBPMXILdI6S4dL/61a+uFs0nPOEJ9UgcnnfeedUVm4BedNFFi3uCghGfnic6t9hii3qPNZRlnJAkDolCYleZhB7BR7CZi00oE6XcwlmOCWB1JhAJOlZc0b0Jfc/Y5CEvwpR4J+6IWuKvWbJZUQlBVmRij/hVLvHHVXvJJZesdVTPtmuTc5Z6dVIXc7K33Xbb6oZ97bXXlg033LAKZW1k7bY7t5s3rXyikvD/0Ic+VOul7trwzW9+s9aRK7u5011LtrZx4yb8P/CBD9T2c39XD/m59uMf/7gKZrz1oz674YYbykYbbVTLx9uuDRtssEEV0ES2fGxc2IlhItuAgPdDH3BhJ8S5gjfxzOJO8BP+rSx1VIfXvva1tTzlaDcPAVZzbVcujnbu6/pV+dhnC4EQCIEQCIEQCIHJJhCRPdnEU14ITGMCRA0xxnL8iU98ogiERcRy7X3qU59allhiibovvvji5UlPelL5+Mc/XkUb925WZEKQZZpw4vLLak2EEbIsm/b2mRgmwOwsvSypd955ZxWzLNtcpT1H4HrORigTYMTuU57ylGrxJPxYPglQFmo7UccNmhs7CymxTPyaF0z8r7HGGlXMmpft+WuuuaZaa7VDeUS2gG0EJh4CrBkoIApZYLWxuxO05hOPJLIxJPCvu+66aqXmKaCt5n2z9ONlXrg6s3Krl88syC3QGXHNXRwXPPRV2zElzjHRN/pJf7Fg67vWby9+8YurOPacwRFCXj/L1zx57dXG0UQ2HgYc9H17P/RH9/1QHsHMXZ0oN+ix/fbbz3o/cMDYHPn2PrT3wyCAfm8DHNP4v1uaFgIhEAIhEAIhMKAEIrIHtGNSrRAYRgLELsvoc5/73CqQiEaih8gUoIrwIc4I0z333LMGyfKZ8Hvd615XxS8XbCLrFa94RXU5Z/FkkWXZJHRPPvnk6i7OakzUEXfm+q6wwgp1FwSMsCTMlEuoEaHEGEGuDgJssVpLQ6iZA01gspA2geezudesw8Q/q+6KK65YrcuEOCu2e6zw5htz0TanWVqWdgKYSzdXd6KTxZ2VlaDUxrabe+7aW97ylpq+WbIFAGNdl9/73ve+ml7dnvjEJ1bLvefksdlmm1XLMuGLh7LwkA+xeffdd1dBzyvgwx/+cB24IPQNHjQLvz4isrF1z44R4c+S7jNWdl4IGOKJnTnVb3zjG2uZLNOjiWx1IvxxVJ68lG2Qg+VffbwPrhHuguf5bNBjzTXXnMUOL4MdvCWk4X7u/fAusNx7X/QLJtlCIARCIARCIARCYLIJRGRPNvGUFwLTmIDI0kQWS7aAVE3Yci/+6Ec/WsUSgU0csWKyUhJRRDEBKEK0tAQqoURAnXjiieWTn/xkzVcaFm/izEZIEaDPe97z6nxhR+7kBDJB63O7J/gWK6r8X/7yl9cAXIQ5gUycEqHKIaAtdeU6IcrVmchUV9Zk0bqlIQyJcPOUlUUAK1tgL67vBKj6E96ELku5z6yw6tDdDUBoB1FOiBL9op8TmlynCW3WbulE8lZPAwctD/mz7HdFtmsGKF7/+tdXBupoKbPGpbmZswATt9rcBiq0SXuIWeeNoyM3cf2lbIMMBgL0rXoJUkbkjmTJVh9ctUs674KBD1Z2wc0MnLjm3cELc/eJe4Mc5vQ3Diz28rBbnk3feDeId23PFgIhEAIhEAIhEAJTRSAie6rIp9wQmIYEWA4JI8KL4GaRdM3Oukocspay0pqH6zqRTSyLDk3kmWtLzLFsC57GRftFL3pRXTeasGNFZbVsAp5IZMFkNXePVZyVnAXW9RaQqy3zZG4wwUbMErAEmXoS/tys5UMwSidv1mB1JUS5r5uLTWQS2yKfu07wEvGjzcnmwm7da1ZcbRQx3dH+/Oc/v84rbiKbldo8bEIeS3O0PdfELxduVmyu3e4JJqctXZGtfQSqHWNCvXdONv7a7h7xjxnXd+uZc0knon12ve3moytL3xDNBkGw5Z6Oh34mslm1lY0P6zVxTUB7P8zJxpvnQ3s/eEAQ3/LTHn3snjxYsgVma++H4ytf+cqah0EQ78dmm21W29DeD3lnC4EQCIEQCIEQCIGpIBCRPRXUU2YITGMC/US2IFTmKLMybrrpptXKyxrdRLa5vQS4dAQhYUy0smgScqzazepJ4BFWrN6uiQZOEJqPTJgR7OZdE40sxwQzcUzAEs3qR6xfeeWVdW4wV2MCkSWVgCQOm8iWH0vpSSedVJ9j7RY0jUWZezjLqvqONCeb4NNG87QtGdYGCZr4bQJYewnLJrKf/vSnl7XWWquWwzpM0LLmEv6EKI7qLU/14yLfK7INMDQB69idk63ObcOLK/ZLX/rSKlZbILbmjs76bSdkpeEerh7cyQl5bIhsfcGaTkwT0S0NrwRWcqK6V2T7rG48DLA0B977IQ+DH+5hJMCdeent/cDJ+6F/7dzzDYZI6znvgvfN89lCIARCIARCIARCYLIJRGRPNvGUFwLTmACLL/HLbZf7LiFtWSaih2hk/eVO/prXvKZaSQkrrteCeBGPrMjEIuFERBK1BCYLrPyIW5ZOFmfWVkJuyy23LIccckjNo1mUWbKJR6KaUH/zm99c0xCz6uOZd7/73VX0qo9AXMQiUUZYc0U2n1vZBDzrOzdlQcYISqKWkJQfYcfKSwxfeOGFdecKr21Ep43Ilg+hq042z3FDl86gQbPeEq7c3QVKw4KYdB8fc8atCc3dnWVbIDLPEf5c21mysWZN1n7iHzO7+mmz/Mx/Vq5BBQHYnBPDbSDEPHbtxJUlXXAzeXgOP2WpP5GMjXnnzhtvdSfIWZvV1VG5njOgwb2bkPbZYIc+taa6YHf6lBcDK7p6eT/s2kn2AAAgAElEQVTUUaA074fPvCQIay750pue4P1Qf/XhbaD9Edn1Vcs/E0TA+2T37vu/xlvCd5730neB/68GhNruvXXee2zX2vX2uT3XPrf7Yz32Pt/ycfT/Rh3V1XecumuDAbfWrgnClGz6EGiMvTt2g736QF/oE38r9VHrs9bn/T671nbpWtqRjt207bz32Ptsu9/yN3jpb5NBaH/P1N0gct6fPp09AZf6vS/+xhqQ7r4vvf3W73Prw9573T5u544tXfdaO++91z47tnPfg94XA/2974t3v7XNcbpvEdnTvYfTvhCYRAKsx9agFgmacCa43/a2t1Wx6g9y+4HhDzNxK9gXSyyxxV3YH3FijGuwPHyxc/9mZXbNvskmm1T3YwKMmGLJJu6IP4JTGiLcj5f2Ze6PE9GsPsQ0i6i6cJMmCInNltYPT+LeXGY7N2/PEZvEufoSc64p13PcmQVS497NbZnVVZ7KsHHJ5kLtj1CzIuNBtBOX6kwcS48BN3ADC6yzlrVSHkuwOen+gBHvRL+50NYBx05a9SGWiU98LQPWuLX2tKNgZYSqAQMMXCdkiQb5KxdjeRoMULY073jHO2pdpNEudTMY4UejtukP89CbZVk7DT5YJszAiKkCmBLBBPY73/nOuma257Fs74jyzRsnmv2xNnDAgk2Qa5N81IsXhHq3duJhioEfgtlCYCII+E7ww9Z3mveYZ4yBL/9/DQb6v+r/h+UJ/f8YtN13krqpowEzdTagpQ0Gu/y/NAXG/y9tzTaxBHy3+V43nch3nu9ng576wHewPuGdZBB00N4d9fEd7e+6vzcGew0wG9j1N8vfSoPbvosJqjawPLEEZ1Zu3hcDYn5DGJQ2kOzvtBU1eNn5e+dvqGCqY31feIiNNe3cphNPxlKcBusZMLwvDCz+dvu7bvCfZ54BA78vpvMWkT2dezdtC4FJJtCEar9jb1X6pRntWhNfjrNL537v1n2m3WvX2ud2bNdHK6ulbcf2TPfY7rWje93N59audk5QLrvsstVFvl/57flWTkvTe717v5XRe+xN0z63vNqxXW9l+dzdxvK55THSsZuf85HSjXS92zZpsoXAeAh4d7xLBokIT94bBv78WDRVYtVVV61L21mr3hJ3iy66aPU8EShw6aWXrv93/f8dtF3sBoEMLZWnzuo+//zzl8c97nE1VoTBKVN2iD+DZH7gt4Gy/H8a+5vU3h+DvDyXiAoDhITRBhtsUONvLLDAAsX7s9BCC9XVIvSJvtFHg/beqI+Ant5t7zgvK1OKvDePfvSja/15VBHiPLgMYvN6MvDcBk7z/oz8/rT3xcC/QX+DFlYuYVhghBCHxbsybO+L4K2MBaaadd+XxRZbrLzsZS+rAwSmkYnjYuoZ0W2AD4/p9L5EZI/87udOCITADCbQvujbcV6h6P5Rcd5PZM9t2a0NvceWb7cO7dpIx5bHSPdzPQSGlYAfeTxFCGsxF3jNCDC44IILlic96UllueWWq9MgTD9h2WMZZsVmXfrSl75UrU1EBu8Lx5F299veTdOe697rnnfTds/bc/2uuceCxNuFJYxHDzHNKsm6zVvElA7LLvoB7Me8H8d+4IuFQXD7ASyAYbbRCRCVvB0Ia55PvJQwJaoJaQE9sca2WfpYhvUJq7YBjtaHrU/H2v8tfXvesfda7+fR0nbvsVizpJoW5F1needpxmKpjUQ2IW7wRluds4byKCOgeKpNd4vl6G9G/7s8wQzkEdYGKAR/xdDgl+Cm3hdTrdZff/3qpde1DJvKZfCv9XP3PenXz9373b7tnvd7rt0f6V73eiujTVnzvrTpZjw1DMTwOPO+WOWE+NZW3z2bb755/Y7iIdim4fWnNlxXI7KHq79S2xAIgWlMgICdFyJ7GiNL00Jgrgj4P+fHrukLouBvt912dWm+RRZZpC6lZzk+YkKcB/e5b3IdNzWi69nRBqqG5aju2sDiygWeEPdDn8vya1/72mpVFQNCJH+CkMgSuNGqDtqY7f8SwMJ0JC6wXGK58BqMYaVmBRaLxIAMsUGESGcqyzC/O9qs/oQzN3hC2vth8MbUhFe84hXVMs9bgqAS0JJYM7WHO/lMfn+0nYeIaQOEMuHJgwEry3+akmU5T1M6TjvttBrAtetR4vlh3Nv7IvaAKWa8O8RS4R20+uqr14E93hGs3DvuuGOdlmcKQvt/MqzfNxHZw9pzqXcIhMC0I+CPZ0T2tOvWNGhACRAJ4iSw8lr/nWtjc2ckLIkmwpKFsv3Y6/2BO6BNG1O1etuijSzWBhyIJjEuCCZWNVzEbvDjmCuwWAszfSMYudWz2BHTRAKXagMzLL0GZbDynmHb+w4NO79+748BK3O0WeYNTq222mrVOsuST4CLaUJoYTHTNu8Ll3AeIoK/8hqxiodAnzxLDHSJQ9NvAG86sOr3vhi0M+Ag0Kp54wK7GuD0ncPTRqwbsSKGdYvIHtaeS71D4P/NW/WFzB3LCLkANr6w2tH57PaW1rG7jyWfuXm2X73mJr+5ebZbl7nJp/ts4+da29u1bnnd8xbkhLsmV9R2rz3fjrPLp3u/PdOO3Xst/7EcPd+ebXl1r42WRzfdnD7bzXci8pmIPBqHdpxdmwQ8Eo23/cjOl9fUEvBjzw83Kw8IDmj+oLmmXBkti8dFWgDA9qNwams7+aW3drNyC35otQUuzn74mpvbAkBi6O/PTNvwMa2AKGKJNJXAtAJzrk0z8D1usEK6mbi198eAsVUf/J+yTCTPCK7BXIcFD+QBMBMYaaMpFwZdTEHBgfV64403rtNMBAudyRb+9r5wExeIUfwLA1WPfexjq8u81WpM4RlGL5qI7Jn4DZg2TwsCvpiMioqwLdKyaNH+kNnXWGONWef9Ps9Jut682rOjHfs90+/aaHUbLf9+90bKv1/aibjWr7x+12ZXVvcZ5+ZgmdfG1XBOnpW2m9dIz/ZL0+/aWPLr99xYr41Uv9ld782/9/NIz/emm93nkfIZz3UucdxFzTfzQyHb1BHwvckNUdAdy+ARSK961avqZ9+n0zH4znhptx+/BodYty2rx2LLtdV8Ue7BVn8gEGbKhoUlG82PJZQMPBicMd+dFbKJJexm+tZ9f0xJMP+cO/B8881XLdyiTlvqaTqz8r4YhP3ABz5QvRye/vSnV48Qv9vaXPXGKe/L/18i0d9KS33yhHjEIx5R3xseI7wghul9icie6W912j+0BHx5C0DCjc8u6q2gKnO6mw/jmXack+fH88yc5N9NO9ayWjrH7nk3r9HO2zOjpZmse60u7dgtt9+1ke63tO3YTTeZ593y23k7jqUe3bTd87E8O1Kauc2n3/Pda+YksnIJaCO4C1GSbWoIsC5yZbX8jWjOhKIovqwk5j0O04+3ySaIjQEISyVaonCVVVap7vWWaGTtboMTk12vySyPN4rlCA2amVrg//bee+9d36kWSXsy6zNMZXl/MBLki1FAcLQnPvGJdUqCKOx+z0y3/38s9ZZr4+FgMM/fIEu2WX5zJvx/mZv3s70vLNs8Z5q3EQ8/UzTcH4b3JSJ7bt6CPBsCU0TAlwt3NdEofXkLIOHL3BrJfjC2Yzv3uV1rR/d677d07Ti7+73pWvp2bPcd2zXH7t691z3vpu/mM9L57NKPVmYrtzeP9nmkMsd6veXTe2zPu97dW33a/X6fu/dGO+8ts9/n0cpu98ZSxkhp+pUpbbvee97yaWV307V77djutWO7PtKxpWvH0dJJ09K1Yzd9u9aO3Xvt3I9KI/BG5Fm+rHeebfIJEEh+sK233nrV+ii4l7nYXJ6H5Qfb5FN7eImNk/VtzZXkPSXyOu+O008/fVpHILfEkujf3FhZIzfccMM63SCDMw9/R0b71N4fgQOPP/74OkjxyEc+srpNW/bL/emwaYc2WorrpS99aX1fDEZxnR9Gl+ep7BMsfUcfffTRdWBPNHJTNEzJGIb3JSJ7Kt+elB0C4yTgy8UX9sorr1wDaHBzdC17GOQdGLx3wA9x7qUEiTmbM8m9dpxfcRP6GIFNBPIwYIEUYIdF0vVs4yPge4ZLp6WazJ00iCSolYBo7k2nzaDCoYceWte4FtiMJ4R5tFnWbPy97B0599xzazRt7uMGagxWTgeL9r333lvjGIgWzotJtOxmvR4/sZn9pOCBBqgFiTOdzmCp759Bf18ismf2e5vWDykBf6BOOeWUsvzyyxcjpCKYZguBEBhcAtxKjcKbC8xtMtvkEPDjjNXDjzMC2xJd11133cD/OJscOnNXir9DBngFsiK0TVlikcR8umwGDQwecI/niWIpt+mwtNAg9I/3R/BIAzWPetSjqtBuBoNBqN946uB9sX61AG+WcuMe/otf/KJ+34wnvzzz/wn4XrH8Fy8SQlswxuY6/v9TDdZZRPZg9UdqEwJjImD0LiJ7TKiSKAQGgkBE9uR3gx/xglFZjkvcCnPib7/99vzgncCuaIytD+2HrylMIim7PuybNgjY5cc8F3ExUASrmg5tG5S+8VvGnGxTDwxCWvbL2tvDyFidDTIJDsjjQbBLEdaHsS2D8n701oPQFkhO4FIBGM3vb1N+etMOwueI7EHohdQhBOaQQET2HAJL8hCYYgIR2ZPfAX58ffrTn64CyRzsyy67LD9450E3EBEC+hEXhDZ3akt7Dbu4MCBjrfC2xnOCFs6Dl6eU+q74v8kTQoBI4nTQ3YD7kWCFN5BnOcCtt9663Hnnnf2S5dpcEuAt0KZLGvwyBcv7MohbRPYg9krqFAKzIRCRPRtAuR0CA0YgIntyO6T9EBNFnNvmCSecMCURfQlNgpMFZqSje4P6I3GsvaadhJKI7YJxCjI3zG168MEHyyGHHFI9ICzxZl1n79Rkb933x3vSb/deDTNrTLE944wz6hzmFVZYoboFD9MgjfgOXMMNEljSzf+FqYi90e996fe9M+zvi/+fguc94xnPKC95yUvqqgeT/X9zLOVFZI+FUtKEwIAR8AUZd/EB65RUJwRGIRCRPQqcCb7lhyY3ze23374sssgixbIv999//wSXMvvsfE+Ll2GZMC7H66+/fg3Y47ztAviwfhkEsOTPMG9+zO+3337lMY95TBUaPg/j5v1htd54443L4osvXg488MApCZJHpAnuxDPAu9Peme7R+2M6xP9h707A7pvK/oETmRIyD0WZQzJmnn+vIWMIkaFMkYQUIZEpKr+8MpcpY4mSSkoqhBIlQxElUyF537d6G6/9vz7rvdbvv3/HOc9znuec5znrnHPv69rXPmfvtdde67vuvfb63ve97nXrrbf2dSA2mL/88sspQKT5/TwI+oUIKrulAbm8C3QmqjgSONkbRcVtt92WXKjJS6v+BrbkqhdKo25hkvt47uL6eMHlnCttC5JdWotEeQKBNhAIkt0GSJEkECgIgSDZk9cYrH2CnbFiv/Wtb03zJHsxAMsk+9hjj63MWUamt9tuuxQUSaRz80+dN+i99tpr01rdk4dS958E42effbZafvnl03xJ0aJ7gXunNUM+BK/i9rvtttumyNCd5jme+zPJtjIBOSEvAvgJqiUad5afQw89NEXL7/eAipQyorZTbHhv/e4H+SEvlmnkwfGud72r+uUvfzme5u74HuWwagKlYpYXXhjkhXU9y4tAhda7t1Z3P2/eD8olLuOWShPBvTR5CZLdzxIWZR9aBIJkD23TR8X7FIEg2ZPXcJZcOuGEE6p55503zY3s1VJdBnyWeXrqqaeq3/72tykqtaXELCF2+umnV48++mg675oy96vlt96yvk3HHXdc9epXvzoN6tWptIFvvbzNfvM+2G+//dJ66lyAe0Ve4ca7QXRqMqJcF154YbXHHnukdYP9F9jvySefTAoa2Pf75j048MADq/nnnz8FmuuHOvF62G233ZJS77zzzuuZRwF5sVxklhdzwnlh6G8o8UTFJ0fkRZ/YD9iOJs/qutdeeyWFmD61tDoFyR6tBeN6IFAgAjqScBcvsGGiSIFACwSCZLcAZgJOIx4bbrhhtdxyyxUzN9gAGOEUGReJuOiii6bNEXfNoJdVhmv59ttvnyzefrPII+rS2KQzd3X//fevdthhhxT0h6uqQEv333//tHQTAGtbWSqnQfzrXve6NJ8ZacplbyuDAhKxBq666qrVZpttlix+JZRfGVjuLCdGfr7xjW+k+dnO21966aXqK1/5SsWqLcI7V+GTTjopRdPn2WGTjks2Kz1SKM0ll1yS5g9/6EMfSmml6eWmjpZpoiBjhVXe0jfvozWxeancd999PZf3LBOw1Nbk5fvf//508uK9NKdZv8ErYuedd658o7y7majK58UXX0wyYuoEmfniF7+Y+ineOZQ8vd5Y4+FPXvSHlAwlbUGyS2qNKEsg0CYCQbLbBCqSBQKFIBAke/Iawtqp1sReY401khV58p488pMyyTaHFsnOcyLN32Rp4mrK1fPss8+uPv7xj6do3axQiLYBswElUsT103rfZ555ZiLb5uUuvfTSyVU0D5BHLsnEXTUwR+qQVHOzKQB6TdzGWtvrr78+WVJZjJ9//vmx3j5h6eGaSbbAcpk8Ixaf/exnq1122aU6/vjjk/xQ0Ky//vqJRLFekgsWeZZ5CijXp06dWu29995JnkT2LsE9m6ywuCKtAqA9/PDDxcvPxRdfnJRK5gcjpaVsmWTrb5Ds7CkjPoXvkfWmrfvO1f0jH/lItdZaa6X5/3lJLAo9ipqNN964OuaYY1K8BVZjqwhQQP3sZz/reduQa30MhSp5tyJASf1NkOxS3oYoRyAwBgSCZI8BrEgaCBSAQJDsyWkEfaP5hrPOOmsaCBpolrK1ItlcHk855ZQ04DWfk/XuhRdeqL785S+ngfBVV12V3IaRINaaz3zmM4mIGCwbVB5yyCGVYFEs4erfy80AVz0N4GebbbbqS1/6UlGD3tGwIS+f//znk/ywCmdiMtp9k3G9FclGRCldLrjggmmu44iS/+Zwi3RNoSMoFjLNGuk66zeCQrkjYFcpJNv0CkRu2WWXrb797W8XLT9wFexPf2OKSkny0opkm7tsOsTll1+e1n2npCEPlsJCqF1XD9hTVFIAUjaxfpMlgfdWWWWVIki2/oZSddNNN02KPcqEINmT0RvFMwKBAUYgSPYAN25UbSARCJI9Oc3K2ovYWa95zz33LGrAZeDKXbzRkm0wzAKG9ORBuoEi8sRyZB4u0i1qseBFP/nJT6YtDyT9d77znWruuedOy0yVQLKVgeUL8TjttNOKaoPRpJDigsKDuzsrXklbK5JN5pEk87dz+5MfsoZ8IEuskuqFUD/33HOpTaRh3Ua2BBsjV871cvN8hO6AAw5IAa3IfK/LNBIe3luRrc0h54FS0taKZJt+Qgb+/Oc/T8MWxiKOs2ZTUvKuEVtBH6o9XLeTsXPOOSct1VeCJVuZeGooJ6UMhaRzpWxhyS6lJaIcgcAYEJgIkq1jkm/eGzuq0a7n4jemk59z9b3xGfVrOZ/xHvPzDT4NSux+53KMN99W93Wz7K2eMdbzyjRZ9R9r2fotfbfaN0j25LQ8MsEN1hy9j370o0UNuLyTzUg2ZPRPBrYGjOakItYI0WKLLZaI6tNPP50s2OqU3X/dRz5Zv1kozSWWTy835VEGLrSzzDJLmg/a6zKNBQ84i74sMr11skvaWpHsjDnZF0yPRwP38be//e1JWUDpxAppKgLixPrqHps8b7/99jT/uRRLNkXHySefXC244IJJ0ZHLWlJbKItyPfHEE8kqvMwyy1RXXnllUUVsRbKVW19EXvQdlHS8YzbffPPqta99bVLKsG6br82dXD65DSh0TFUQdb8Ukm25RtMfXv/616e+P5e1hMYIkl1CK0QZAoExImDQ0u3AZzSU3Mi4Cxmk6oDrm45W56oz++53vzvNklJP4zctKY2udIJo0Jb6YJo/qIM2kHTtYx/7WNKi6+ylMxBQhk43+d90001priLNJjc4cxYF+eCG2e0O2PMsVcMKkOdYdlqHTu5XBhpp2vW111678vE32DIHNFswOsl/2O5lqUAYDPw62YJkd4Je+/eyzOnHDBa5RHb7fW+/JK9M2YpkK7Oo41OmTEnWO9Ykc7GPPPLIZDHSf+ojyRALMXfaXC9HUYTNRyyBZKu17xMrMEu2ueX9RLK979x+F1hggeqTn/zkKxuxh2dakWzfTa7hq6++erJIm3O97777pm+AZaWswc4aac6wuskny4/fvhcIVikkm9cG93cKpnPPPXdaWXsIfdNHwxDBo7xYeOGFK5HFS9pakew8h3+llVaqllhiiaRg4TlgzGDaybe+9a2klLHkoD5Hv5XlxfjilltuSWOqUki26TbkfamllkpR93NZS2iLINkltEKUIRAYIwITQbJp8HWy1qfcfffdqwcffHBax6p4OmxBV6zpimz732xDsi2lYJ6gKL9INlJt0JVJtms+TAaXSCoSQ2vKXXK8HaT7ECHuieYLidDL6oPMm8foI2iOHbe6bg76fvGLX6TnIPHq3stN3QwMDbh9NLkBUsbAQCAiQW7MX/LRjG10BMgU5Y/IqwZ+45VNTwqSPTre3UhBtlmCLSElam4nbdaN8tTzaEaylU9EYi7k+kn9iX4McUJ6uPsi2daf5qbpvZYGObK5n3XcWrElzcnm5m5Otj6opDaot0ez30gEskRB4BtV0taMZPuWIT3mwFuuiWWVMpn8mJ/KIo9kO8eKbf3k/J3VLuorOrO1lEsh2c8880z6fgvmp2wly49vvjEHefGelrQ1I9nkBabGR7xlENQsLyza8803XyLZxm0izotMjpRrA7vxGov9OuusU4wlW1wKc/gFyittDn+Q7JLeiChLINAmAt0m2TpjA1PuiZZmYAG69NJLpyPSPsaZZFs+pE6y6x9Bv12zK6dOuU6ynZNXvq4zp4X3zPpyL7lTb4Sk/qz6NedZclhtucrRMOfnIPNIsI+2OuSyj/SM+nPqvz2z/p8218fIh6eRZNfT+V3/n8veeD7/z8dW6fL5fOR5AEcfTwNbA3WDMgN7OGhfEUFZwmBT3/Kz8rF+ze98vtmxntb1Zlv9fM6jMV3j+cb/OX3jef+bbY3nG/+7p1le9XRkVbvCNM9La/asds6NRrIby9JOnpGmOQLWrTVYZBHuVDnS/AnjO9uMZOuLKC2RbIHOKCLJgvP+U3oavKsHjxnWbn0zEpXTUWrOOeecxczJVk+DcNHFBUqqv1PjQ25y76JYM8fd/PdOPVi6WfJmJJu8CNSGDLFIkxt4O8+jjHIZyfYNzGQ6ezzo3xCsww8/PFk0S5mTTVFAKczSWsKSWKO1IbLKc8Y0A4S0lI0sWMKrHl3cGEWAM8o6Ac7q8iLyPLlnyc79D+XLHXfckcZy5IU3nPze8pa3FEGylckYTHnWXXfdpIAsqb8Jkl3K2xDlCATGgICOpVvu4jokH1rae0vD0GayaPtos27nDiuTbOe5fvugcMfeaKONEhHJ2nGduEEf1zSWbOQvk2zXkGrXfNgNHD2LFtj8Pa5LInUaVNK4190idfrcwN0nSmrjppwwsewKi47yOpd3HwdrPfqQGIBcdtllaR6jOUm5jnC19qOPiKVypLP2rA8SiwBrEUu+wYz8HUVvnXnmmVP5Rd3MLlSeBwfaVcsJsYYqFww8j/IBOT/xxBMT5tz0BWtibZYH7FhSYMz9z8Av39us7gYj6o5Es3rlOknrt/JyvYO3OqqrwTCPBZ4F5jMZkGVLmevuo+nmAaDNYcYlUVrPgR0MBB3hls6awnqirTxPEBJt76jNue7Dy3qude24Z7HOcRGUN7woXR544IFUBtfJ4gc/+ME0d4w7sEG8OXvqTIFgAKq8dgNjgwuYyos10D1cQV3XrpYtYdmxXI/BtMA1IqkaMGUCo/2ybBpEUd64fzxbK5ItP+3AC8E7Zfma2DpDgHzzZjFIt/zVeNuss1K88u5mJFvZRHj27lCCUZR99atfTa7ilATklxySXX2n4FXO805BmvRHlIf6T9N4vCu93NTH++V9mmOOOZJcl4J/u7jcfPPNqd8175TCppTyNyPZyqa8G2ywQVrCizJZn6b/pKDh9p6/Hfpcfb33Qn/ue2paArfsUgKfkV/eVmIq6I+NEUrf4PumN70peQCaE1+KvPgON5Js+Jqa4jvO28SYyffYN5xcUE6SJ7LmO0qOKDwQc+mMofRJJZFsijyBCo0t9JMlbUGyS2qNKEsg0CYCOspukWx5+TAYrJmvhaCxhO60005Jo+m6DWliBUaqET+Ex8cF2VpzzTVTJ8wSTWPOZVl+NNKNJNt/1xAK5J6LGuJnQKNzF1HXcxBWGncfLLvO08DAeo6IX+MmzT333JNcww1KkTJlNrBVh5xPPnIxEiyIpdI5m8EhLS7LJS2vHelF+FmVkEUfGcoI5FKZYMADwPqkBvSUDQYJPlryER2V5V99DXrkgWAbMFMY+Nj5OMDcNZYqg22DH8oGAyakH8bKlstarz/yzVqBLMJOPZptue75SENtIKNO7lNH7UB7zWoGN1jDwPPVE1k1Z185uWiZC8VigoC7F1lA+JUJttLAmes+mTXPdLXVVku4ILOeAUv5u1c5pJOXtVKVQxtSuKifdLvttlvCCrbmEvJeQNLlxdWQHMOQHMAejuutt16askD5QUbzciXkmVwZeJBLJB8OZEc7UoIYwH79619P70kz/Jth3Xguk2xH7a+sBkHKS3E1zzzzJBdnhCu2zhCgsEAmEAz9kwFjCZs2Zy1UNlNkyJhN+UT0Jd/kz/uHRJP9D3/4w0kGvYdkz8CX2ziiTelHEUdeWaBKcRenwOKuv9VWW6V3d7zvTK/aTF9CKUopSOmm/ylhIycUK+QnEyHl0t8jzPpMMk82BLIyjUCfra/zvdEOvln6x+WXXz4ptfVvZJGCuwR3cWMC3nT6Q/1xKdiP1P7ead8gax3KVEAAACAASURBVDVTcpRSZt8X4wLyQhGdy0VeEGbfTuTU9DJ9iu/2dtttlxR9ZI28+F76dhvzqR8ln2kJpZBs5TOOotSj0M91HKm9JvNakOzJRDueFQh0CQGDtW6R7OxGhjjmudbIKvLE6pvdnzLJ3mabbRKJ5j6rHD7eOl0WUB9pJLpdku1e6UVxpTE1ANBJsh6wnsoXWfMcAx+WRwG8kJRmm7SIKuL65je/OZEXrpUsw/JWBx8Ou7QsySyseQBiAGtw4rzOm0UJoVMvHywfHh9UwXyQMvmxdBvo0hjDUtmQTud8tJyTzjNYQtUzKx98HAQnY01Wbx8/H0UfDJi4z3M9I5NZ5xo3GPJE2H///ae5djWmqf9Xf8oA6RF4pMTz4cxyQKlggKPtBVwy+DfoVG7ptL3BGWshjJQRnhQCCKOBoPoi2azI5qxxUZc/Yu2/Z2hTzyM75uTDPJdDe8FK+bQLkiEQC+ULa6+8PNMcLEoAz/bfYNOgIpcBXtrE+6JOiIgyaCNEHKlX1lx3daUwcU5Z1MHAo1vu4gi/usFSObX1TDPNlHYKCedj6wwB8sijgvcBpUxjfInOcu/sbu8eWXOsb/6Tt7znNI75nciy7Kgvct7RAJqrJKVgY771Z0z0b8/Wh1Gisax7J3tZnvHWVx30v1zw9f8lvZPwzLJRr5/zWR7qMiRtTq9evhVZdqTzfdJO+h4eIL1sL8+GNa8o3hn66l6Wp47vSL99d3zTyItvGYVwKRv8cvvXy+TcaPKiXr6DdXnx7aRopxDnbdfLTd2MjSjDjEVEyS9NXoJk91JC4tmBwDgR0EF2i2QjWDTbu+yyS1oaRsfLusYCJGCYgZvNwA4hQX4FWtHx2nRqBnmsoay6CMRYSTYXSYQvz8lGaD796U+nc8hVHgiwnutI1b/V5polbpBx1ngaetp92lqEG2HLHx71MThlPVdvlksuVDmIGUsSUsfSjmgjhAYpBvG5DAh8fU62DyyiiSCy7noGIuoIZxZV+dLYI+LS+nApk3yRd+57rBDO2dWHNpnSwUCpcYO5j7yyswq7p9WW80RwERBtpm3zBgf1N1BGTpBsZUSqtYP7EXRWYgQads7Bg2Wcp4H6wglBpcRQ37q88FBAXFmZ1ZOlmzVO3XL55KdsXNVgTA6QZBhmJYs83e+89uaFwSotmjzNfB17yhMKIpYpMo9kI/DkW509V76sKPLT1s5T2vBI8F+a8W7Zkk2GucWTyRlnnLGaYYYZ0m7KAQUBZQT5z7uy5t/52OxcvjaWY85H3ZrJ1Xjr2uv7tBN58T5wbfRueLf6eVMniiPKKH2gPkObeRfJlv67cZrIZNfXO+ud5ybOQ8b7048brPUrLPEsvhSo/VqXjL86mQLFw4qSEoGy8/hiAdQXkiXperUhdPpp8kOe8ze2V+Vp97kwo9QzPcn0MN+/QZAXintKZ+MPsuL7TxHDu4ZHmrFUrzaYk1fjEspU48deym4rHIJkt0ImzgcCBSPg49MNku1DgDxyM2NVRZh0osgVl2BuzHlucibZPsh1IqdjQ04RG0THwH28JDt/5HXmBpQslOZfs3DKU8dOATBaZ+o6jOyssVxws8sToprJIq05lykDQ+d8HA2s8jxt5JVFg/sdbSnXYiQMacxkvZFku1dUYyTKPZaVoJXPu48wJUUm2QgdQqrMdZKtXXI9EV3PbUWykUOu08gwhUerwYl06uSDCRNu0KwFdQJCJliHzc3i0eDZBmCiw7tPmbQTks0SnLFynlyQjzrJpqyBUa6LI4KPxAvYA0tzzhHvejnUQdm4s8k3k2zrdmorWyPJplmn8OA6aw49zLNVRDtww0W+yROSDXtlUWflmgySzR140UUXTe60mWA7sma7ppzKzD2vvjs32vl8Pdd7tPul53IMq1ZTEQruBkcsGlnVR7Iu8WyhAOr3gS9yZOUHXiVcspG/POWEB0xWZI0IzARd9P4g+ZSIMPdut+qHJqgIXctWXXw3fHMEb6Nozcq4rj1kkjNSJ991fa04FhTOpiixvFJA+yb1sr28m8pnXrD+iDuzMvfDppzGA759Iuobt/gu9hLPTnFTJ99tsU/Uh7yYVsCbzJiJUqGX9TNWMMWGx6LvOgV1ifISJLtTSYz7A4EeIKBz6wbJRipYWw20DfwFP8k7a6rzLCeIVibZLJUCTeQOVsfm45jn67KkdUqy5c1lnAVZsC5znT1XJ9/K4uYjzSJnr5M1zaOMBt3cvFklEXXPcM7cRxZlGn1WUs/JpNd98mVdZGFmxWd1tSsLstdIss315nqPlMLCc5rttPae2w2Srb4+MqznrNDatXFTBgMXhNnHCYHOg6s6Xupr2gALIKKfSTY35/GQbAMPbvOen9sCZhQWSAKrHLIv4F69HNIb+FnnVftnkg3XViSbxl37kUVrBzfD3Tn394pkU/awPJIhwX1YsFm0HSknlK1Vubt9Xlt7l3kkeLb8B2kjMxRPcObeSKlW4kCsXcyVnRLUvEhWM14eppFQUNW9UdrNr1vplIvizWCcFZLHiHe5n7GGjf6P8pjClIKXcq6fN++3b7Xvjv6HtwEljXrqC3q1kRPvKgW3dZp9o5Sn3+SHIo/bvYCcLKwMDv28aQPu2DyveL2Z2mZM5vvdS3khxwxC4sKYbsWy3svyjNTGQbJHQieuBQKFIqCT6ZRky4NrM5JHUy+QCuKVd5FqfYBpLZEuxI37LdItCFQmu6wn3H65ZrKG0eh2SrJ9XLmOcyP3wWV9VBZla7Uh1wiMAUR2/66nNQjlgs6FPFvDYaCeLPYs54KNIRuer9NWBh9/5FJa5+QNM27QiHkjyXbOXFtuwbTZ7pGf+1mREUFYIvLdItnyN3hCsuWZCWauv+s++D6Q2okCQz2QWxanTFqlhxPcWamRkk5JNnlhkc4kgLxQWCDCrO4iiCPclBZwUVa7QbqyIYDq0w7JNghm7Wft4wHhWfKCPc8BeZBPz+kVyUawKViQEpH0TVcwiEeyDWQoaTIGE32EC5KtrQeRZMOPlw2lF6UR+c/eMvnd6LdjlufcHznane/F5rneLQpMBElwJO+0MvX7pg4Ufd5RXkkUvlkB249101ZZfnyX7CXIj2+T74SVHHwLeCT1Sp47aVdYGiPxnOElxFMgf9M6ybdX97aSl3y+F+WCMflgUafQ44VpjFKqvATJ7oWUxDMDgQ4R0NF0SrKRHq66SHQOslXvqJBoAwwE3AAKefQB0alxXUbqkEZH1kPaRKQSgRgLyZbePFnECKlDaG3K5/kCz7imDI3rO9dhlF5ADnN9WXrMqUOquDDqlFlKEWz5mM9oU1+KBucRVPPKs7XLYMqcYHOSWIqQeAN0+dLsstAaHHAjFDnc/CWWa/XxcTWnjAu3D4D7kGtWWJYnA39l6BbJVhfP5dKlvcxr8wxKAqRS/ZWP5hfWBsWerx25Dgrmpoza02/uqAgJDGBI0TFeS7Zn0urn8iD4FCYUIjBRFt4EFByUKMpsVw7WR+XgutkOyVZebmw+wLwSPFO9yC7CzqpJmQSTdki294wbLiUM8ltXRtRlr53feU62+cHyyQMV5XOOVwFvEkqbydqUgSt+DgCnvoO2UdboR7ihIkoUbfqRel83aHWerPrAUB/IdZ1FifeTb0Qv3da7XXfvqmlQlmhCnnxj9B8hP50jDUMKb98HgfK8o712Q+60Vki1uCCm/nC1Nk7z/Qp56QxZ+FEKGZ9lt3zT+Hy/Sv5uBcnurN3j7kCgJwh0g2QjN+bV0hzn9YjrldGpIWessog1VyhRSBFRLnRINXKANCLByIsPjEHJWEg2Ui3olQ+S+bbIVbb+IjbIL0uCedPZel4vZ/23AZ+I6DpfVlruizTkiDr3OFZcSoF6p6y8CKQBuI99JkAGigg0q7U6I8jwQtSUiQVcGvMkkUZpzF9HBuFG8YCcmSPMYsnyba420gYnpLibJBsOLLmWa6FoQDQRO3iYd2eupHaRRtvaYcGibFdG7SnYHZKdrVGdkmzPRSC5WyoL7LQDK3Z2P0e8yVBjOepzIdsh2fKjDOH5AGvPUmfPhok6GtRJ1y7JZhEXuZRSQJnJ5ni2RpKd89AO5BHZZoVXvsnaPHvQSTYskSLeGXmte23J7Tp7V0wW3oP0HLJDgSgSP3d8U4u8U/mdHqS6UtRa2YISTCA0fSzFXX16yyDVdzLqQn4sHUqBa7k3c2sFmdQXutbPm2+VMYGpThQHlDS+u4OkfJrs9iEXxiuMHjweKLxMfytdXoJkT7akxPMCgS4goGPpxJLtI5bnTrNCIHzNNmTQXF+WRtZclm+WUOcERkOKkEgEHDm1Gbj6WCIMBifO+8iwALjmv2uIkAEZ0uKjhGCzZl577bXTBr9IM6s0Ui9Q12gfX9dZM7knI8ysySz1lotiVVYe2NU3Hz7uyz7yjcGfDKK4VSNqSDRlg0ElRUAeoKsPKzkyTvGQ5yv5qLJoI7sIHmu3csFUOdWd+yEs5OGcsnDf9azsNqyscFB+So6RBnbykJf2gCeSan6kNhLMrFGjDgsKAUuLIdbSa1ftIS87OXHO/OlcZ1ZwygLktZ4WWdbWnk+mKEYMohAc7UheyJJ5XnWFSS4HLJSDZ0GzcrhOjvK9ZIf3hPNkMpcPqTKFgccB7EUeJVdwVCfpWNzcRzPu+c7LF87OU0I5h/zyDICNuknj/Fi3ViR7rPl0M716DAPJVk/eEdrPPGZkiQJOPAD9xXjas5vt0E95wUofpl/0bgtMyEV8pO9IP9WvWVnVmccTRau6WrFCX68fG0SlQjMMunEOjnbvHOwodBFsQTB9Txq/zd14Zi/yUEffVUE/BaHkBeG7J8jmeL8fvahHr5+Z5cV4g5ebtcgRbEYX3+9+kJcg2b2Wonh+IDAOBHQunZBsj8wdWD62KobrnmfPaevn8vl8fz1NO79zWRqf4TxrAesn11+uzPJrZ2ssXy5js/sRLkoBrsme15hmtLxcr6fJ9zeebyxDvp6PGYf83zFvfuf787mRjjm9exBRx1b319M2S+d6fc/Pzfc55q2ezmACyaZ84AII52b5uzffl6/nY6u8Rzs/Wn75ej42K39+hmO9PPl8vqfdY5DsdpGamHTajeKH8oXiSXCiTTbZJE2xYNUmr7GNjAAloCke3mvz3MUSEDyLJ1JWHo6cQ/9eJT8UbgKFitDNPZ5C0GAfAR9J+dm/te5uyWFEeUxRL4iWOfw8zrKL+Hj71u6Wsju5qYsxi6l46mq1DkYE/Q9l/3g9orpTuv7IJRs5GGQoYuaZZ55kNMmBd/tBXoJk94esRSkDgekQMOjvlGRPl2FBf3ScNN0+xqyPrJECrXX7o2TAyNWbJY+lmyUmBkrdE4RGkj3s2AbJ7p5sdZKTfoQnimkuXJxZJb3/yBJXff1CPwzeOsFgLPfCws4zhzcMpdnCCy+c5l9TTCJIrLnDspEfHk+8q7gDs2xnLyWkyvWQn/+Thiw7xiumFnjHeDNZFo11l5cXj4hBxkt/IqgkpRTFzAorrJCmkuVlQGEzyPUfS79QlxceZpR3vNoEBRVIzlQ9nmv9hFeQ7LFIQKQNBApBYJBJtkGKDy9XZMttmQvHwtztjes09z/uxOZs91vn3W08up1fkOzpEQ2SPT0evfxnkGYQJ0CR6SSs2siSaRWmjugLWGaHfYMBK7/Aceaxm4+MYLM+8jCipBxGpQT5Ea9DEE3xJuaee+5kafM9gRXZgsuwb9x8TSFivRWTxDQNwfG8c6YQZe+0fiJN42lT9bNMmoBdrNrWkRc3RgwU0/AoIIx7hnmDkTGZWDCMKuKpUEoIIGdZNPFu+jHgYJDsYZbqqHvfIjDIJFvdDFLMyRUJGOGeiA+QASS3NdGrrRsdg6Luvg7w5CVgXjrSMhFt2N0ST2xuQbInFt/x5G4Kg1gP5k4KjJjnFwvMx81ToDuuwHmqg4HgIBKCXC99r7qy6HPJRIQMdgVv4hou2JCAjvrLHEdiPLgPwj0wY8EXGFFwzZVXXjmRJ0ESzVUXOwJO4kDo+2CbcR6E+tfrkOuljpSr5iMjj2J9sFyzWpMfQTDF5kC8h+17ACPvDG8QXjQs2pagMt2Ct97VV1+dVi4RuBOOwyIv3iHKOoFkxT4RR4eHEYJtWgZlniU84dePW5Dsfmy1KPPQI6ADHlR3cY1b/2hPVOfa+IyJes4wC2vGOLCtUqR3gyrWC4OtEjbtMgyBz0bCGgaC3Bnk5RUBkAJzKFmbWODMCRR0EFYsu4MSLE3dKRspNRFCVnzBGD/4wQ8mCy1iZMBriTdWfhbJfrQmjdT+nV6DoeCQ5IMrPWLAWkt+zPkXIM3ygQIzWv7RnPZS3v9O624cwvooSjiFlDGJoJHcevMcWm6+W221VQr8JQ0SDrNh3NTbTvFiKpxVP3iF8A4hL1YjofC7+OKL07tmWovAooMyHYO86D9MBSQL3MEpYigdKKnM0ectI2aGODzZ+NHP8hIkexjf9Khz3yMw6CS77xsoKhAINCAQluwGQAr7ayDHvdXAlhWbBVcUW/NuuQNzJzcINiAUuZ8XjIj7X/rSl5J7IzdhA8e77747DQ6bHevn6r8NJv1vd0f2G+9vzMN/u7SO5oBaBYErJjIkeJk6sCwa7HPJtMICaz5yzbJvzqzlquTRuDJBYc3X8+KQH4HRyAAvrD322CNZ/i1vJmATbwDzclm9KdoQKdZuyxBpE20j2n07MpDbti4D9ftc97+ZnNTT1e/P9+RjPZ18yA8Zv/HGGxM54qF03nnnJZd5yyptuummKZL2a1/72qRkQB4pHazWYMWNYSbXzYSTvFjxgCcEa60pa7wg9DXkBem0mgkln9VNyIt3lrxQdlEKkpd6e9V/5/Zrdq7xWk6T+wr/87ksI/l/PtZlK6evXyMvrPbkRR9J1inwRFnnKbTxxhsnDweu8xR5FFIs+gILWqprUKahBMluJv1xLhAoHIEg2YU3UBQvEGhAIEh2AyCF/jX4tf/+979PS+4hmda8tawe4mBJHh4JBsMsUKzeXD/XXHPNdB0RnzJlSiLkjqPtrdLn86PdX7+e76kf/WaJZmHlmorsLbnkktUiiyxSIUTqog5ceQUyY8VGEg2QYeBbkzEptMmKKlbGigWS9RqBOuSQQ9ISgObjWqt9ttlmS8oMc5SXWmqp1CbkRxvV2zP/zu2Z/+dj4/n8Px9zusajOdHO5XT52Jgu/yc/5p6bLkARow6UT2SH9XHZZZdNpGn33XdPlntkCsmimAn5GVk8s7xwsedJ4jtBOWF5M540iy++eAoUR/mV5eUtb3lLUoJttNFGTeUlt1unxywXrY6N+ed0FC76E94MWV7EvRDwjgKBtVoa0dZN16PUND3F6g+DJi9BskeW/7gaCBSJQJDsIpslChUItEQgSHZLaIq9kAfAyAIXR9YjlhbW3yOOOCLNvbXeNgIugCLywkLDKpN3/1vtBsn5WmN61h2DasQsp8tHaev35d+OOZ98zNcMgFnGzHlkSWK9FhWbW6agQki1+BfZYq3usXWGQJYfFm5rJN98881prfYTTzyxOvTQQ1Mb7Lnnnkm5wUVWG+X2ykftqN1zmze2q3T5epYP55AyyhTkuH5Pzifn79jsXL4uT4SIbAtEStZ5OLDIm0KgX+PRwSJrKoXpB7nenaE3fHdn3MiLwHrf/OY3k7eJAHusvPvvv39FXiwdxysCydVOuf1zOzcecxtn+chH6fJvCjeu/RQ99fuzHOQ88n9p/M73O+b8yMsWW2yRFAXm5NflhVXekqmUMOZic4XP9R7EFg+SPYitGnUaeASCZA98E0cFBwyBINn936B5MOhoXra5uCyW5qQaFN9zzz3JhfOOO+5IR+6c3Ifz0e9me/16/s2qbJkoczcb78lpHOvPqv9uvMbtk9uuIITmBZsXilBbWm/QrEelSlqWH3jDXhuwYGqT+++/P7no5rbNbV7/3+p3s7SszuZGI2qNskBO6rKSf8vH75xfPjpHtsk4ZROZJ/veAW69IT8TI3FZXgSJM5eZZwl5oQzL8pLbaLRjM9lxLp9HsHmxZDf0fC3Lhv/5t2fl+/Kxfk468QdECtc3khcB3Viqh01egmRPzLsRuQYCE4pAkOwJhTcyDwS6jkCQ7K5DWmSGeWDc6ZGVmbWQtafTvNwfW/kIdKOdcx6sifocVtF8rpNj+egNXwk7ac/6vcaT5oMLWlf3RKinGevv4WuN5jUOkt0clzgbCBSNQJDsopsnChcIvAKBINmvgCROjIBAnWSPkCwuBQKvQAAhyiSbBTS2QGAkBMhLJtmDEvl+pPpO5rUg2ZOJdjwrEOgSAkGyuwRkZBMITBICQbInCegBeUyQ7AFpyB5Uo06yWbJjCwRGQiBbsi2nFSR7JKTGfi1I9tgxizsCgZ4jECS7500QBQgExoRAkOwxwTX0iUWkFkjIXOrYAoGxIIBki4QvQNYzzzwzllsj7RAiYDxphQTR4V9++eUhRGDiqhwke+KwjZwDgQlDwEf0e9/7XlqSxVIJgmDoKGMPDEIGypMB66GKJiyCq+VtBLIpYdOPWO/UEj033HBD6j9KKNcwlkFbGOBaq9s7bD62ga/1k8mLc9LYYwsEGhEgF4JLsUSSlXXWWSctAfXEE09MJz+N98X/4USAjAi8Z/1y/Ytl2ESif/HFF0NeuigSQbK7CGZkFQhMJgKie1r2w3qtlki4/PLLq+uvvz72wCBkoCAZsFzJscceW6244oppPdxvfOMbk9lNjPgsA/Mg2SNCNGkXLfFkWbA99tijuvHGG9NSPUj20UcfnZZ62meffaqHHnooSPaktUj/PMh7LLozGbHM01133ZXWtH7b295WnX766ZVllJynwAklTf+060SVlAyIIs5yTZl33333peXeGGymTp1a7bTTTml5QuQ75KWzVgiS3Rl+cXcg0DMEaCKtOWgt1XnnnTdpIg3KYg8MQgbKkYHllluuWmSRRaoFFlggDWgsaVLKZgAVJLuM1mBBsoQObwfvL5nxe7HFFqvmnHPOtD7xY489FoPeMpqrqFJ4j5999tlqyy23TEr31VZbrZprrrmqeeaZp7Le+myzzZY8aSyhFKSpqKbrSWHIgGW11l577SQja665ZjX77LOntdUXX3zx6tWvfnV11FFHTfOe6UkhB+ShQbIHpCGjGsOJgA/rbbfdlsg2LfZuu+2WBmO77rprR8ecz2jH/JzGdPl8J8fGPBv/57wbzzf+z+k6OeY8cx6d/s/5jOVo3Vya5je+8Y3VDjvsMK192y1LY7qxPLtV2pxn4zGnbzyf/+frnRxzXq2OOe98vfF/Pp+P+Xonx8a8/LcfeeSRybuA6+bf//73YjqrINnFNEUiP1/+8peTt8OMM85YzTDDDNN2JPvqq69Orp3llDhKUhIClO6f+cxnklKmUX54u+UpZSWVOcrSOwTIywknnJCUv/W+xm/KGd+q2DpHIEh25xhGDoFATxHg0mPO55NPPln95je/SbsO0m/HVnu+no85Xf7f7OhcPp/TO+Zz7R7r99TzafzdKr/GdM3+N97bKo10OW09TT7X7tG97abN6fLzGv/n8/lorVxuxquuumq10EILJRfSkZ6X7xspTX5m47F+T84np8n/62kar+X/jcf6vY2/G9P63+xcfm6+PlKanDYf8z3tPDvfk4+tntOYV/1//Z7nnnuu+t///d+e9hPNHh4kuxkqvTmnLSy39IEPfKCaeeaZpxHsV73qVSmA1SOPPNKbgsVT+wIB8mOO7ZQpUyoyk4mT3wcffHAEtOqLVpy8QpIXRpo11ljjFfJCKfyPf/xj8gozwE8Kkj3AjRtVCwQCgcFAQHASgale85rXpAG4OXb/9V//NRiVi1r0DIEg2T2DvuWDr7322jR/P1sjuYxfeeWVYcVuiVhcyAh4nz/96U+nqQbkx/66172uuvfee6t//vOfOVkcA4GEAGv2iSeemKYbZnkx9ZCy2LXYOkcgSHbnGEYOgUAgEAhMKAIPP/xwteGGG07TOC+xxBLV5z73ufgQTijqg595kOzy2pjyTDAi8yINfHfZZZeKFVtbxRYIjIQAGTG3f6ONNqpmmmmm9L0wz5+nW8jPSMgN5zUyIYDuW9/61mny8tGPfjRFqA956Y5MBMnuDo6RSyAQCAQCE4IAt62bbrqpmmWWWaa5ABqA77nnnsm9dEIeGpkOBQIGUhH4rKymZkFizV5ppZVSwLMvfvGLYYUsq4mKLg35MTd74YUXTnNrf/rTn4YytugW613h9P/Zms3jwc6KHQS7e20SJLt7WEZOgUAgEAh0FQEfu1/96lfVuuuuO41gm2vHwiVq7Nlnn93V50Vmw4VAkOz22jsPRsW/4HZL8fXMM8+kJbXuvPPO6pvf/GZlqTZroHPXre+f+tSnpvtfv9bst/QnnXRSCnL4lre8pTr88MOnu3+s+XkG0nXOOedUV1xxRVLY3XHHHZUlw55++ulKxGl1UrdwEW1PHsaaqlF+BD8UQ+WBBx5IS299/etfryhT9OfNZMK5ervXfzemd01AK+ser7XWWtXxxx/fNM+R8mjM88wzz6zOP//8FHzvW9/6VlLM8a76/e9/n6ye5IfshPyMVTKap2+UF/E8fvvb31Y///nPqx/84AfV1772teqyyy6bTl7G0p65fd1j//jHP16JKi6w6imnnPIKeRkp7/q1/Ju8XHDBBdU111xT3XzzzdXdd9+dvHHEDFCXLC/qOehbkOxBb+GoXyAQCPQtAgZjPlKs2HnOVCbZ/r/3ve9Na5/2bQWj4D1FwCAnLNmjNwEy8Z3vfCet4sB9e+mll07zGEVttlSSedPiJcwxxxxpKZx2j5bNqe/5Pud4qwiAZvmlnCZfz8d8vvGYr9ePfotSrqzKrOwsV29605uqHXfcsTr55JMrBEqQvti6i4Dlkqx9jsxss8021etf//pkZc7yo13sxNe1hwAAIABJREFUub3q7ZnPNR7rafxuvM5dnPzkdI3X8/l2j+5vJj+Wm7PeMkXO97///Qiw1qHo6JMpYK6//vrq2GOPrbbaaqsUMV7E77q81PubdttwpHQC5OlzGtM0yk27/5WPvOhr8nJy+puVV1652muvvaqzzjqrouz7n//5nw4RK/v2INllt0+ULhAIBIYYAYMza59y/TvmmGMqS/xst912iXivvvrq1fLLL5802kMMUVS9AwSCZE8PHjxY41h1H3zwwUSq119//Wq++eabRqKRXkov61dz6d5ggw3SO7n33nunda4NjO3HHXdc2uv/679dr/+v/251TZrGa43/m6Vx7rDDDquUcfvtt09zdg12rcWtLupk8GxgbCD8tre9LVlDH3rooaGyOk0vDWP/l+WHpe6ee+5Jq0DAGTnKpAjWs846ayWuhrmwG2+8cVqS8T3veU/yWmjWnrlNx3Itp3XMv+v5NDvvej1N/m+erqj37373u5OSwDux4oorVvPPP/908kOB413ZdNNNq89+9rPJ22OYrJZjlZi6vFB2HnHEEembXlfaZSWbpTtXWWWVhC2lGAW79PW2zW2X220sbVzPJ9+Xj2PN7+ijj64OOeSQao899qi23nrr5IlHGSOoGtnP/Q0SvsACC1Sbb7558gJ64YUXBq6/CZI91rci0gcCgUAgMIkIZBdVg39uqTvvvHP6EBm85AHMJBYnHjVACATJ/v+NCQuDPC6OiKgBIeuOnRVJ4MEPfehDab605dl4mXj/vJ95zy6zpR5zOXOfog5PPfVUspohUsgR4sRLhiXUYN8A+NJLL02uwTCyx/ZKBODC/f68885LskJpkeUHpltssUX1sY99LFm0LZ2U++96m5QqN7lc9bL6TX4effTRNA3h0EMPrdZee+1ktczy473Zddddk3tztliG/Pyf7MCBEp1FF27IJ3mBHeKJnIr87ZvPzTq/s/U2yO1S6lFZlS2Xnau4aQb6k/e///1p+TDKJ3XmdUFeKHJ41FhRZRC2INmD0IpRh0AgEBgKBDLJ9tGKwcpQNPmEVpIMDbO7uPp7lwx2zzjjjGq55ZabZpkT82CfffZJAz7rV2dCbdDovkF4/3I98iBdHUU3v/XWW1OE8yWXXDJZnVi7WdLM9aVgiP7n/15L+MFM3AwKGB5H2TMAdubT33XXXYmMwizjnHHvZxmq1yHXCxYvvfRSUtpYZnKhhRaaJj9vfvObk7XSuwSLYdxgJp4DoolkUuRleTEF5aijjqruu+++aX1Nlpk61v2IW738ftflReR7ik3WeV4QrNzc1nkJXXLJJSlmRD/LS5DsfpTYKHMgEAgMJQJBsoey2Ses0gY8w0qyDdwM+EXyFiCKJYX7ImuuIE+sjfAZ1k3dBXcTYOntb397GgAb/K6xxhpp8Juta8OIkTojlJbLEqxsqaWWSsSA5f8d73hHChDGcjuM2OT3Rd1//etfJ7dxAbXMy/WObbLJJin4HnyQrWHYYIFcWy5LcDBTTbxLMGHpN/+a5XbY5YWyirJTH8PCTV540lD6sYL3o7wEyR6GNzzqGAgEAgOBQJDsgWjGYiphUDeMJNuATZAmbuE5KA8i6f3Kg3/YDPOgl5Cqv4EthYTAb4J2cWXl2gqv733veynwYj8Ofjt5CUVkv+6661I0ZsSaRZKb649//ONpZGDYZSfLD9mhkGCtpMziEoxgWoJSdPVBJ5fkQJ9y5ZVXJvJIkUde9t1332n19/4Mu7yov5282Cn3xDPIypn99tuv+uUvf9l3buRBsjvpaePeQCAQCAQmEYEg2ZMI9hA8yqBmmEi2wRt3aANey2MZ8JoPabkZEcSHfaA7ksjDBrm8/PLLp5EFUbItW8aqPQxEm/xwbz399NNT4DIBzVjaEG5yFfLTWoJgAyNRyE09MGddZPuvfvWrSa4GEbvs7SCqPOs1BYO51jfddFP1l7/8JeSltbgkbF5++eW0pJgAjeTFlIN+wy5I9giNHJcCgUAgECgJgSDZJbVG/5fFwHZYSLYBr7VmTz311DTIN+gVrIl1JCxJ7ckyeYEVHAXxynO2rXzgHBI6qBt3X9HWRU1edNFFU93JEpf6kJ/2Wj3Lj2BpBx54YJqCYE7yf/7nfyblxaAQbfUQFM661izW5qabcz116tTkMh7yMjZ5eeSRR9LKCJQUdtN5TPXpB3kJkt1eW0eqQCAQCAR6jkCQ7J43wUAVwCBlGEg2gi3Y0MEHH5wGaazYlhgypza28SFAdi688MK0lBP3cUtQPf744wNp0UaYvCc77LBDkp911lknuT+zzMY2PgQQzZNOOiktI0d+PvKRj6To/v1AnEarMRf42267LS2/iRRameBrX/tastiPdm9cb46Ad5Ayj8KCBwnvAF4lpctLkOzm7RlnA4FAIBAoDoEg2cU1SV8XaBhItjqKiG2dX8F0rPFrvXmWydIHaKULF6J0ww03pHW1RQUWjd2SYM4PyqYu999/fwpohjBtu+221Q9/+MM0zzjkZ/ytDDueDxdffHHyCvBufvjDH07RyfsZV/Iiovx//Md/pLnX73znO6t777035GX8opLuJBNiaZxzzjnJE8m89uOPP754i3aQ7A4bPm4PBAKBQGCyEAiSPVlID8dzDFwG2ZKtftwKRYBmAdloo42qb3/72wNFAnstqUjFHXfckeZps0jmgW+vy9WN55Mf7uBHHnlkteCCC1a77LJLWmLJ+di6gwD5Mc92iSWWSF4C3lXzlftxIxdPPvlk9b73vS8FCNx7772TB03IS/dak5eAFSEssWiu9kUXXVT99a9/7d4DupxTkOwuAxrZBQKBQCAwUQgEyZ4oZIczX4O/QSbZBusCK1lzdYUVVqguvfTSmD/bZVEnQ4gSi7Z1xkXbFljOuX4nFxQ05gubT8sD4pZbbkl16vd6dVkEOsoOllyBkSXrjAuK9q1vfasvFWHcl0877bQU0G3KlClJ+aR+IS8dich0N8NStPazzjorKU717VY50N+UuAXJLrFVokyBQCAQCDRBIEh2E1Di1LgRMGAZVJLNFfW+++5L8yFZPMzh60UEaBgbAI629/tAXP0QUliLAmyN5FIHvu28MObxm0f71re+tVp22WUTCRRdfbK3YZEf1kjB9Oaff/4KQTXtoJ/eCdNPKJco81ZcccXqqquu6omFdVjkhUIje5jsuOOOyeNkst/Ndp4XJLsdlCJNIBAIBAIFIBAku4BGGKAiGJANIslWL8u/nHnmmWnpl5122inNy57sQbvnvfTSS2lN7q985Stpqadmx69//evJrZRFr183dVV+0ZS5jR9++OF9S7LV5emnn07R5wVZ+tCHPlQ999xzk076KCmQTRZ0cpNlx5Jh9vyf5VfcAYqBft1g/vzzz6fgcoi2ZdKc64dNOZ944okUk+B1r3tddcIJJ6S6THb5KRZF+TclJstGPtZlhryQ735eDcC7Qea33HLLylKCphlMNt7tyGaQ7HZQijSBQCAQCBSAQJDsAhphgIpgUDKIJNsAzHJLG2ywQXL1veaaa3oyADOI/cUvflG9613vqlZZZZVkFeVSvcACC1SLL754tfLKK6fzog8bJCLk/byRp3vuuSe5/aqfAX+JA9/RMEZWERFttt5661W33nrraLdMyHVKC4Rpu+22myY/1pYmP5ZPY2VXRkG2rr/++r6dy5zBU1/TO+abb75q4403TtbJfpAf8mKeMAs2K7w+tReb+cqmbbz97W9PsqF/4X5PXkx5yPKyxRZbJLkSSKxfN3JhOtDll1+e5MU78oc//KG4/iZIdr9KWJQ7EAgEhg6BINlD1+QTWmEDlUEk2dx6L7nkkmquueaqtt9++565EsLXMmHf/e53U3CnG2+8Ma2Vu80221Qf/OAH04BY0CfvNTJukNzvGwXHbrvtVr361a+uTjnllL60ZrOocl1G9o444oi0tFQv2oWSRiAtlmxywn1dubbeeuvqxBNPTP+dpxBgSeWy3O8bjwEk0Dr2logjT6Vvzz77bPJ6QGZZsXulLCMv5IBihlxQWFgaTX/DM0D/k+Xld7/7XV9bsrNMPPbYY9Umm2ySlAhXXHFFcfISJDu3VBwDgUAgECgcgSDZhTdQnxVvUEk2V0gu4qypJQ3UDYJ//OMfVwceeGCa48typw3sfpvHbIBssPjFL34x/TYYrrsBI+KPPPJIIujSUJKIgI2AGezLq5eb57P8WpKJJY3Co9dlGised999dxq4r7HGGomYlEL0kGiWSvLjW0AuMrbmNPPeMPVAgD/zgwWEeuGFF6YRD2lZLy1JxrtDmp/+9KeJyCPq0vZ6Y5287LLLKm7X3uGSI0dnrMj72muvnYLjUaiVJC/6EvLy/e9/fzp5gfPPf/7z1G9QSJpDLo1gf1mmHKWzBBlLPZkhO/opih/zonu9mRbEC4hC7L3vfW9x8hIku9cSEs8PBAKBQKBNBIJktwlUJGsLAYOoQbRkP/roo8mywZUWIc2DxrZAmcBEmWRb4kc0ZcTahjwh35a/MlDcY4890txUFstTTz21evzxx5PVCamyXNZhhx1W7bzzzsli/P73v7866aSTkivobbfd1vO6wlq9uKfOPvvslbYoBf92m5bFzzxPGJfk8q79G0m2OiHOlDOs7uRn1113nSY/559/fiLPuV2QaeuZCxZFznhUHHfccSlAIMLd67ZCUMmMJb1WXXXVovBvJT+IrMjo4hFQ8PUaw1xO/Yqy6W8QaP2PjeKCMubQQw9N8mJpOh4/3MwR7v/+7/9OdaDQo7zba6+9ksJjzz33TH2P9cylRdJ7XVfyou+0pJcpBqUFzAuSnaUxjoFAIBAIFI5AkOzCG6jPimeANGgkW51EFbeUlDnZlnspZWtFsrknf+Yzn6kOOOCARKJYJO+6665Eurfddtvk9smiJNDPwQcfnNIhgga5rJHIIFdVFrVeW9Hgr54CEs0222zJlbnXA/GxtL+ym+fJEs8CWJIltRXJpghAsEVbJgMUSz/84Q8rChhkCHl2r/M77LBDIldI1wMPPFAh4ZtvvnmKCM9i2eu28nwu8t5dUepvv/32npdpJPkhL6LqzzHHHNVHP/rRpPAYKf1kXmtFslmiEW/lJSfkgjzst99+1VZbbZWUHOpFPriaC/wnnX5VXTfddNNqrbXWqn72s5/1vG3Ii6k2PAnWXHPNFBOi1zJcb+Mg2XU04ncgEAgEAgUjECS74Mbpw6IZjAwayTaw/MY3vpEIHnfTkgZcBq6sLo2WbHM4ufbeeeedyT1TmZFl5Ii18Qtf+EKa5ylSMEJ98803J/InHWvTxRdfnJQKJbiq5rJ/4AMfSFHGS4362+p15d5O4THnnHNWxx57bKtkPTnfimSbx0zpkuf15zYgU5tttlmKCUBJc8EFF6TAXA8++GCSLzLG3Za3BMtxKSRbfci9oF1XX311Ue9wY8NbFpAHivgPn/70pxsv9/R/K5LN2i5Q3q9+9avkRZPlRb+yzjrrpD5Kv2ItavPjf/nLX06TF8HFvBdvectbiiHZlAb6Rcun8fRQn1K2INmltESUIxAIBAKBURAIkj0KQHF5TAgYjAwayc5kYp555kmusCUNuFqRbI2G8HCzNs/RoJFb+NSpU5OFxhHx+OxnP5vcNQX7kZdN/Vi0reVciiVbXQzQZ5lllmRh9b9ftt///vfVUUcdlQJvwbukrRXJVkYYI0a8IpAnUwc+8YlPJLkQAMtcW/WytFp9njwiZn7t6quvXgzJ9g6wslpzHXEt6R2uy4NycU/mXUJJQdlV0taKZGd5Mc0AaWbJ1ncIqqcelDNcxinKBE7jzZHbwD2UfRtttFExJFtMCtMeKGXOO++8aWUtoS2CZJfQClGGQCAQCATaQCBIdhsgRZK2ETBwGjSSjUAIdmZ9Y3MO8+CwbVAmMGErkm0wLKDQGWecUR100EHJzde8a/NrLdUkSrcAaJ/85CeTFak+71D9kO71118/DY5LILTKQDGAZHNhLqFM7TYr0nH00UdXiy66aKpDu/dNRrpWJBvx+cEPflB9/OMfT14SyBH5MZd23nnnTQGrBDVzXvRr8pbfC3nqA7iMl2LJRrIpBJBsXgW5rJOB8VieoVzeRW75giz2C8lGmr/zne+kvsSUCP0keXn3u9+dPDjM2+ddw32cl4N+K7cBRSClzDve8Y6iSDbZRrJNf8hlHUtbTlTaINkThWzkGwgEAoFAlxEIkt1lQIc8O4ORQSPZCIT3xHxgA8GSBlzNSLbyCWxmSSaD3JNPPjlFh+by/uUvfzmt0+wcF0/E1YCYpbJuyTY3kqtkSZZsxGPWWWetzjnnnKLaYLRXnpIGztzFjznmmNGST+r1ZiSb/FDQHHLIIYkUUdQIdsX1V8RoAaFEhUaaBKwiP+IU5PfC+4I0ve1tbyuGZPPa2H333Strgvdqjft2G5bFl3JDDIhPfepT7d42Kem0bWPgM+1uygoCjWBTYojrIHCe1QpEdUeyucGTKfOxeQdleUHQWbLNyy5lTjbPH4H89IG8NnJZJwXkUR4SJHsUgOJyIBAIBAKlIBAku5SWGIxyGIwMGslWJ6TDoJd11yC4lK0ZyUacuGcKembOLLdell8DZANf5AfJZmEV6VfgKpGBswun+y15xGJZCslWT3M5KTrUoaRB72iyAHtkA8nWJghGKVszkk1OkOm99947xSKgJFAHFkfnrTeNqDrP0prdfKXRLgi3NZSXWmqpYki2wGfeXYHPTJsoWX7IurgDAp+xvnsvS9makWxyIcYDhZ5gZ7kfcV5k8UyyTT0499xz01J25vBrA/uLL76YlAoiv5dCssUiEIhN4DMKhJLkJUh2KW9DlCMQCAQCgVEQCJI9CkBxeUwIGIwMGskGgCWAzFG2hFceII4JmAlK3IxkO4dIGPSy/iLKovgiSO95z3uSNe+0005Lg1su49wiLaWDOElnTWQRgRHaUgKfGbBzc0c8WJlKGvS207SUGNx/Bc574okniil/M5LtnCBWotBzBfc+/+QnP0lLxAkGteCCC6Y1jrmUey/UyTQElm7KKNGi11tvvVRf9/W6rZB/5WSBR+QQ7l6XaTSZYQnm2g7X+lSO0e6b6OvNSDZ5UV5KMMqVe+65J8kLQr3ddtslZR3ZkO7hhx9O51i8eTuQD3PkKf5KCXxGXtSBMmmTTTYpCn/tGyR7oqU88g8EAoFAoEsIBMnuEpCRTUJgUEk212prvxqoc1c2ECtha0aytQHrECsSAsQN05FVTPAwv7mSC+5j4Gugy4XT0kx2pFvAIktOlUKyuZsqD5JUdzUtoQ3aKYNBu6jcyi9acSnyo/0b18kmP4gdN3FEG9Hgai3iNdlnuTZPVTsgXayXlDfmYEtv6S/B0CgVSiDZyvn5z3++ErjQO1ySZbiV7AgyR1EhMndJnhvNSDZ5seSboHj6D/JCaUdBg2izCFvCjqxRlpm7bW4/eeFFo++xOsJKK61UhCWb54/pHfPNN1+1//77F7WEGnkJkt3qrYnzgUAgEAgUhkCQ7MIapM+LM6gk20A9u/xuvfXWiYSU0FTwNjeWBdqa15m8OY9oI3esqCxJXCBFihY53LrZmaxy4xToDKG2bBNrpN8rrrhicpXMefaqvp5PMfDqV786Eb9el2c8OGgLpIPrrKjF2qGEjZxQtljazbxl/22UN87ziDClgDyYty+A2N13350swwiX9CzaZMu35Kabbkry9aUvfalad911U5TpnGev6qteFE2vf/3rk+KpH+RHRHqKCkSPwgvuJWyw4wmgvxH4LrcteaGYESyPvPCe0afomywjyPtEGvfrd/RB5IXyTH9DIcgSzuMg59mr+pJza6ovs8wyybunNHkJkt0ryYjnBgKBQCAwRgSCZI8RsEg+IgIGSIPoLm6gZVkaVhpuywh3rweD9YZQlsby5HP1o3vq/5Goz33uc2lAzNLkGvJkri2XccTduV5tnq2MXJRF+kX8elme8eKAYLBIWtaKdZKrbCkbPPNeL1M+l4/5Wv7v6Psh0BUy5R2xi1ngHOt3nbjn+yfzSIEk2B/lBqJdinJjNAy8i9ddd11yoVZu70ApW73962Wqn/c7b/XzgoixEltLPcsLsm76ingF4kT0alPOHGdAPApBLinHStuCZJfWIlGeQCAQCARaIBAkuwUwcXpcCBioDCLJVi/Rcc03nX322dO8wn6cG1xvVHVikWIlttwO4sfyzRWYSzB3YYNO6XqxeS6SxPVUVHHr6xqY9+OmLhQErJMC6LFmm4LQK2y7gaGys1yyWIuG7b1n5SY3G2+8cQqGxT24V5vyIW1cmBdYYIHqzDPP7Bu8lZ3FeN99963mmmuu6rjjjqtYt/tdXnhEcB8XeJGF+/bbb69OOumkZMU2r7uX8qJvsSrDlClT0rSg0tbHzu9RkOyMRBwDgUAgECgcgSDZhTdQnxXPIHAQSbZmMAjj5siyxLJq7WMWmX7ezE/lSn7wwQcnF0nRdJFu0Y17TQLhjbDB2nzNkgJAjafNWbMto7baaqul4HPmq1Ji9PMmkjjX8D322CORJwGsKEVEp2cF7CUp5JZsTXUu11tuuWXPrepjbWfW7GuvvTbJvqCL5jWrUz9vFJW8gHbbbbcU7IxXh/n8V199dXKJ76W8sKhbYoxCxtz9XlrVR2rjINkjoRPXAoFAIBAoCIEg2QU1xgAUZZBJtuYx/9Q8wre+9a3VcsstV1144YWJSPRycNiJ2Cg3os1qZvkcc3PNi8zLfnWS93jvVSYEG8GwDBRLnmjXzvUrzhkLrtQ8Bcz3ZNEjS+rUr/VSbooCFkBeEXa/1bNXdfJcFlHTIOaff/6k0LCkHfnpt40Sj+u99b033HDD5Dmgfr3CtlP8lJtixnxtc7Htou3X11nv9BljvV+ZyCuFHnlZeeWVk3t+qfISJHusLRzpA4FAIBDoEQJBsnsE/IA+1oBlUC3ZuckMyJBrFlaWGMGeSh2Q5TL305EMia7Mej3LLLNUp5xySlFrk3eKJQvZMccckwb0oiuXEIG70zqVdD+PAXN/F1544RRR/KKLLkrTDkoq41jK8uyzz6aI/yzyLMCCzHlHYusOAhSnV1xxRerPF1100WRpN02l1C1IdqktE+UKBAKBQKABgSDZDYDE344QGAaSrY7Wl7b0jHWb11hjjbRObI623BGAQ34zZQULtjVzzcMWDMlc1EFSYqgLovTOd76zmnPOOdNSRiytOfDckIvAuKvvvUSwueEjS5Z8O/bYY3tqVR93ZWo3khceJgIRms9vdQNz30NeaiCN4yd5QbDN1aeQocQwV7yXVvV2qhEkux2UIk0gEAgEAgUgECS7gEYYoCIMA8nWXAbz3GIFsOLOzP339NNP75voxSWKHNnh4stF3HJdBx54YM/nhU8UTggS4mTuJ+Jk/WxzVc1ZjW18CCCjPAREEqegESxsUPCkwLvrrruqbbbZJsmL2Alf+cpX+n5O//haujt3wVQgQuunzz333NWpp57aFx4zQbK70/6RSyAQCAQCE45AkOwJh3ioHjAsJFujItoiRrOEmDMpYA7L68MPPzxQlteJFGDyYrdUmCBViy22WCJIJ554YgpUBeNB3NQZ0aao4RGxyCKLJOurKN0CvCGM0sQ2MgIwgpXl9QRco/AyxcB0jtItkiPXbPqrWV6s4XzQQQcl12brflPsmX4Ag9hGRyDLy4MPPljtvPPOydsByRaor5crKYxe8v+fIkj2/8cifgUCgUAgUDQCQbKLbp6+K5xBzKDPya43ivpyOWRVEjDHAN/RUl/cnGMbGQFEyJrcK6ywQsIOcbjkkktS4DXYDvqmjiJGn3XWWWkd8Nlmm61af/31q2uuuWZgrLAT1YawY6m2xrKAVbwfrGFvKbpeLgU1UfWVrzp7Z1hducSTl0022aT62te+1veRxycSt4ydQHIUWbxH9NX6HVM1WLX7ZQuS3S8tFeUMBAKBoUcgSPbQi0BXATAIHCaSncFjcbXGtHm2rGncVa01LQCTQGmuw2bYNxiwurHi6nsQBPOSDXi33377NNeU0mLYsDLIt7yX9aXN8yc/73jHO5KLsOjvYdn+vzeHXHiXyA/3eiTJuvUzzzxz9d73vjdFqh6Gd428iLgvQj15Qbbf9a53pWjdgnaFvLxSXng38DiCFXmxbKHYGv0mL0Gyh/0rGvUPBAKBvkEgSHbfNFVfFNQgeBhJdm4chOjGG2+s1l133WrGGWesZpppphSBPK87PayDX3JhN6gV7TmT61e96lVpvVzr5LJKSjOsm7pzWYXP0ksvPU1+BLxCKHu5LFav2wQ23h3Ly33qU59Kc9gpIrxfU6ZMSdZIxHvYNjLBa4YHSO5vKKusXT6Myqp6+5MX0wisTrDiiismYk1evE/mt/drXxMku97K8TsQCAQCgYIRCJJdcOP0YdEMXIaZZGcyYNkdLsCrrLJKmvfHerLQQgslaxPX8ueeey4RKgNhVikDwkHZ1EWd1A1p5DZvmbP3vOc91Rve8IZkpRX5mRXyk5/8ZApu5p5+HfR2s91gYLd2sMBdb3zjG5P8IJSwMx/31ltvrV566aXkHgxj5HKQsMvyw42ea7Q56ldeeWVluTMRoL1LvB9WW2216gtf+MK0udeDhEG7MpXl5de//nWa28+FPHtCLLHEEikw4x133JEUNPBk5R40eWGJ1t9QcJKXJ598srr00ktTFHYBzciL/kawuKuuuiphkHFrF+eS0gXJLqk1oiyBQCAQCIyAQJDsEcCJS2NGwOBlmEl2I2AvvPBCdd1116Uo0qxNXFvNHRVsZ7311qsOPfTQNCC0pNOLL76YrLksugaLBsV2RMoAcrKOnpX3kZ6Zy6esduVG/liPDGaPOOKI5DJvviwLkrpbW5ylzbq0zz///ECRw8a27/S/d+npp5+uPv/5z1dbbLFFmnecXaNhyoJ71FFHJavlY489Vplg1PNDAAAgAElEQVRvmmVnMuQny8h4ZNM95IcSpi4/f/zjH5PLszq/733vS14Opl9w70WUkMh99tknKW36JVBVp3LQ7v3khULivPPOqzbbbLMUZZ28ePcEZdxyyy3TkmaUfEh5lhfW8ImUl07kJPc/jfKizMqvz7TO/AUXXJCCTlK8kJMsLwIp7r///tPm6cOo37cg2f3eglH+QCAQGBoEgmQPTVNPSkWDZE8PMzzsrC2//OUvq6lTp6bBrrmBCKflhvKcZBGml19++eRejlTtuuuuaeAo+rTI2/nod97zucZjvt54bEyX/9fT5XOO9V2afA2BZlU1D5T7Jfd4lmnWekoEdaJIUEcWNYN+VmsYsKSF5Xp6OWn1j+zAivxY8usTn/hEUs6wasMWxtlySYmz0korpcBp1lLeY489UhvV2y23Xz7W273+O19vPLZKI13e689rld7SSciPJczIurnFZH/eeedNng7kx2/yZEm37bbbrjr//PMrHiKwCPlpLjF1ebGWNm8I2CKbiHaWF+R78cUXT+vRb7DBBsnq++53vzvNU27Vfq3acrT0dRnKMlI/V8+3nlc9zWGHHZbkRcyLzTffPClflltuuVSf7NlAXqx3barFjjvumJRTSDh5yf1wc9T662yQ7P5qryhtIBAIDDECQbKHuPEnoOoGM2HJHhlYGFl2R1RbpHvvvfdObuWIE0udgSICxVpp4GhgjIw3213Le7PrzuXrXI7tXCgb0+Y0+dh4vdV/7rvKqswG8uogujqCZ+6sSM/cxdU5tu4gAEsWboHSRJlGVN/85jcn7MkPYopQaRvy06rtcls7tpOG8gQ5a0yf85FH/p2PI+WrbGRceSmYyA/ix6133333rcQxuP3225PFMuRn/LIDO7EQxIqgpEFAEVRKmVb9TTvtN1qa7L1ST1f/3Uw28nXHxuvkhVzn/kbZ9TfrrLNOUkaee+656dvDKj/I8hIke/zvQtwZCAQCgcCkIhAke1LhHviHGdwEyR69meGULZQsu3bztFl6RSn/7ne/m9zMLWd1zjnnVJ/73OfSjnjU93xemnq6fD4fXRNsbMMNN6ysQe28fPL1/LvxmK83ppcfl14BlhBpgYS4iasD1866tXGQB7yjt/TEpIBpXYYsWYV4P/TQQ+n9u/nmm6trr702zVnObZrbMsvKaPKS0+X7l1122WRRPuOMM5Ls5PvzUf5+5/SOeW+8hhCRbRGyyTqXX0HNTCHgIhzy0125yfICVzuMEW/rRd95550VebFsnKB7WU4aj1keGs/X2ztfcw6JtxY1RWJOk6/nY5aXLCc5nWN+niMXePOsb7jhhqScvPfeeytTJEzHMc88y8sweDgEye7uuxG5BQKBQCAwYQgEyZ4waIcyY4O5INllNj2XSy7ejz/+eJkFjFIVi4D3etNNN02W8z/96U/FljMKVgYCyK6gj4I/UrrF1j0EgmR3D8vIKRAIBAKBCUUgSPaEwjt0mQfJLrfJg2SX2zall8x7bV499/Qg2aW3Vu/LR16CZE9MOwTJnhhcI9dAIBAIBLqOQJDsrkM61BkGyS63+YNkl9s2pZcsSHbpLVRW+YJkT1x7BMmeOGwj50AgEAgEuopAkOyuwjn0mQXJLlcEgmSX2zallyxIduktVFb5gmRPXHsEyZ44bCPnQCAQCAS6ikCQ7K7COfSZBckuVwSCZJfbNqWXLEh26S1UVvmCZE9cewTJnjhsI+dAIBAIBLqKQJDsrsI59JkFyS5XBIJkl9s2pZcsSHbpLVRW+YJkT1x7BMmeOGwj50AgEAgEuopAkOyuwjn0mQXJLlcEgmSX2zallyxIduktVFb5gmRPXHsEyZ44bCPnQCAQCAS6ikCQ7K7COfSZBckuVwSCZJfbNqWXLEh26S1UVvmCZE9cewTJnjhsI+dAIBAIBLqKQJDsrsI59JkFyS5XBIJkl9s2pZcsSHbpLVRW+YJkT1x7BMmeOGwj50AgEAgEuopAkOyuwjn0mQXJLlcEgmSX2zallyxIduktVFb5gmRPXHsEyZ44bCPnQCAQCAS6ikCQ7K7COfSZBckuVwSCZJfbNqWXLEh26S1UVvmCZE9cewTJnjhsI+dAIBAIBLqKQJDsrsI59JkFyS5XBIJkl9s2pZcsSHbpLVRW+YJkT1x7BMmeOGwj50AgEAgEuopAkOyuwjn0mQXJLlcEgmSX2zallyxIduktVFb5gmRPXHsEyZ44bCPnQCAQCAS6ikCQ7K7COfSZBckuSwT+/Oc/V3/5y19SoYJkl9U2/VCal19+ufr73/9eBcnuh9bqfRn/9Kc/Vf/85z+TvKyyyirVWWedVf31r3/tfcEGqARBsgeoMaMqgUAgMNgIBMke7Pad7NoFyZ5sxFs/77HHHqtOP/306sMf/nD1ve99r9p///2r973vfdWVV15ZnXDCCdVxxx1XPfHEE60ziCtDjcBPf/rT6uijj64+9rGPVffff3+1/vrrVyeffHJ19dVXV0ceeWSSoSBQQy0i01X+7rvvrg4//PAkFw899FC10korVVOnTq2uueaaioLvxBNPnC59/BkfAkGyx4db3BUIBAKBwKQjECR70iEf6AcGyS6neZ977rnqoIMOquaee+5qrbXWqpZeeulq+eWXr1ZdddVqnnnmqXbYYYfqV7/6VbI6lVPqKEkpCDz++OPVlClTqnnnnbfadNNNqwUXXLBaffXVE3maffbZq/3226/iKRFbIAABfcmaa65ZzTfffNUWW2yR+pi11167WnHFFatZZpmlOuSQQ6Kv6YKoBMnuAoiRRSAQCAQCk4FAkOzJQHl4nhEku5y2/ve//11dddVV1XLLLVfNMMMMaZ9xxhkr+xxzzFFdfPHFiSRps9gCgUYEyA/L9UILLfQK+ZlrrrmqO++8M7kGN94X/4cTgX/961/J84FSprG/oej7xS9+ESS7C6IRJLsLIEYWgUAgEAhMBgJBsicD5eF5RpDsctpaW/zhD39IbuKvetWrphv4br311mnQW05poySlIUB+fvvb31YbbbRRUswgThQ0ZGnvvfeuzL+NLRDICJCXX//615W52OSkLi8HHnhgmtuf08Zx/AgEyR4/dnFnIBAIBAKTikCQ7EmFe+AfFiS7vCa+4oorqmWXXXbawHfOOeesvvCFL4Srb3lNVVyJvM+s2VzFsxcEq+Ttt98eVuziWqv3BeL9YB6/6ShZXvxmxXYtts4RCJLdOYaRQyAQCAQCk4JAkOxJgXloHhIku7ymZs3ed999q5lnnjkNfLfddtvqgQceCNfN8pqqyBL97ne/S0HPZppppmTFJksvvPBCyE+RrdXbQun/eT8IepblxVxsAfJci61zBIJkd45h5BAIBAKBwKQgECR7UmAemof0A8lWRlaVYdktqXPZZZeludmvec1rqgsvvDBZsc2hHAYMtHc3B/jDKD+f+MQnkjXbXOwf/OAH1d/+9rehkB3vR6fyM0zyok/R33zkIx9JARd5Pfz85z+v/vGPf4S8dGkUECS7S0BGNoFAIBAITDQCQbInGuHhyt+A8kc/+lG12WabVTfccEMaWJWGgHmD1157bXXRRRdVF1xwwVDsZ5xxRrXeeuulSL/cOYel3uqprR999NGuEG3y/eCDD1aXXnppUlYMC45cxk05WGONNSqyNCz1Vk/92LPPPjsu+UHSf/azn1WXXHLJUMkLpcziiy+eVjWwVvawyAsF5o033jihnh5BsksbUUR5AoFAIBBogUCQ7BbAxOlxIVAyyTbgNQDaeOON0wBwscUWqzrZX//613d0/2jP7nb+rErmY4sWPdqz+/16HTuDfUtQIUvkczyb+8gPsrTCCitUb3jDGwYew0YZ4AXBkr3IIou8ou51vBvv6/f/SyyxRLXjjjtWP/nJT9qWnywv5513XvIgmUh8Rst7tOsT1T6WedPnLLrooq+Ql7E8c7Tyj3Z9tGd1en9j/m984xurXXfdtbJW+Hj7m5H6qCDZI6ET1wKBQCAQKAiBINkFNcYAFMWgokRLtnKxZiJbs846a2Ve8sEHH1wdeuihr9g/8IEPVPW9WZrxnJOn++p5j/Q7p83PGuv9OX2+vzG/+vlmv5vd3yzdaOdGqmOra63ybJa+VVrnpdfWFAsiqt99993jGviSH26vCJe57XvttVfKu/HZzco30rnG+3vxX/kyViOVNV/LaRvLmq83O7a6pzGPsf5v9axm+TRL28450dXnn3/+FKWfF0w7xIlC5r777ksu9rPNNluKxu5ZzcrVzrl2ytmYRr75mY3XWv2v39P4u51yNqZpfE7j9fr/sZa1Mb288rl6vq1+18vWKk275/NzzT9fZ5110lrhhx12WPX000+3JS9j+fQHyR4LWpE2EAgEAoEeIhAku4fgD+CjSybZ1113XbX00ksn0oUw/fGPf3zF/tJLL6Vzjvl3s3TNzo31nlb553zysf6sZufy9dHyy+nycazp6/c13tv4P6d1dK3V9WbnW6XPaUe7Xn+239p6n332qViYRFVHgMa6ketzzz03rS8ur+eff76p7OQyNpah2flW9ciYNeaRzzfLa6RrrdK3uienz8dcDv/zns/lY0472vWcPh/zffl/Po7nfL4nH3Nejs41O5+v1dPmczm9SOqbbLJJCuZlPnq7JHvq1KnVLLPMUh100EFN5SU/p/HZ+Xx+fv16PpeP+Zr/jefq+bS6ntPkfOrHkfKrp8u/m6V3rf7sZmmanct5NjvW82t2vfHcaPm3yq/VfaOlv+2226o111yzWnXVVav777+/LXkZS38UJHssaEXaQCAQCAR6iECQ7B6CP4CPLplkC/6FaO2///7jnmM5gE028FUy6D7mmGOSm/PZZ589bpJ9+umnV1xgjzvuuJRHO2Rr4MEdggo+88wz1U477VQtueSS1S233NKW/FDknHjiiRUr9qmnnhryMgRyoor6BNH4p0yZUi2zzDLVj3/847bkZSzwBMkeC1qRNhAIBAKBHiIQJLuH4A/go/uBZB9wwAHVc88913ULwwA250BUieXp2GOP7RrJPv7444M0DYRktFcJQc923nnnMZPsE044IZHs0047LeSlPaj7PpXv31NPPRUku+9bMioQCAQCgUAXEAiS3QUQI4tpCATJngZF/CgEgSDZhTREnxYjSHafNlwPih0kuwegxyMDgUAgECgVgSDZpbZMf5YrSHZ/ttsglzpI9iC37sTXLUj2xGM8KE8Ikj0oLRn1CAQCgUCgCwgEye4CiJHFNASCZE+DIn4UgkCQ7EIaok+LESS7TxuuB8UOkt0D0OORgUAgEAiUikCQ7FJbpj/LFSS7P9ttkEsdJHuQW3fi6xYke+IxHpQnBMkelJaMegQCgUAg0AUEgmR3AcTIYhoCQbKnQRE/CkEgSHYhDdGnxQiS3acN14NiB8nuAejxyEAgEAgESkUgSHapLdOf5QqS3Z/tNsilDpI9yK078XULkj3xGA/KE4JkD0pLRj0CgUAgEOgCAkGyuwBiZDENgSDZ06CIH4UgECS7kIbo02IEye7ThutBsYNk9wD0eGQgEAgEAqUiECS71Jbpz3IFye7PdhvkUgfJHuTWnfi6BcmeeIwH5QlBsgelJaMegUAgEAh0AYEg2V0AMbKYhkCQ7GlQdOXHf//3f1e/+MUvqt/85jfVv/71r1fk+Ze//KV68sknq+eff76CfbPN+T/+8Y/V7373u0p+//73v1P6Z555pvrb3/6W/j/33HMpn7///e8pi3/+858pjWO/b8NKsrXziy++WD344IMVotgoP+Ti5ZdfTu3+pz/9qaX8yOf3v/99SpflhezI0zU7GbT7LV9y9MILL7zimf0oS8NCssmHfuShhx5K7d1MXrxL2lk/0qq/IQMwk+4f//hHkomnnnoqndP+8nXt6aefniYv5Eof1fjMfpMXmKjrlClTqmWWWab68Y9/nOrYzXrM0M3MIq9AIBAIBAKBiUMgSPbEYTuMORtk/OhHP6o222yz6oYbbuj6AGO8mCrXZZddVr3xjW+sDjjggAqpbDVIHO8zun2fwepNN91ULbvsstXuu++eBqX1MhuQ3n///dUhhxxSXXDBBYkwNysDwnP11VdX73//+6sf/OAH1Z///OfqvPPOq44//vjqiSeeqP73f/+3+uQnP5nyMfiV7+OPP16ddtpp1R/+8IficWpW5/q5YSXZCPT5559frbzyytVHPvKRVyhiECDyRS6+/vWvJ0JUxy3/Jh+f/vSnk3w89thjSX7IzkknnVRR8tg/8IEPVIceemj6TTHzs5/9rPrsZz9bIe/9vg0LyaYU+dSnPlWtuuqq1YknnpgUNPW204986UtfSvJy6623Vq0UcOSFbOiXKGP0N0cccUR1yimnpO8BmSBzRx99dJIXBBsZ1Yf913/9V/2Rffdb/xwku++aLQocCAQCgcDEIBAke2JwHdZcDTKCZHen9Q1OP/rRj1ZbbLFFtemmm1Zf+9rXprP0IMP33XdfdfDBByfSbHAL/zoRVxJk6rvf/W4iPUi5fM8999zqYx/7WCLT7rvyyivTdcoHg+frrruu2n777adZm0aqUbNnjpR+sq+NRrLbKb80p59+ejX77LMn5US22E52Xdp9nvJSlCC+FF677rpr9cMf/nA6pRe5QK7JD9lCopphgQRde+21ST4QiP/5n/+pjjvuuOoTn/hEkqW//vWv1VlnnVX953/+Z+U30n3RRRdV++yzTyJq8my15eeNlKbVvZN1fjSSnetQLw/5OOGEE6rZZpstKatKlxfl4/FAFvQ1e++9d3X33XdP15eQD3Igjf4ky0u93rAgLxSalCws4+Tl8MMPr04++eTUfyHSrl144YVJXpDuz33uc4mUe1dHkoWM9Uhp6uWZ7N/KFSR7slGP5wUCgUAgUCgCQbILbZg+LZZBRpDszhsPjg8//HC10UYbJWvkBz/4wcpetwxmkn3QQQelQSs3z+9973vVbbfdVrE4Ijw26biK//znP0+DXiSoTrKRrV/96lfpugHxo48+mkjU2972turSSy+tHnnkkeSufscdd6QBc66dMhowy9fA0v8St5FItjKz3rPMsb7Cplk9nOsnko3o3HzzzdUOO+yQZIPl8Iwzzpiu/TLJJj9XXXVV8or4zne+U91+++1JXpAoG6ULedLO3IQpaeokWzrXHnjggeQVQZHDso2sUdaQLftPf/rThG+WEZjylDAdAhkrdRuJZKuDun3rW99Kx2zd7TeSTe6/8pWvVLvttlv1mc98piIT55xzznTtlUm2a7yUtOctt9xS6Re4fpMneMBAn0Em5NtIssmma/orsnTXXXdV73vf+6qtt966+upXv5pkLd+f+zCyAVNtQV64lpe4qX+Q7BJbJso0EAgYcNx7773VT37yk3T0O/+vn6v/ztdz2vr/xnT1NO3+znk45j3fm6/Vn5mvdXLM+TYeG/PM1/P5Vv8bz+f0Yzk25lH/3/i78X/9OfVr9fMj/c735GNOO9L/+rX6b/eO9j/nP9Ix58H6sPPOO6eBuA9EbIFAJwiQoSDZnSD4f/caqLIGrb322mlAiuwiLXXrUibZ73nPeyr7UUcdVb3jHe+ottlmm+pDH/pQItwGuQa1LNUsUAi4QW+dZEtz6qmnpuvmfku7xhprVPPNN196PqskN9H11lsv9T25n1BG5fFsFtF8vvPadzeHRpINNwN2g2HkGiFcdNFFk9dAq2kE6tYvJFtZzcXm4v3Od74zueKaDrDnnnsma2Vup0yy3/3udycrIqv3tttum4g5KywvCcQK0eFGTH4oYMhPnWT7zzUYjrD2TVluueWqhRZaqHr7299eXXLJJekcazpilZ8v3y9/+ctJeaTPKHVrRrLVARaU1O9617uqueaaK7k7q5Nr/USylZdbNxfvfffdN5Fe0wEOPPDApDjI7ZVJtqkrhx12WHL5Roz1OazU2pZMwYC7OXlBvhtJNhlxTX/lfaP8MSXGOygv/Z537b3vfW/COD8fIdcPHnnkkUk2S5QXZQ2SXWLLRJkGAgGaPQMhHY/dYCcf/W625+v5nnxs5956fp3kU783PzeXo/Fa/ZmtftfvGWs+ndzbrDyd5NfJvfWydJJP/V55+l/f87n680b6Xc/P7w022CC5hhl4xhYIdIqAQUaQ7M5QhKH5kXvssUcaUFLesrIiQKxMSLMtk2xKMmTcnEdWyBtvvDENkJEe9xn0joVkGySeffbZyc34+9//frJq/vrXv07fL3N8kWtlNHj+4he/mEg2cl7q1kiyf/vb31bf+MY3EilcYoklqplnnrl63etelyx56tZsU99+IdnqwFLI5Ze8sPpRgiC55ABZsmWSvfnmm1f/8R//kRQv3l1WbRZNRAlWlDDtkmyWblZvpAthuueeexLpoNxBRllLyS08kVf5InTIVqlbJtlvetObqm9/+9uJTKqH95MiaqaZZqoWXHDB5HmCXNv6iWSTA+1OWSZWAwWNGA7qd/311yc5UadMsjfeeOM0Bvn85z+flGxI8Y477pjeD1ghw+2SbH0bcv7xj388PY/yX/8jVgD59Z5meeGNY4qC97BUzwdyHSS71Dc5ytX3CHDVW2qppVJAB0Ed7ObU2Rt/N/7P6cZybJWH843XGv+P5TmTmXYsZa/XaSxlrN/X+Hu0/2N5TrO09fxdb/zf7J52z9Xzqv8e6X4WiWuuuSYNCvr+BYwK9BwBgwwDtk022SQNnLhRclsdbTd4zWn8rv/P5zs5KgcLyMILL1x84DMYClC2+uqrJ3JkkGnge8wxxySvE8RHmkyyDUa97zlImUEzCy23TpYfJLNdki1v+SIRXI1ZuDwL0WLpYl1SFiTCoFf/wRLleqlbJtnzzz9/IhIstgLgvepVr6pmmGGGasYZZ6xWWGGFhLl6NdthwhrcD3OykRxEmRLVPGyk29QD1mZzYzOhzSQboTYnNk9FyJ4PrJrkSAC1dkm2Z1PqIGDmZCP48KSE8R1CqOUHT55W5PaKK65Ibualyk8m2YsttliyvrL8k6W6/MA211V91Q9xnHXWWYufk609eKtQ1vFMIS8MRizZ4jZkQptJ9i677JL6FQoVm5gOX/jCF1J7c/1GnNsl2eTF87mmw9C7Cj/u4h/+8IcTofYcZaJAFMAP8c+KotJkRl8ZJLu0VonyDAwCtLVbbbVV0vzpZO25w23nKE3eW92br4+UXztpWuWfz7eTR7fS5Gc2Hrudfzv5NZYh/2/n3m6lyc9sdezWc3I+Pgz22AKBbiAg4BKXQnN6efbkXQAmvxuP+XqzazltO2ly2lbHN7/5zYkk7b///kVHFzdo5a5rGRjzhb2biI/5rWuuuWYaZOob7Fx6kcbLL798msVJetZEEX3lY9DXKck2yKWogK1IwMpjLqZ2FgRJX1Lqlkn2a1/72srOco1YI9h559rMBRbZtHOnN/DPR+coHWaZZZZEPNS3xD5TmShGTBegEMnu7xQjZ555ZvJG4J2g/JlkI97mYmtjmzwQYOSbkgbJ6oRkyw+RQsT22muvZLnkBUERwNvCs0rEMsszkr3TTjtV88wzTzXHHHMky3Wj/HjXBH8jM3byQslBXkTpL1leeKnoQ+zaWltYso3VGPFGnJU/k2x19e7rf7K8UKwKlKiPImudkGx58uQx7YCikFs+4i5QGkWpOdmlyotyBcnOb04cA4EuI4Bk61h9rErtBLpc5cguEAgEAoHpEND3IWQGnTnqcP6djwZQfnNLtvtfP+Z0jUfp8t54rfF/fkY+zwI177zzViWTbNix+m244YbVuuuum+bVwkUdDDApCgyGDWR9Z5Bsg16DWwNhmzzMhTTn0c463SnJlrdycfll9UJcHVnRPavk710m2VzCuUVzu0eqWSIzWWKZRCiQPvg65j3/NycdQWfdK5U0ZddfZTUfmrs4+UGwke7VVlsteR4gLUgTN3IywkqY29BRMC9tbXoAwtUpyfYsVvX99tsvBc0ik6Y3wBKhKnnLJJtLuDnu3KXnnnvuafJDhnjIqBtZEaCQ7Ky11lrFk2zKMl5D+hpKpKlTpyZ5ITfcxSn1KA0oRaQVXZxHQl0xQl64fJumxisBUe+UZFM0+oYg2Y6INlnhTVJq0LPc9wbJLvltjrL1NQJBsvu6+aLwgUAg0CUEDLwQkfreLc+Mep7t/vZsVrnS18lWTkHGBI5iGRKsivXPzmrMor/++usnUoRQIdkssKyCdcsSbwLkydxYls1OSbb25NppEC4SsLneSL+leAy+S94yyV5kkUWSsoIlDPE0ZxhxQraRpLyMFRwpMOpHWLNIWpKJyzO5g0lJm/JwrVW3lVZaKc2TzbLjyM13nXXWSRZqkcC1G5Kdg+TV5UeEcPdk0tQpyYYXrwzyyELK+8FzkTbYlrxld3F9hykrrLjmBXsXeUaQn8UXXzwpJtQly03p7uLkhbLOdA9rqbPW1+WFQoE3EuUM9+1MsrlxZ+u2dpOPufeUVKKDI8GdkmzyQtEDQwH8zNEmL+JNZI+LEmUGFkGyS2yZKNNAIBAkeyCaMSoRCAQCA4aAwY8APSWTbGU0LxaJ3W677dK8SGT5iSeeSDtrDgIuWCHCxwUXyTZ3FnlBJuXBasj9VwRfdXZ+PCS7cZ1sg1sWTxYr1i2eAQiHZ5a81Uk2AmoAbxMczH8WPJZsltVWVjJ1LD3wmXqRFUSJVZUiJMuOo3WQWbS33HLLJBes2Ug2bwQRwFkr1TMHyuvGnGwkTp52+Quo5XnklZs6sl/6lkn2kksumZasgrP6eBcy2Z5zzjmTwsC7Z5Om9HWyvc8UThR5LO/aoi4v3g/t5H0XBZ68UIpIrx+idIODeAx5Dr453dJ1QrKzvOgLTTE44IADkmKLBR3ZL3lT9iDZJbdQlK2vEQiS3dfNF4UPBAKBAUXA4KcfSLb5zqusskqaC8wqlgecjixkgo0hz1tssUUiUQIUmXveHvgAACAASURBVDvLBRpRQrq5V3JZZfkZa3TxHPgM+WL1ZLnjLpzLwTVcQCuuyMrhWulbK5KNCNmRCW7RcEMQmm3qXzrJzu7f2i1biHO7OSJV5IsbOOLCUqidKXQQJ1MOyAtCJdI0pQN5GEt0ccSLqy9Z5JqPiFJc5OcjYTwyEDfLxmmb0rdmJFuZyY53kqKJR4djtrL2A8nWVpQeLPIs0Mpelxf9jwCMLNwUIuZukyvvPiUOzw/ywouGazmLsxgA5GUsJNs7J/YBpZ653ci1cni+YML6N/JiykwOzleqzCh3kOxSWyfK1fcIBMnu+yaMCgQCgcAAImDwUzrJRpIMVM2PrK8nXG8OA2PLZknjaMkbUYBZv0Xe5dppqSYu5CJDs0rK10D4/e9/fyXolTws1cPtmeVKGpZx1zPJ9nzkC3lnTTLgtbmXNdS6tvLIlrt6GUv73Ypkj6Wc5Kd0kq2eItBrN+2qzPXNfxHokWftSqnA/TbPJTa3n5WZ/IgaT4GjfZFmckk+BNQjA+bHijaPUPnPEmo+sv9kxfxriiCE+oYbbphGPimJTDMwZ1yU6ExK6+Us7Xcrkj1SOUsn2WTBNBJtgSDnAIv1OklDqZZXNUB4rURCXvQvdsoZ0xBY7XlKaHv9iSkB5MUzyAfZIndwQZRdE1mevOT51zwsKPCsPU554fm8dyjzBFwkr6XLizIHya5LUfwOBLqIQJDsLoIZWQUCgUAg0CUEDH5KJ9kGkMgJ67GBarPNINXAlwWSFQlpYkFjjRWMyCCYK6cBb87DPQarrFIIg+e4bh4lK5L/CJXr5vTCysCXFfLiiy9OR4Nem3mZLJ4Cs7GKSlv6NiwkG2FBhLRjK+UHEsTlFpEhE8g46yGlCjkyB5uF0jSFnIe2N0dbvqYoyIPsUPCQnSy35MVvMiGdKQui3vOuyPLDfdy8fsTOsmL9ID+DSrK9+xRx2l+bNtvIAJdyfRJZoWQxH1vbUdiRF30Rkp7zIANkg7xkpcudd945LViaPsQ1+UirfyIXnkEZyG3dORvLOJd1nheeXbq8KF+Q7GaSFOcCgS4gECS7CyBGFoFAIBAIdBkBg5/SSXaXq9zV7OBn4GtgjiRxR+8HV18gDAvJ7mqDdzmzLD+IGgu4QGoUOv2wDSLJLh33LC/IvOBnYkCwiJe+KXeQ7NJbKcrXtwgEye7bpouCBwKBwAAjYPATJHv8Dcwidcstt6Tl07gjm8OZrZPjz3Vy7gySPTk4t3oK5QyPCxZPc3W5BLNkZmtlq/tKOR8ke3JbglxwM9fHHHvsscmKzeqtDy99C5JdegtF+foagSDZfd18UfhAIBAYUASCZHfWsIJXmYNpjWBzK5Gmfhj0qnWQ7M7avtO7KWO4o5vLu/XWW1cXXHBBapN+kZ8g2Z1KwNju50Ju6gtljMj/lKOmH/TDFiS7H1opyti3CATJ7tumi4IHAoHAACMQJLuzxjU3M8/LRTr6xQqp1kGyO2v7Tu/27plmYJ6u6OIvvPBC3yho1D1IdqcSMLb7yYt31rx/cR9ydPqx5dKb1EGye4N7PHVIEAiSPSQNHdUMBAKBvkIgSHZfNVdXCxsku6twDl1mQbKHrsnHXeEg2eOGLm4MBEZHIEj26BhFikAgEAgEJhuBINmTjXg5zwuSXU5b9GNJgmT3Y6v1psxBsnuDezx1SBAIkj0kDR3VDAQCgb5CIEh2XzVXVwsbJLurcA5dZkGyh67Jx13hINnjhi5uDARGRyBI9ugYRYpAIBAIBCYbgSDZk414Oc8Lkl1OW/RjSYJk92Or9abMQbJ7g3s8dUgQCJI9JA0d1QwEAoG+QiBIdl81V1cLGyS7q3AOXWZBsoeuycdd4SDZ44YubgwERkcgSPboGEWKQCAQCAQmG4Eg2ZONeDnPC5JdTlv0Y0mCZPdjq/WmzEGye4N7PHVIEAiSPSQNHdUMBAKBvkKgkWQbODsX2+AjYAmgY489tlpkkUWqs88+e1zLj5GV008/vZp99tmr448/PuUR8jP4sqOG+oqddtqpetOb3lTdcsstbcmPJe5OOOGEarbZZqtOO+20kJfhEJX0TXnqqaeqKVOmVMsss0xagqzbyx3OMCRYRjUDgVcgECT7FZDEiUAgEAgEeo4AQnTVVVdVSy65ZLX77rtXBkJBknreLJNSAG19yCGHVG94wxuq888/vy2S1FgwsjJ16tRqjjnmqA499NDqX//6V8hPI0gD+v+RRx6pttpqq2q55Zarbr311rbkB7E69dRTq1lnnbU6+uijQ14GVDYaq6WfeOCBB6r111+/WnHFFat77723LXlpzGek/0GyR0Inrg00AkGyB7p5o3KBQCDQpwgY/Pw/9s4DbIpaffvCQcUGKIpiwY6KKKiIoh7EDnZFVFAUe2+o2FGaXbBjR+yKvffP3nsHFey912M7+a5fjs/+wzj77mx7d3fmnuuazUwm5cmd2SR3nieZV1991a244opeuzRkyBA3YsQIN3r06KLPMWPG+DhRN19a0XB2ny98Mf6WVtTNl0Y0nN3nC5/E39LI5+ZLo9jw+dIJ/ePSpK7nn39+17t3b/fggw+WRI55f5566inXpk0b//4cfPDBbtSoUU2+O3GyhLJGr4sNH40fd58vTfOPi4OfPY+6+cIn8Y+mZff54trzqJsvfDH+0TTtPpoGdbz55pu79u3bu6233tq9/vrrid4fSPZjjz3mZpppJte2bVt36KGH5n1XLO+oG5XF7qPh7N6el+JaGlE3X1rRcHafL3wx/pZW1M2XRjSc3ecLX4y/pRV186XB+8KETLt27dyOO+7opk2bluh9KaZbFckuBi2FTRUCItmpqk4VRggIgRQhwMB34sSJrlOnTq5FixY6M4JBy5YtvanvxRdfXNbbzPtz8sknuxlnnFHvTkbeHdoJ3p/u3bv7CZqkLxCTMrwvmIwTX+1Ndtpb6rtnz55ei530fSkmnEh2MWgpbKoQEMlOVXWqMEJACKQIARv4Ys539tlne03kyJEjXVbOXr16+cHfQQcdlJkyU7fU9Ysvvli22aa9P2i0WZ+dlfcm6+W86KKL3NSpU4t+f3hf/vjjD/foo4+6E088Ue9LRtraCRMmuI8++qjo9yVpVyuSnRQphUsdAiLZqatSFUgICAEhkAoEDjzwQLfXXnu5d999NxXlUSGEgBAQAllDQCQ7azWu8uYQEMnOQaELISAEhIAQqCMERLLrqDIkihAQAkKgBAREsksATVHSgYBIdjrqUaUQAkJACKQNAZHstNWoyiMEhEDWEBDJzlqNq7w5BESyc1DoQggIASEgBOoIAZHsOqoMiSIEhIAQKAEBkewSQFOUdCAgkp2OelQphIAQEAJpQ0AkO201qvIIASGQNQREsrNW4ypvDgGR7BwUuhACQkAICIE6QkAku44qQ6IIASEgBEpAQCS7BNAUJR0IiGSnox5VCiEgBIRA2hAQyU5bjao8QkAIZA0Bkeys1bjKm0NAJDsHhS6EgBAQAkKgjhAQya6jypAoQkAICIESEBDJLgE0RUkHAiLZ6ahHlUIICAEhkDYERLLTVqMqjxAQAllDQCQ7azWu8uYQEMnOQaELISAEhIAQqCMERLLrqDIkihAQAkKgBAREsksATVHSgYBIdjrqUaUQAkJACKQNAZHstNWoyiMEhEDWEBDJzlqNq7w5BESyc1DoQggIASEgBOoIAZHsOqoMiSIEhIAQKAEBkewSQFOUdCAgkp2OelQphIAQEAJpQ0AkO201qvIIASGQNQREsrNW4ypvDgGR7BwUuhACQkAICIE6QkAku44qQ6IIASEgBEpAQCS7BNAUJR0IiGSnox5VCiEgBIRA2hAQyU5bjao8QkAIZA0Bkeys1bjKm0NAJDsHhS6EgBAQAkKgjhAQya6jypAoQkAICIESEBDJLgE0RUkHAiLZ6ahHlUIICAEhkDYERLLTVqMqjxAQAllDQCQ7azWu8uYQEMnOQaELISAEhIAQqCMERLLrqDIkihAQAkKgBAREsksATVHSgYBIdjrqUaUQAkJACKQNAZHstNWoyiMEhEDWEBDJzlqNq7w5BESyc1DoQggIASEgBOoIAZHsOqoMiSIEhIAQKAEBkewSQFOUdCAgkp2OelQphIAQEAJpQ0AkO201qvIIASGQNQREsrNW4ypvDgGR7BwUuhACQkAICIE6QkAku44qQ6IIASEgBEpAQCS7BNAUJR0IiGSnox5VCiEgBIRA2hAQyU5bjao8QkAIZA0Bkeys1bjKm0NAJDsHhS6EgBAQAkKgjhAQya6jypAoQkAICIESEBDJLgE0RUkHAiLZ6ahHlUIICAEhkDYERLLTVqMqjxAQAllDQCQ7azWu8uYQEMnOQaELISAEhIAQqCMERLLrqDIkihAQAkKgBAREsksATVHSgYBIdjrqUaUQAkJACKQNAZHstNWoyiMEhEDWEBDJzlqNq7w5BESyc1DoQggIASEgBOoIAZHsOqoMiSIEhIAQKAEBkewSQFOUdCAgkp2OelQphIAQEAJpQ0AkO201qvIIASGQNQREsrNW4ypvDgGR7BwUuhACQkAICIE6QkAku44qQ6IIASEgBEpAQCS7BNAUJR0IiGSnox5VCiEgBIRA2hAQyU5bjao8QkAIZA0Bkeys1bjKm0NAJDsHhS6EgBAQAkKgjhAQya6jypAoQkAICIESEBDJLgE0RUkHAiLZ6ahHlUIICAEhkDYEDjnkENevXz/3zDPPpK1oKo8QEAJCIBMIiGRnoppVyDgERLLjUJGfEBACQkAI1BoBabJrXQPKXwgIASFQHgIi2eXhp9gNjIBIdgNXnkQXAkJACKQYAZHsFFeuiiYEhEAmEBDJzkQ1q5BxCIhkx6EiPyEgBISAEKg1AiLZta4B5S8EhIAQKA8Bkezy8FPsBkZAJLuBK0+iCwEhIARSjIBIdoorV0UTAkIgEwiIZGeimlXIOAREsuNQkZ8QEAJCQAjUGgGR7FrXgPIXAkJACJSHgEh2efgpdgMjIJLdwJUn0YWAEBACKUZAJDvFlauiCQEhkAkERLIzUc0qZBwCItlxqMhPCAgBISAEao2ASHata0D5CwEhIATKQ0Akuzz8FLuBERDJbuDKk+hCQAgIgRQjIJKd4spV0YSAEMgEAiLZmahmFTIOAZHsOFTkJwSEgBAQArVGQCS71jWg/IWAEBAC5SEgkl0efordwAiIZDdw5Ul0ISAEhECKERDJTnHlqmhCQAhkAgGR7ExUswoZh4BIdhwq8hMCQkAICIFaIyCSXesaUP5CQAgIgfIQEMkuDz/FbmAERLIbuPIkuhAQAkIgxQiIZKe4clU0ISAEMoGASHYmqlmFjENAJDsOFfkJASEgBIRArREQya51DSh/ISAEhEB5CIhkl4efYjcwAiLZDVx5El0ICAEhkGIERLJTXLkqmhAQAplAQCQ7E9WsQsYhIJIdh4r8hIAQEAJCoNYIiGTXugaUvxAQAkKgPAREssvDT7EbGAGR7AauPIkuBISAEEgxAiLZKa5cFU0ICIFMICCSnYlqViHjEBDJjkNFfkJACAgBIVBrBESya10Dyl8ICAEhUB4CItnl4afYDYyASHYDV55EFwJCQAikGAGR7BRXroomBIRAJhAQyc5ENauQcQiIZMehIj8hIASEgBCoNQIi2bWuAeUvBISAECgPAZHs8vBT7AZGQCS7gStPogsBISAEUoyASHaKK1dFEwJCIBMIiGRnoppVyDgERLLjUJGfEBACQkAI1BoBkexa14DyFwJCQAiUh4BIdnn4KXYDIyCS3cCVJ9GFgBAQAilGQCQ7xZWrogkBIZAJBESyM1HNKmQcAiLZcajITwgIASEgBGqNgEh2rWtA+QsBISAEykNAJLs8/BS7gREQyW7gypPoQkAICIEUIyCSneLKVdGEgBDIBAIi2ZmoZhUyDgGR7DhU5CcEhIAQEALNjcB///tf991337nvv//e/fXXX85I9ttvv+3v8SOMDiEgBISAEGgMBESyG6OeJGUVEBDJrgKoSlIICAEhIASKRuDll192++67r9tqq63c9ddf73bZZRe35557unPPPdcNHjzYDRo0yL322msi2kUjqwhCQAgIgdogIJJdG9yVax0gIJJdB5UgEYSAEBACQsB988037qCDDnKzzTabW3zxxd18883nFlhgAbfIIou4WWed1ZPsd955RyRb74oQEAJCoEEQEMlukIqSmJVHQCS78pgqRSEgBISAECgeAczBb7zxRtetWzfXokWL6c7ZZ5/dTZo0yf3222/FJ6wYQkAICAEhUBMERLJrArsyrQcERLLroRYkgxAQAkJACLDe+ocffnAHHHCAa9WqlSfZM8wwg3e32WYbN3nyZIEkBISAEBACDYSASHYDVZZErSwCItmVxVOpCQEhIASEQHkIsB57ueWWy2my27Rp46655hppscuDVbGFgBAQAs2OgEh2s0OuDOsFAUj2hhtu6P744w+tc6uXSpEcNUcAjVrcWXPBGliAODyjfg1cPIleQQR+/PFHvwHajDPO6In2wIED3VtvveV3GK9gNkpKCAgBISAEqoyASHaVAQ6Tjw6qdB8/mG8uXKIku7nyVT5N13v4n8nyNe9J3JHP38Lmex715z6fH+tDo6eFN9fya8qNpt9U2Eo9S5pn0nBJ5GoqLZ5FsYy7J1yYTvTe5Mjnb8+byzU55DbdnhWLz59//unXX6PNZi32lVdemZsILjYthS9cN831f1E+QkAIZA8Bkewq17l1cl9++aW7+eab3cknn+xOOukkd+KJJ+bc8Dr67IQTTvDhQjcufOjHNWcYh3S5D8NZXvn8LJ0wnKVrrj0zNxon6h+VycKba+HNxd+uca0M5kbjheHD6zCuxdl9993d0ksv7Y4//niPSzS8hQvzNz/caFlMprjw5md5hHEtLXsWuuF1mAb+4TO7D9O18OZaGLs31/zj4toz3Gj40I9nVn5zw7h2HaZh16HL52peeuklx0AzqwdtxqeffuqOO+44x2d9rA3BZQfiG264wU2cONGbj4bPuP7ggw98G0OYX375xcdFM3b++ee7Z5991v3nP//x3+Il7aeeesqvAR07dqz/NBCYE49djTk7dOjg3XnnnddfL7PMMu6MM85w3377rXvkkUf84J/0ojJw//vvv/v27vLLL3efffZZLHkkP04sSSCdlg71zjV+FiZ0LayFs3i4U6dOdZdccol78MEHc+nZ8/B9mjJlig/33nvveW/SvOeee9y4ceM8xshEnpYXLmdUDrC94447/GeWoliQMFidffbZrmvXrtPhCb7gai7Xq666qrv77rvdr7/+6utpzJgxjolAsLQykP9jjz3mhg8f7sOFZWqOa+QAh08++cRdeOGF07WbYfth//doG2H+4X8+n5+1I2G6Fi9MN7y250njWvi4NHhm6ZiMoWtxzQ3TCMNFr6080fBhOiNHjnRrrLGG3wSNNdomi7nENdksnrmWn91bHHPteTR/8w/j5fOzvK0s5kbDh3lYuhY26kbjWvi4NPAjvsWJuhbX3DANu+bZBRdc4F5//XX/TjfH/0d5CAEhkC0ERLKrXN8MSjD12nbbbd1MM83kMAHjtOtCroWvpFsoz3zPKymDpZUvr3z+Fq8SLpvLtGzZsug6MdkqIUM0DUu7WDeaTiXuayXDoosu6i666CJPLKr896zL5CExH330kRs2bJh7/vnnpyN6TNah2WJwCBkjrBGfV155xZO9Rx991G+SBNnE7/vvv/fk+PHHH/fEsl+/fu7OO+/MkfCnn37at08ffvihJ7w///yzxx8i9dNPP7kXX3zRbbLJJo6BP/fkh3zU0U033eRlCOXgml2Qr732Wk/EPv744xxJBHCeU4alllrKzTLLLP7zRCussIJ74okncho7yrnpppv65xaGzxjNNddc/jvCkGPksLKTJifk+ZxzzvGE2fxwLaxVOJMJyM6kBc+mTZvmttxyS8f6V/Kzc8SIEV4myC6fVkIGTj6rdPvtt3scINE2MRTmRbqkz67QTLCyqRUTH3ZSf5zcf/fdd+6ss85yDz/8sL/H/5hjjnH33nuvx5IwfN4Jgs0EwqGHHurDWXmay6VMDz30kJtnnnly7WahtqbYdsTCF0q3lOeWdlK3lDySxikkw7/+9S/fP9FPJU2z2HCFZMj3vNh8koTPl1c+/yRpFgpD2nwujfaId1uHEBACQqCSCIhkVxLNmLQYZKG9prHv0qWLO/zww92xxx6b+ETjRHjc8DS/aFrFho/Gb+q+2LSLDd9U3vas2DTzhcc/fGbpF+OG8S290C+aVvgsSfho/Kbui0272PBN5W3Pik0zDE8aaOd23HFHx+BypZVW8gQxawMftKFHH320J3kMANEm77DDDm6jjTby5K5169Z+gm7mmWf2YSB8kNHx48e7vn37Op7zzM4NNtjA3Xfffe6II45wHTt29FpVtKtoX2mXaJ8ghhBBM0uFDF511VU+nznmmMPXyeeff+41qqbdRdP7wgsveFJP3PXWWy9HQJEJkooMlAGZmGREYwThP/LIIz1JhNiipeV85pln3IILLujlIm1I9nbbbec17DyHtOOahhmX9CDGRojJN8TH5MCPzyKxoRTklfJBjNlM6rDDDvNEds8993S77LKLe/vttx2TDEwwkDbkGnwoN3kiA/ihoYekM0GBxtFkIC+ue/Xq5e666y6P72mnneY6derkZbNwuIS1k/tll13WE3cINTLwHpAOFghvvPGG23777b1c999/vxs6dKhDi26adSP3MV1Qxbz4L5If/02I3xZbbOH7Jv631gaYa364pZ7WJlia5uZLu9jwSeRKkqaFCdMzP9zwzCd7GDffdbFpFhs+X75x/sWmXWz4uDyjfknStDBhXPPj/8V6d+tvUIZkrb+pWOOghISAEIhFQCQ7FpbKeWK+yCAZs+QrrrjCD9isIU/iEqbSJ6VLknc0XKXlqBcZrFzR8ha6t3iVdAvlme95JWWwtPLllc/f4pXjYu4MuVpiiSXc1VdfnXtPyTMrB/ih/TVNNvd2fP31154Ao8kOv5lLGEigaUaNqGHWzbd3GViigYQgoo2GlF966aWeBBIWcg+BQgsO8TOCaiQZEggJxtQSAkh48oJ0kjdxIXp24H/dddflNOL48xztNsszINhGDInPecstt7hTTjnFp/3VV195Uvnmm2/+I5zlgYtZPeV77bXXfDhIMksOMP0mTbTwEGLSMRnAhAE2JJlJTwj2rbfe6rXEvHdshgiRhEBTLg6TERdyS1t+2WWXeYuCCRMm+OdggiYabAlDWCYxIPdovQ1n3FdffdVhDo5WGtIPpmAGJu+++6476qij3ODBg72MTIaceuqpfn0u9WKTF1yzZheZIfTkV82D9MGZfJdffnn/vkXrkDDR0/Ar1o2mU4n7epDBylEPshQrg4W3MlTStbSTupXI+/3333cDBgzw/yEmC0lThxAQAkKgUgiIZFcKyTzpMGCCNKClYLDFoESHEBAC8QhALtEoYsJnk1LxIdPry0APHDAJZt00pBgiBsGmPWEtLGuHWeuMmTFkmzCYh2N2jfabc+655/bf3MWEmjhoc20N8GqrreYJIYQUrNGUYy4OAQV/SDDa0z322MMTViY/MDFnTTbp7bvvvn7icNSoUV7rjCk6RBLijfxxJBtZIelo0c3snFq0wTJto5E202RDdCk3ZBXizSQBJNXiUPYHHnjAa6SR18zFWduMSTkEFdL7xRdf+DjEHz16tNtpp51yJBszdUguWnZMtplMaNeunV/HjhzkB9m2OgAncIMI9+/f3+dBGJ6DEaTeJkCMZGMuzqQRuFMvmFtjmo75O9ft27f35vjICY6Yqe+zzz4ee0zzqRMILkQeTfaBBx7o8wNnJlcMt2r+K8Ac6wVINhp2MMFPhxBoVARoZ3feeeecybjGZ41ak5JbCNQnAiLZVa4XkewqA6zkU4WASPb/NL5oZHfddVdPttBCYyrctm1bT8ggypyQtZVXXtlrhyGPaInZEA2CjLkzZBZtNdY0aFYhfkZOuYdYMqiECB5yyCGeZKOJxUSc9CHqrEOGAHLfuXNnT5IhlKTF+mDWP0NOyQPzayYFzKw6qsmGLLKuGyIPOeTAhciikeaEUEPe8EOjDAG18uJiEYT5NbJTBuKgpUabzAnZh8hDdFl3DbEFD8JRTvJGW475/G233eZdtMlovMGYSQQwIxwTGQsvvLDXIiM7a9nZoIwTEs5GcOedd56XhzyYiOAejbwdIcnGBP/000/3eT355JPejBoZIO1MwKIZh2QzuYRmmkkWNPJgeuaZZ3pcqC9M2Kkv6qE5j5BkM1kgkt2c6CuvaiAgkl0NVJWmEBAChoBItiFRJVcku0rAKtlUIpB1kg2RgRCy6RUaZrTTENHJkyd7gsY6ZAguGmM0sJAvdiBHM3zxxRf7HaoxH15yySXdQgst5NfuQuggt5iCo02mTWJnXUgx8aIkGzNlzJkhd2h8IatoUXEhiXEkG2INQYdkkj4yR0k2xB/NN+FM0wtBXmeddTyBh9CyrhxCC9nEAojykpadprWFjEOI2TwN8k+Z2TBvzjnn9GssmZDgHhw4CYdZOASaNeqUw0g2G4rtv//+3pweLTcknrKDK3KSJ+8l2mPWpjOpABakQ5mQA001BB8TcCZI7EBOcMA0HfKNxQCysnEakxhoza2+2OUdbT1EmkkETNoh2eCNP0QebJk42G233fzkAn5YNIBPtQ+R7GojrPSbGwGR7OZGXPkJgWwhIJJd5foWya4ywEo+VQhknWRD6lhvjblzuCYbU2RIIeQQAkq7AqmGvEECIWWQZj7VxY7ibOJjJBcyDmGDnLHucN111/XrmCFvEKcoyUZzbcQVc2Y27eK+e/funpzHkWxeQgg8BBqTYkgfeaFdZtKAA80zBBaCClEND+TANHyrGVKgEQAAIABJREFUrbbyml002ZD9JJsRQUrJmw3C+NwR5JW47PhNnqQdHhBjTMiNZDP5gJxsggRZJh6m2myKhvk5+FIGyDikmfQw2wZzW4cNSYdgY55OnhyEQ0tNfVIXEGImSygTBJ36pc4wc8efE4sEysMkChMtkGywIm02zqQemDyhXrjmW8qY9KNFj5YzLHMlrknfzMWlya4Eokqj1giIZNe6BpS/EEg3AiLZVa5fkewqA6zkU4VA1kk2RAaShTY3JNlG2NCaovHETBvyhiaaA8KH1rtPnz5+0y427oKUkQYke++99/brtVlzjFaUeJB1CCQuWlqIGmbShIXYQSwhrawBhlxhxsyu3BBAyCUbqZGeEWZkhIBDJp977rncJ74gwBw8xwwarbp9sxs/TtJE08uO1RBTSDbm23Ebn1kcXCYfIKloqDEBh8AjExuFgRMkFs0yMlo8I9lMZIAnLibjkHzw2muvvbwmm89nHXzwwR4fI9lgRd1gKm8bo0Gat9lmG29FYJ9co7zUI9pw1m9TV6z9hBRTN3w3m8kLtOxo8DE9x3KBckDSQ5LNxAtpUVdcUx8QfsqOH2bbPK/2AX4i2dVGWek3JwIi2c2JtvISAtlDQCS7ynUukl1lgJV8qhDIOsmmMiEz4BCSbDTD7ISLRhTNJVpOPnuF5pMDks0zdto2DTUmz3yWC5LNRloQaEga6UMQIaMQRkjb7rvv7s3JSZM1y5A80oasslYYDTOmzuzCbbJA6ln/DIm19bmszYbsslYcU3NM1SGCdkDuyde0tOQH4UYjjyYZDTLmz5Bs7tGGIyvh7ETTDNklLzTPEGHWNCMXstju4pB7tP377befx4Zn5G8km3XYRlwpC5u5sXEZ8qA55qsQmMmDA3EwN+c51gSYxZM+BB8tONhsvPHGfmKBSQZkoR4oF+WFyFMXpA0pp56YwMDcH8JMOdCus44+JNkQfdKyAzKtNdmGhlwhUB4CItnl4afYQkAINI2ASHbT+JT9VCS7bAiVQIYQyDrJhkRBfCGzfAsZTSi7ZLODNoQX4od2FqLHN8XZ4AvtInEgpGhyIaCYjGM6zq7iPIc0co3GFpNuNNKQcjTLrO+FCKLBJV801JyEwyUOJ+QO0gzxJC3ILRpaTKR5RnhOwiIvfpyQe8iomVFTRkgn385mPTbm62uvvbaPa5MAaJ7Z+GuttdbyYQhnYSHfkF3KBzFFo2ua3HfeeceTbMgpB/6YeCMv69Ah2hBmSLKRbEg9ExJMNkB82XCOteAQcNN+Q+j5bjZEmvXqTHigeeeb33zvnTSxBMAcnm/yMrFB+uDKhmeQa1w2pyONxRZbzH9fe8011/SbuaHBx+ScncWjJJu8MWkHR+oD7TvYUUbwJi/eEcOgWs2FNNnVQlbp1goBkexaIa98hUA2EBDJrnI9i2RXGWAlnyoEsk6y0Vqi1YSIQV7BA00ypsaYIkN0OHB5BqlDU8umWxAwiBgkmPXEkFe0rGiF0ZxCzPDjRMtMeqxLhpiiiSbeBhtsMB2pNXIbElzkgWBC7NCgQwyNMIfh7Zr82CEdsljtA0yQDXP1fAfm8pQbwg2RZt3zoEGDvLYfwm0YW3zumeyA0GMmj4aaCQomOcAuDE/9MRFhO5wzmQABp+xMPKCVx1yeyQnIP+GpGyYOSA/CTB5MNlB3kHM04OxsDo6Gqbn4bb755tN9NszkrrRLOWUuXmlUlV4tEaC90Ce8alkDylsIpBsBkewq12/aSTYDr3CQWWU4U5G8YRa6qShYBQrBoCfL38nmnUAjGXdG/2cW1tbkhu8TfhBI0gnD4ccZF4dwFs/CRd1oPKqcPKLhwnvicJJ+tQ8ra6G8eB6elKEpGS0s8nNt9cN19Ig+t7jmRuNa3lF/S8fwCzENr3lOXMJX8yB9kexqIqy0mxsBkezmRlz5CYFsISCSXeX6TjPJZk0iJpZoX9DuRA8GZWi60HjZukIGg8Sjc2OgmO8gHBsgYXKJ+Sth0QZxT/xyB5Skj0kqZrZNyZFPvlL8kZm1ruwijBktGizMXtG6oW1EpmIPcKUMmMyWi0mxeVcjfNZJdjUwVZpCoBII0L7UmmRbG2duJcpVD2k0Z3ksr0JuFBcLb/7Re/NvJFcku5FqS7IKgcZDQCS7ynWWVpJNB8vay549e/r1lKxTjJJEM51kIyXboImNhzDPZI2krdGMqwLMJVm/yGZEEFLisY6SjZEg2mhvyjlIjwkC1nVCUKt9gBekno2QWAOL+SfY9e7d26/1xLyUdavFEH7SZJMlNk8Ck2LiVru8paYvkl0qcoonBKqLAO1NrUg2bRtr3lmDjqk+O92zTIF2r5EnGOnHmIRmopXlA9U+mPRmUhz82M8hzqW/5bN+HPThLIlg7wb6Y/Z6YPKbPQK4pz5s5/5yZbeJb/oA5GyOQyS7OVBWHkIguwiIZFe57tNKsukE2Uxp6623dmzeAwFmLaEdDMgIY5+use/LsuYR0s0OxNHOmTh2MqhiMyLWf0I+IcWsieTzQgz0eG5hcYs5CP/555/7T/ywdpUJgGgaSdIOw0TjR+VhMMWaWTZ4YvMqdj1mXSjfLmaDJ/wPP/xwv7NyNG6YT/gMf9LEvBrXrAXCMI12nYRkGx6NVjbJKwQaGQH+d7Ug2fQTbPLGjvS0nZtuuqmfpKTvYVd8+h42okO+RjuwbGIjQ3aYB9tqHxBkvk7QsWNH/0k/PicXnnwVgM3/+HQeBxMbo0aN8nizTwT7BNCn88m69ddf32/yR5joBHsp5WD8AGknfSYemqM+RbJLqSnFEQJCICkCItlJkSoxXBpJNp0fmwZtsskmfiffo48+2pNtzJatY4QE02Fut912rlevXv67vnyCh92L2aWXDZbosKdMmeLNnfnuLM/ZKAhNBZpxNmKCPNKJQ9j5NA87IKMJJxzflEWbwXPy44BokhaaAZMFF5LO7DtpokFHjgEDBviBAp/voZ4IhwadsmHKDRFmt2ZIvn0WiTwIwyCEDaoYECAvGyOFYaKvC3GYXGDDInYutnWUuGzExC7EDB7ZwMoO4oBPKAv5Wj7IzABotdVW8zs9o5lvyjrA0q1ntymSbfVDfWByr0MICIHmQ4D/X3OTbNo6Ps/GJ+SYYGVSEhloB9nkj80BaVOZ8I1aJCFv9AzRij4rdB/GtetoHPM3N/rc7u15UyTbwpprcQq5TYWHZB944IG+78Oqin40POlb6YdtUhyM2RQQfNmEj74L6zI+Z8dGfizhogzkyWF5mxsnqz0LXcKxDAzLMjZyjG4oGJdOJfxEsiuBotIQAkIgHwIi2fmQqZB/Gkk2hBZiyUw2pJB1xaussorf1ddmtJmVvuiii/z3chdddFE3ePBgv0sunyHq1q2bW2aZZfygCRKNedqQIUP8Lp8MpCDSEFhIOPeYpUMeIdnspGth2JEXbQYkn0EXckGmGUSMHj06N7uOTEwA8IkcOnHWeLMr8worrOCWWmopnx/EnDwg4qS3/fbb+x1/mSQ45JBDvGk5zyHFDDYIw27AEHXkQJuMnKE2P3yFIMxjx451ffv29d/JRSYbZCA3xJFJAyYB8KccTFIcddRR08mC1pvBDQNKsEdO8O3Tp4//tA9ruxv5iCPZ4AF+DPCwZqBOmJTQIQSEQPMhwP+wOUm25de/f39v7QPxsv7FSg3Bo03YbLPNfB9AHE7aT/tsGp+rYyKVvsbaR9pcvldOG0vfQdvNpCqEnnxoX/keOzu7Y01FWqRpB3mQFhp2+hT6KvoOM13nOSbX9I207eCGeTYnu/ozaUyYOJJNHwMZZtKUPpR+D9Ns+gbCgwGT0HxTnQla0rEDGZmUzTcJST9If8YZtSSzNHCZrMY0HEsv+nZ24KZ/YqKYSV0mhCHeyEFYTuRjEoS2mclpJqvD+kJO8qSvBS9wAz9kAg/qh68UYBnHOAH8qadqHiLZ1URXaQsBISCSXeV3IG0km46Sjp3ZZkzc+DwNnSRkk+/60skThs6V9cInnHCCf8baOUzF6ZT5tixEGtJEWpBsvhMLYWTtF4MStNMMcEKSzWAKrTgdPhpsBgGY2jHAGjdunDf7hggXItkQYeTA/BDTOa4ZEJlsDEDuu+8+LweEFmLLSadPOLTHmNQxyEFW5Ge2n88UQeDDQY+9XgycGFwgK3ky6OMeM0cGGODFadhRNszHyZfBFvng8m1iBj48RxYGhZjuMbghLchoIx9Rkk1d8Z6w7px3bO655/Yn34nWIQSEQPMhQNvUnCSb//4555zj20zIcNwEJjLRB9H+QUy5pw+A5GFKzv4X9CtYT9F+QFpZHoSGnO+WM/k7bNgw364y0cskLv0ChBsSyR4gaNEJBwk0rS0Ekolc0qc/4tvquPRRkG/ae9ps0qOfpG+k3WeCkL4PLTKEPEqykR+CzDfdCU+aTOJiNYb2mM/DEYelRuzrgUwQXA7i0i/wbXnw4j56GMmmH0FzbP2OucThBGu02vQtSy65pJ/Epc8Dy86dO7sePXr4CW76JPCkL6TfBQfCMOmM/Kz/BgvSp2+EWPOckz4TXBkjQNDpy+nfl112WZ8OY4G4Oo+WqZx7kexy0FNcISAECiEgkl0IoTKfp5Fk09Fj7s0MPwSRjvCMM87wG3lBVK2jZiDDBmcMFMz8jLXQtiabQQYDBEgq3+1lQMUAiQOyyMApSrLp9Jn9tsEOLjPn+KORIM1CJJsOHzkg5rYmG1knTZrktdPkS71hCodL57/DDjvkiKxpAhhwkj9lYP04Zndx67spD5hQNszUGZihnWHWnkHJiBEjvBXAp59+6gcjyIIMaMrJO5SFgSGyYElAOAZZpMGgygZbZb6yNY1uJBvtPINYtP/Ubfv27d0MM8zgWrRo4TbaaCO/4ZENDM0FY66bcu3dbMotlIblF+c2lXc03aZksGfROHH3cXLEhYuTzfJJ4iZJM4ksSfJSmH+aOtcaE+q2OUk2pAzTZCyQmEAk//CI4sEzCB0kFYLHvh+YPrPkhklTSCqEFSJKv8UkLv0YRBqNM5OoTN5hFQQBpO0lLAQSQnv88cd7As1EMhtVQhSZ5EQjTjiWDjFZDIE26ySsvbBeQhvNkiLaayZP6RPpM2jDycfWZHPPZmT0EWh7IZ/0qVzzTXTkoy9lzTJ9CH2f9ZmUnclbrLvo38AnekCywXSNNdbw1lhMGHPS1uLS3tKXkCaTuMjC5ASTB0x2Yj1Fv0W/iXaf/o6lWUxQ0I8xNgBvLAOoA/zp1+jPmRgHD0g134sHD3ABRzT1TFyAMWMBJqApZ7TOo+Up914ku1wEFV8ICIGmEBDJbgqdCjxLG8mGVEJO0cjSuULs6NwZMDADTaePHx08A5mkJBsyzaDHZq7zkWy0DpBp63zJB5K++uqr+wEMs/OlkGw6dLQHmI+zwYvNtuNC6rp27eqf0ykz8GCAw0AMrQcmgAyyGHyZXHGvDrIy+DJTQAZlmJ0z4GIgwyCF9wXtPoONpZde2msw4mTB3J1BUFpJ9pxzzum1JWiuIdacRrLZlZ1BHoNoOxm4cnLPM65xLZy5Fh7Xwod+Ft+eW7oW1txoHPMPXa7znZa+pWPh7N5cS8/KFIaLK5PFw7XnxLH4oZ+lHcaJ8+N5mK9dm2vPQze8xnKF/xYDdTapQpvFyTX/AXO5xh8332lhLb6lZXHj4od+Fj50TSZLI3STXFt8S5M4Jme++CYTrsW3OGE6xC90huHDtCwPSzdMx57hZ88tHdzQz+LhR3s100wzeY0j7X4ckYtr+0rxg1ij+R05cqQnt5YXLmuFkcXeQa7xQyY02xA6My8nPG0zE5M77LCDD2ckG8KIv03aQiIxhSZPLK9ozzFxZtkO7zHtPyR+vfXW8ybNkGBIJSd9AG05JJY4aLLRQBPPJpnpG9HuMjEKnvRXIcmm/6NfpSxmCo4MyMJkAEQY0oq8pu2mPyEM4ZmYZcLb+uAo7oRFk452GvJPXxee4AGhhzxzoM0mTSYTyBMLM7TU9E/IgbwQZZv8ZsLB8CAOS8NM2z18+HBPoG0yGZnBhf6byRssAMAEKzn6QavvaBkqeS+SXUk0lZYQEAJRBESyo4hU+D5NJJtOj06WmfLll1/em+Oh1cWkGdO8Tp06uQ033NCbjxO2WJKNltbMnfORbAZT4aYo5MMat1VXXdVrK0ol2WhNSBsyzcANbXt4MrHA7DplomPGHBHCAtlmdh6SjImhDaairxFy2mnPuEdjYObQaEHQRDAQQoblllsuVha0DQzUkCWtJBvNNRMnHTp0+AfJZs0eGx6F9cN1nF80TCXv4/KL8yuUZ744+fzD9KJhovdh2Kau88XL529pxT2P+jEop844MWXV2bgYYCbcqlWrZiHZaGvRPB933HHTLcOBnDEhiyk2E6AQXvoeJh55RruKCymE0EF+2eMD8oZGGjNkSDdpoDFG60ocDjSsEHEmFrCK4oBI8r7TP9D2E36JJZbw7zF9ITJyQlDZ54M+kDYckk2/gJYWeexgTED7zkQU6YUkmzDIwmQB+YMB2mGILxu8MYFM2oRBO0/fw1pwSDXh+EoFZbDyWJ7moslGa46ZNuSWsOGJdpplXtYPQ7LRRkOYwYG8mSBAGw3xZzIBU/gVV1zR1wcY2Al5n2+++fzkGvFIh7Yh3wQAfTcTPCLZVltyhYAQaHQERLKrXINpItl0/KwFY7DMoILOmrVddqJ1WGihhTwBZVBRDZINoY9qspkpZ6DFIINOn4EI2gMGCgw2kAXTbzp5Zsq5j5qLmyYbostAg7LaifaZk3iWHgMF0iAsZuaYNGLOB/nlWXgQB+0KRB2Nf3QARLqUiTQYUDKwYj0gBB6thsmBixy4JktaSTbm4phkstkOA+F55503R7YN5xAXw8Rc8LHT/KLh890Tz+JYGqFfvngWJ+oWm0aYfphvsemUEzeUwa5LTY82kME6ROeWW25JfBLe4phbKL7FsfBx96Rhz5OkFw1TKG743PIP87Tn5kbTt/vwuaVjroUp5FoaFi96b/HN3+6jrsVngq9169bNQrLRbEK4OGkTef84aD+Z7GVylfaXd4uJG2TjXWXikn6K9pQ2H80yaUB46ScoW0iyIZvWJhvJxgIrJNlsxGUkm7QhlUwwo8WlTwlP0kcTDMmGcKJVt/SRH9nR6tJPoa0PSTbhmERm6ZStKUd2ysJ6ZbTQxCEcxJX0mRCg30ODzQQBfVm+I25NNmlFT4tfiGSTF2b4WLYxyRFaq3ANaUZLTf9Lf8YmdNQj+YUH9yLZISK6FgJCIA0IiGRXuRbTRLLpBDGbwzQMcsdggZl4CCQuAx52HmUtFp1vHMlm9hutALP4DAwgpAxyMBdPoslmoETHb+Z9pMF6MgZTdOTkCRHnnoEOHTpkGyLOOrSQZDMoQxtNONbCMVtP2Vhrzj0dP/ExCZw4caJf38fABjnRHpAXYRjYkT7fGGUAxox/eBCGwY19hsbWF+LPiXyYKWJqyEAJM3C0H8iCtiWUhfV5yAL5Jl6UZJNeIx+8R2g+F198cW+WTxn5D2GSDz5ottu1a+dNNRu5nJJdCDQaArQtzbkmm3YUoobGGvPpaLsKfrTPtBmYZdOeE4bJVuJATCGgkF7aZ4grbWq5JJv+Cosn0qF9ssPac1zkMk025ujWLuNCotFkY5LORG1Ismn7mYyFPLN8iHYPzTvaczTIRsxJh7LSX0DC0dYz8c3GbkzE5juMZDNBQN9Z6ChEshkTkBam7PSNlJsD+eykf6SOaL+ZPEZue4YMbC5Kv0kYabIL1YieCwEh0EgIiGRXubbSQrLpFNkhnI1iMBVDy0CHap0lLsSXNWOLLbaYHxRBDjF/ZiMZNitjQIFZNiZjEE4GTpDupCQbrQEmc3TWfKYErTGz55ilsU4aDQYDDEzrunTp4gk1MrMRDRoAtBhGspGfuOw6y0Yv3KNNxvSNNXl09mid0UIwAcBsPfcMBFiHzeYs5Ik2hQEQ8SgTm7kwqIgeYEF4iD7aciYaKANacPAkLuViox7KwACNARWDRQZO5M1ABDmQx8KBAemxIQ7r4cJBX1SGRrgH35Bk2zvGZAyDUyYfqEsG3zqEgBBoPgRo45uTZJMfS2loa7Gaon2mbQz7HAgbbTRLayDZaKhZtkM/QRtJe0h7TPtOG4kVTKkkm3af9ok+HTPtcK01MjHpSlttG4LShkP+0VpDJglDH0lfSJnY3JI+KyTZtOG0b+SF9p7yIj9p0c7T/jNJy0F69AtokSHbrLGm/8E/32Ek23YXJ2zcafELkWzwpcyYqVMu7kmPdpvJaTBiYtgmw5nkME085aJOmehmYkEk21CXKwSEQFoQEMmuck2mhWTTeWJCxxo4Zp65jx50rnT6DHgg0gw60CrYxipogJn5Zodt0mG2HjNEtAzMhEc12Qw+8IfEMhiBWDEAwaSawQbr69BsQ5xtMxVkYEadDdJYG8fJp0fQaDDjbiQb2WzXWDp+BmqYByI/2nqINgMpXOKzczgDBcgeGnvCmPkhZYH4MiBhkIcM0QM/BnoMrDCrZxCI5ps1jpSDgQaTDsTngJRDoNH4M1AzWSDe5GODNqwJKCvpMTCj7HH5R+Wp1/s4kh3KCv6sGbSBZvhM10JACFQPAdqV5iTZlIR+hv6BzR9Z/8zGmuyNAZmk/UYjzH4ctNP0NbSb9BtsjshEJm014dkkDJPy3r17FyTZbPQVZy5O+4rVFnlg9sz3oyHQ9Bmc9HkspSJ/yD/EmDzZv4QJXdpz9vJAI01fxG7akO6QZGONhQaesqIBB2/6SPyYOMaEPGz76FNI79///rfvg7DKaqr9h2TThzC5TF9kywBCF7JMGwtRLkSyyQuiTB9KP4jlFRPbpMe6b/o6JguoR6yu6I+xNGNimxMSjgaea2Rngpw4TD5bn169N9p5Ys/kNpZTyE6ZdQgBISAEKoWASHalkMyTTlpINp0PgwLMlCHK+TpySCKmzwwwmKmGHKPtZaCEJpKZeUziWPtGx0oHjHYbczcGANbJ4UK48GcgQTw6fjp0iCVyMBhAW0F6Fo9q4Jq0MOlmkECnj/k6u8KSH7ITxuSg82fggh+DAdKnDBBrnrFbqpmGkz5hSMfCUDY0EAy+8uFCPJ6RDukRl8/GcDI4JE8IZBifgVooC3hRB6EspuHFGgCcjaTneR3r3rsQyTYcQ5zqvlASUAikAAH+c81NsoGN9g6yjLYTKxcmHLEIYnISQowGmzae9pc+h7YciyoslyC9hGFJEaQbDTL7PNCHQaogrbTx1p7Qn+Qj2RBqSDZhcTE/hwyjxWWSE3KI5Ra7fJv2mQlm0mMiFKsk1iVjJo689CO08VjnYAmFH6SbDc1YcoUFGMQVc3AmmJnsRV76QOvv6Bex8Fp44YW9Bj3ah0RfO/pF0mbZDaSdL4Jg+h6eaMzpN0kbF8yYHEBWJnHZIwPrKyzTwAJ/JhAoA3VC3TAxzD31RjqEY2IYaywmyikXYZmcZtKdCW7woC+E9ELGsUggTjUP+huR7GoirLSFQLYREMmucv2nhWRXGSYlLwQ8AklItqASAkKg+RGAKNWCZFNSSCUTpZgeY9nEBCiWP0zmRrW3EFxIMMQPwoqWmUlRJmsJz8QlhI4wmDSTLmXjgHwzsQuZhBxa3kzwMjkKCeYgPPnybW0mWbHuQrtuFkbIS15ojM8880wfl0lfSGQ0bTS2EGfy5mCilAlhyD9lJV1kRwbKDyE1eXHR+mIGj2m9kW+fUMwPExGkAX6s9WaSN3S5ZgKYZVykTb7gYVplyk98NO6Qazsg90xu2MQzLvIahoQjPSZMKBsTxpSPyWn87DmT8pSDumVCmXSreYhkVxNdpS0EhIBIdpXfAZHsKgOs5FOFgEh2qqpThUkRApCkWpFsYCR/Tohk6HIdPaJh7T7qWrphfAtTyM/iEt5k4pojJNns78F9NEw0/ei9yRHnEhZ/CPmxxx7rdz5PovW1tEyeqMtzk9PkwS88LI3Qz64trrnRuISz+PnC8NyeWbrVckWyq4Ws0hUCQgAERLKr/B6IZFcZYCWfKgREslNVnSpMihCA/NSSZDcSlJBE02SzH0gc2SynPGi92UcEgo0WG419qDUuJ+0sxRXJzlJtq6xCoPkREMmuMuYi2VUGWMmnCgGR7FRVpwqTIgREspNXppFs1mBXg2Rjzs33v1n/zCZs7C9SaSKfvLSNG1Iku3HrTpILgUZAQCS7yrUkkl1lgJV8qhAQyU5VdaowKUJAJLu4ymTNMuu/IcCVPtBas4kZ4wvMxCH1OopHQCS7eMwUQwgIgeQIiGQnx6qkkCLZJcGmSBlFQCQ7oxWvYtc9AiLZxVdRNbXLpG1n8ZIpBgiIZOs9EAJCoJoIiGRXE13n/Ewzn/bgUxnXX3+9ZpyrjLeSb2wERLIbu/4kfXoREMlOb91mtWQi2VmteZVbCDQPAiLZVcZZmuwqA6zkU4WASHaqqlOFSRECItkpqkwVxSMgkq0XQQgIgWoiIJJdTXSlya4yuko+bQiIZKetRlWetCAgkp2WmlQ5DAGRbENCrhAQAtVAQCS7GqgGaUqTHYChSyFQAAGR7AIA6bEQqBECItk1Al7ZVg0BkeyqQauEhYAQ0Heyq/8OTJs2zQ0ZMsR17tzZXXrppY4dR3///ffE52+//ebDRt0kaUTj2H2SuHFhLH7UjQsb9YvGsftouEL3Fi/qForH82ic6H2SNMIw0fh2H4bJd21ho26+8IX8o+nYfaF4PLewUTdJ3DBMNL7dh2GauiY8k1LbbrutW2KJJdy1116rz9JUv4lSDkIgEQIhye7Vq5f7888/9f9MhJwC1SsCItn1WjOSSwikAwFpsqtcj99++6077bTTXOvWrd1SSy3lhg4d6o444gh35JFHTufiF572PPSr1HW+tM3fXMsvem/+lXAtbXOjaZq/udHn1bi3vMy1POzeXPOvpJsvbfM31/KM3pt/JVzfFb+rAAAgAElEQVRL29xomuZvbvR5sfeHHXaYGzhwoPvXv/7lVlllFff6669rEF/l9knJC4GkCIhkJ0VK4RoFAUj2Tjvt5BZffHF35ZVXamPaRqk4ySkEGgQBkewqVxQDkylTpviGfK655nJt2rTxZ9u2bZ3O2mFAPcwyyyxuxhlndLPPPrvqok7ex3bt2rmuXbu6iRMnimBXuW1S8kKgGAToy9588003xxxzuC5durivvvrK/fDDD+7HH3/0LtdxJ8/tjAtv8S2MuXFphfEtnLnhszAuz8NnceGThAnTtOswnqVrfhYmdO2ZheVZ6Be9z/csX5ph/Oi1xbE07bnJYq6FC117Zm74LLzmOfcWzlzzC8OGfhbO3Ogzu7fnuOaHG3eGYfLFYyJ3k002cUsuuaS76aab1OcU0yAorBAQAgUREMkuCFH5ARicfP311+6OO+5wZ5xxhhs3bpwbO3asP7m2Ez+7ThomX7gwHbuOpm/+oVtqmLh4cX5hXlzHhYn6Re/j4sWFyReOsMcdd5xbc801XceOHd1uu+02nRxxaUX9ovdxeeEX5x+Ny33Uz+KamyRMXF4WP+pG84vex6UVJ0M0XtIwUXns/uKLL3avvfaaBjvlNztKQQhUFAH6MUzE1157bT852bdvX3fggQe6gw46qMnTwkRdi2f++e7NvxKu5WWupVno3sJV0rU8o67lkc/fnlfCjeZh95Z2oXsLVwnX8srnWh723O5Ldffff3+32Wab+XeZscA777yjfqeiLYYSEwJCQCS7md4BBih//fWXPxmo2HWca8+jblzYpH7RtOw+X3x7ns/NFy+Jf7FpFhu+kAys/b3//vt959qyZUvf0f78889+AGl55UvDnkfdfOGT+EfTsvt8ce15PjdfvCT+xaZZbPgkMvBf0SEEhED9IcB/88knn3TLL7+8m2+++VyHDh10VgGDeeaZx1tYzTrrrK59+/bCuAoY8+7yDq+66qrSYtdfUyOJhEAqEBDJTkU1qhDFIPD555871v9CsGeYYQa3wgoreNItclcMigorBIRAFhGgnfziiy/c1Vdf7caPH+/OPffcxOc555zjw+Zzi0mrUmFNlkqlV0o6JgMu54knnujWWGMNv3SGvqqUNEuNE8pCGnZfanrlxLO8zS0nrWhc3l3eYWmws9iKqcxCoHkQEMluHpyVS50ggOb14Ycfdq1atXItWrTwJJuNtgYMGOB++umnOpFSYggBISAE6hcBiDZnEssUhfmfBVtSHP744w93+eWXu6WXXtrNNttsjiU0ZmmVNA2FS465Jtfrt52phmTWdhXjxslRy/cmLu985ak32ePkSbOfSHaaa1dlmw4BGqEvv/zSHXLIITmCjSYbso02++6779aarOkQ040QEAJCQAg0JwL0UewTwqac9E2bb765e/XVV9U3NWclKK9UIoAi5fnnn3ePP/64e+yxx/xp1+aG/iyNwdKBT+9+88033oKHcSQb7X300Uful19+yeHExBabQXJybQdhP/nkk+nC2jPCkQ5yhcQZZdDUqVP9BoL4s3EfO+ETnjx5hjWRHYT/9NNP3bPPPpsrG9ekzaRdeCDfZ5995j8NHPqH17/++qt7++23mwyDLN9995374IMPpsuDz7RiLUo7FuIQpp+la5HsLNV2xstKY0MDyuAFU3EGMHZyv9122+UatYxDpeILASEgBIRADRC46qqrvBbb+ii+fnHppZfGDtJrIJ6yFAJVRQBSCcljA9QHH3zQPfDAA7mTe8jwe++9Nx2xSyrQu+++64YMGeI22GADf7J5o12bu/7667uePXv6Hec33nhjv3ktpPTOO+/MfeYN2c466yz31FNP+b18yB/ye8MNN/jTyDfknF3rDzjgAP/FFIgvn/WFfFJOwrE05IUXXvDlwY/TlEHsfg9pheyffvrpnuxDasmbT87xtQfywNLltttuc4MGDfLlWW+99VyfPn38Rstsumzp4l533XXuwgsv9KQ89A+vP/zwQ7fXXnu5l156KSdr+JxriD95nnLKKblxM/7vv/++b6/Y6BnZLV5YR0wqUGarW+qViQPChwdxwd7eg//3//6f/1oTkwqNcohkN0pNSc6yEaCxYWdSzMPZTGbllVd2bDCDFpsBTY8ePdxdd93lG4WyM1MCQkAICAEhIASKQIDB9Z577un7KKyszNJq0003dQy4dQiBtCNgxOr44493G264of+aAZ/17N69u+vXr5/bfvvt3bXXXlu1SSeUMZC/I4880pNX5EEbDWm84oorPPyQWkj3mWee6UkgYSDM119/vT95jt8rr7zijj76aP+ZOD57uM0227gXX3zRf22IZYs333yz23nnnd3ZZ5/tbr/9dk8gIeCQ6pNPPtkTaCYceMZEG2lyQFKxvORrRaYxxjXNNbIg60UXXeSefvppv+cQ8nJSLkg/eUNgSR9LmXvvvdc/JwzjYCYjdtxxR19ui0sYPkn8/fffOwgvO/sPGzbMhyEftP34k8eECRNy6VFmSDnyo+UGS75PzyQHdcrEBjg999xzjo2JOSDStHnsx2DhNtpoI5/fM8888w9C7iPV4Y9Idh1WikSqDgKY0wwcONCvv+YPzQ7j/MGZGd166629P42SNWTVkUKpCgEhIASEgBCYHgEG19dcc43XYpuFFS4TwKzNvuyyy/xAXv3T9LjpLn0I8I7zf4BoYSZ9/vnnOyw8IMD4QWJffvllryVGU3zPPfd47TbPiEsciPKNN97ozcPRIKOdRVNKGm+88Ya79dZb/XPCkAbaUsgjYQqRbPKYNm2aJ5KEJc0oySYtJgr4VNwFF1zgdtllF79U8b777nOPPPKIn0CANHbr1s2heV5ttdXcyJEjfVqU99BDD/Xy0SZAZo866qjp5EVuSD2EFc36o48+6vdyQNONtpx9HWgz2NMBIs++Q5zkg0KJJSngAundZ599HLJstdVWPgzjYa45ubbx8eDBg/1mgW+99ZbbfffdfRzSZDIEQs6YmgkDwlkcLARYoonWncmKiRMnuiOOOMLnjRYe7PBHU3/44YfnzOLBd+jQoT496ptwTAgw2bDrrrt6c/ZGePNFshuhliRjVRBgxo2GhT+vBi5VgViJCgEhIASEQAIE0Crtvfferk2bNt66apFFFnGdO3f2O4zPMcccbsstt3STJ09WX5UASwVJDwL8LzBvRnvNAdHCTBsSynfO+/fv7zDrPvXUU70JNBpdSCoabwggWlU0oRBOyByEbcSIET6uEcgtttjC8a10iGASko0cjBvRADOORCY0tZMmTfIaYgi3fcWGT8TZCZmGbLOr/WmnneZNqzEXZ5045YOUkz8m3dtuu60nqpRtxRVXzBFe/NGI24nlC4QbLTYuJuvIhcKICQDIKs9Il4O0If0onRj3on0++OCDvfbcwjBZgUxgycGEB+bcaOYpN2mCN2b7HGi30byfcMIJXrvPJAcH6TMZwgQJ2JLmqFGj/ObDpBMe5EUdMUkA+abOjzvuuJwG3MIyeQFRZ4KgEcbtItlWc3Izh4BIduaqXAUWAkJACNQlAhBoBv/77ruvNwVFW8MAGs0NGh4GwvrcVF1WnYSqIgJRkg1RxlQaUsoSQEynWZ9sRBGTZsgZFoqQNTTHq6++uiedRrIhhJgcQ44hexBi9uQphmRTZEienaSB1hltrhHIJ554wmug0RpzYkHJ5ADhINmQVIgpZtL4QbKJC8nlRL6HHnrIy3beeed5rTTkmRMNNRp42xCNeJBYNMkQYIg05WGci+k4xBiynI9kYw2A7GyMBm6jR4/2pJ3ygfHYsWP9+nSeQbhZi21p0nahhT/ppJN8OQxH8oMM04Zh+s0kAHJBpO0w/AjLSbkh0rSDaOopF2HCw+KEfvV6LZJdrzUjuaqOgEh21SFWBkJACAgBIZAQAbRhaNo42D+EzYfYrEmHEMgqAlGSbThA9tCSYhaNOTKkjHXOkE/8IIscaGz32GMPT8RDkg0hNQJHWDTfRg4LmYubDOZC+ojLOmTWJhsphGRjVr322mu7tdZay6ExRxY02UyiocXGQgXyTTi0vJBMI5G0B5Bb4qPBJgwncdmnAS0+650tP9oOJh/wHzdunNdEU36+EY9ZOWQ5jmQzicfEBRgyKYFGG3N6TN3RylMHhi9EmDaJyQLkx2oAQs7abDTobGhmOCAPkwTUCfigqYZwMyHBwfprrBLQTEO+OdnVnOcs7aQewKORD5HsRq49yV4WAiLZZcGnyEJACAgBIVAlBESyqwSskm0oBKIk28g1xJG1vaxXxuwbM2zWVbNRFiSWz0txsD4ZEo6mOCTZtskWpJHPYSUh2ZB3CC3EEzKIRpcDUspmYcgEATXSywZmEEtIJCfadbTMEF3WO6Pd7t27t1/DzP+dDcaQhwMXM2zSNC0zZScvTKsxwWbjNcy9w4M82LSMZ7bGHKILJmiQ40j2scce61hnDUaQesg967wh68TBTBzCzafIjGRDuiH7rJtmzTdWN6RhxBryTTzqJMwbLTzm6xxo6iHzrDdnXTibEGNyT50zmXDLLbfkJkLCMtokROhXr9ci2fVaM5Kr6giIZFcdYmUgBISAEBACJSAgkl0CaIqSOgSiJNs0sxA8SC+EExKJNhWXtbyYR9unq9CKstcBpNRI9pgxY9xhhx3m1xFDejF1ZvOuQprsSy65JKexJg9IJKQTc2k0uxBPtOumfYVk448pOie7ekNKIZ7ICrlHG8w9WnhINAckEoJMfmjGKQOm02h2KRcuJu9o443QE8/WhWMBg+k2mmVkodzIRTpoutEY25psXDToTBhQjv3228+bgZMPExeY30OY2ZgMzTPlDddkkz+TAZizQ7I5INrkZ59hg2Rj1o5mH7kok2Fk5WUyBKLOrueUnfwoI2mFZWSSAVzR4DfCIZLdCLUkGauCgEh2VWBVokJACAgBIVAmAiLZZQKo6KlAIEqy0RSjpUXjCelDuwoZwwwbLS6fu2KdMwQUQvbYY495c2tMliGbaKEh2Whm0eCyfpu9EMaPH+8JOybkUXNxCCDEFI05afOdatYaQ4rRaCMP/1dO1kTzrWiIIeQZgo9GmBPNNUQbMgrJhEBCstFgY26NPySWZ5hvQ7IJQznYjwEZMQOHgLJDuZm7U9FGPkkPbTUa41CjTxhkimqyKQdxwJm80CpDrNEy8x1s8IS0G6FHvrg12SHJJh9O5EPDjxYfko1ZPpYG1JdNaJAe9YiZOib1TCZQR5B08GQjN3AmHGVEq09d4zbCIZLdCLUkGauCgEh2VWBVokJACAgBIVAmAiLZZQKo6KlAIEqyIWpopTETZy0zpJdNz/iEFGQVLStElP8PO4uj4eYzUmhwWZMMUUOjaqbPIUgQQ56zARhxIXv4YTIN+UTTinkzpuiYaaN1ZT0zpButMZptvl0NOUYONO2sQYYoovlm/THm2Gh+IdKkD8GHNPbq1cvHhdxCztH4YlYNAWXygAkBNM6UlzJBuNGEIx8EFC00clBOZCMvWwtNGQnHCclG248Gm7xIx7T8PEdLbNp40oVwU0bTKOPHRAeTBZzDhw/3Gny0+EwSWD64lA8TdAg/WnT8kBO5wJeT+GCLZQEWBeBIHRihZkkAJ+GOOeYYfw2mZqkQ1l89Xotk12OtSKZmQUAku1lgViZCQAgIASFQJAIi2UUCpuCpRAByB3k1U2RIHppiyCRkGtLIZluYX5t2FO0ya6F5zrpeTLbRlBpphuyFB/doatEmQ9h32mknrwWG6PEM0oo5N7uBQ45x2dyL3cDJB0JNOJ5BEiHayIcGF0LPztqQa0g6efAMQglhJj6aabTrmJRTDggnG5VBgCGikHW05ZQFcox2HkLNCfGG7LNzNzIxKcGByTXm2kwm8F1wsAAHtNKQfiYKkJX4uGisIbusXw9PPnPbp08f74cskGbKA04QX9IlHvfUEZMglI+8aMOwGEAjDqEHI04IMvVGXDupH8zdec6BS11jWm5hwJV6sHrxAev8RyS7zitI4lUPAZHs6mGrlIWAEBACQqB0BESyS8dOMbOJACQX82fGdpA9iBoEEg0on+yCnMUdhIOgQ2QhvKxBNrIaDU9YiC4m5ZBN8gwPTKQhm2iDIfuQWcydIduYnGPmjLYY7S7k+cMPP/RpQEIhusRDfogoptPECTdTs7wwYccUG60wxBMiDflHvvDgHvNutNWUDRNyJimQE5cJCgg52nI2WSMMJ8TWru0eU3g022ilmZQgHgeygDOTEVxDmCHE4Amht+9mh3Jl5VokOys1rXL+AwGR7H9AIg8hIASEgBCoAwREsuugEiRCQyGA5hPyB6m2b1NjaoyWt5B5MWSU+JBm3ChZDYHgmZ2hv13bM0sjvCdtO80/Lh7PwnAWxtzo82haFg43X1iLYy75Uf58ZyiPxbF8wntLJwxv4bLmimRnrcZV3hwCItk5KHQhBISAEBACdYSASHYdVYZEaRgEMC/HxBjNLebTrK8uRLAbpnAStOEQEMluuCqTwJVCQCS7UkgqHSEgBISAEKgkAiLZlURTaWUFAdOohlpU/HQIgVogIJJdC9SVZ10gIJJdF9UgIYSAEBACQiCCgEh2BBDdCgEhIAQaDAGR7AarMIlbOQREsiuHpVISAkJACAiByiEgkl05LJWSEBACQqAWCIhk1wJ15VkXCIhk10U1SAghIASEgBCIICCSHQFEt0JACAiBBkNAJLvBKkziVg4BkezKYamUhIAQEAJCoHIIiGRXDkulJASEgBCoBQIi2bVAXXnWBQIi2XVRDRJCCAgBISAEIgiIZEcA0a0QEAJCoMEQEMlusAqTuJVDQCS7clgqJSEgBISAEKgcAiLZlcNSKQkBISAEaoGASHYtUFeedYGASHZdVIOEEAJCQAgIgQgCItkRQHQrBISAEGgwBESyG6zCJG7lEBDJrhyWSkkICAEhIAQqh4BIduWwVEpCQAgIgVogIJJdC9SVZ10gIJJdF9UgIYSAEBACQiCCgEh2BBDdCgEhIAQaDAGR7AarMIlbOQREsiuHpVISAkJACAiByiEgkl05LJWSEBACQqAWCIhk1wJ15VkXCIhk10U1SAghIASEQCoQ+O9//+uiJwXDL3qYXzS83TdFsgvFtTTMzSdDVCbdC4FqIVCpdzZJOpTBwoXlMT/cJGeYjsWN82sqrTB8pWQpNp0kMliYpspizyxsKEfoZ+Hi3DBcGJ+w9iwuXtTPwoauT+DvnyTpJY0bplvstUh2sYgpfGoQEMlOTVWqIEJACAiBZkUgHPT99ddfjvPPP/8s+YymccABB7g999zTvf3227FpFpOfhbU8QtmbFTRllikEeM/s3eO/EV6X81+Jxq2XdO3/FZUv330xchcbtpjwyFds+HxlivrXS7rIUYwsYViujbQX+wcWyS4WMYVPDQIi2ampShVECAgBIVBxBIyMMnD8/fff3a+//up++ukn98MPP3jy+/TTT7t77rnHXXPNNW78+PHuhBNOcEcffXTuPOqooxwnfuG13VtYC2P+3K+yyiquR48ebp999pkuvTCOxQvTjvMjzpgxY9y5557rrr76anfXXXe5p556yk2ZMsV98cUXvkyUjTJSVit3xQFVgplAgPeHd+m5555zp59+ujvmmGNy/4PwHbd3OeoXfZ/tnbZwFi9fuNA/aZxCaRaTTrHyRtMOZQmvLd2wfOF1NJ3wWb7rpuIUyjsubrXiWF6UI8wjvLZnpZS1qThjx471beVvv/1W9P9XJLtoyBQhDQgwkGCgseGGG/rOoNRZqjRgoTIIASEgBITA9AjQR/z888/u22+/da+//ronp8OGDXPrrruum2uuuVyrVq38OdNMM7mZZ57ZtW7d2s0666xuttlmS3TOPvvsPlw+l3SKSa9QvqQ1yyyzeFmR2eRv166dW3PNNd1BBx3kLr/8cvfaa6+5b775xpf9jz/+mB4U3QmBBAhAsCdMmOAWW2wx/75V8j3O93/J51/of1HK83x5FfIvJa9CcQrlGX1eKL1ynkfzKnRfTl6F4hbKO/q8qfRo22knb7zxxgRv//RBRLKnx0N3GUHgP//5j7v22mvd2muv7T777LOSTUEyApeKKQSEgBBINQJMtEKs0VSj3X3ooYfcYYcd5rp16+bmmGMOT4gZaHXo0MHNP//8bsUVV3RrrbWW23LLLd2QIUMca6iPPfZYd+qpp+bO0047zXHiF3XDcEmuiX/KKaf4dCzdJGlamJEjR7qhQ4e6nXfe2fXv39+ts846vmwLLLCAm2eeedycc87pGHhyLrvssr48YPD555+7H3/80UG4NRmd6r9AxQr36quvul69evl3aZdddnEnnnhi7j/Bu857bC7Xdppf9P+QL7zFa8otNs184c2/qbwKPbM0cMOTePYsTMP8omHzhQ/j5ru2NC0NS9vuQzdMw+KFrl2H4Uq5LleGUI7wuhhZwngmj/ntvvvuvv1feumli/6PiGQXDZkiNDoCDBQYRGEe0r17d/fggw9q8NDolSr5hYAQEAIlIgC5/u6779zLL7/szVuZfIVQt2nTxhNq+omBAwd6c/A777zTffzxx9OZVdOnNOJJuekL77vvPj/IHzx4sFtppZUcxLtt27aeJK2++urupJNOci+88ILXcEu7XeJLlpFo/A8mTZrkICRbb721e/fdd/1a2Eb8f0jmxmzXKl1vtJMs3WnZsmXR/2KR7KIhU4RGR4A/4Jtvvum1EB07dvQDCPx0CAEhIASEQHYQYEOb77//3j3zzDNea7344ot7rfWCCy7o10RjHo42lzXYDLRsA5y09ReUxzb6QWv95JNPuuHDh7t///vfDiwg3AsvvLBjMzbWcmNODh5pwyE7b371Sso7cdVVV7nOnTu7nXbayb3//vt6T6oHt1JuBgRoG2kLRbKbAWxl0fgIsF7o/vvv9+vqWEuHhoKBhQ4hIASEgBDIBgKst37rrbfcGWec4ZZffnmvtYVko81lKREaXg4jkuamHR0rJy6m4jfddJPbbbfdXNeuXf0EBC4bvL3yyivetN7Cpx0XlS8ZArwPItnJsFKoxkBAJLsx6klS1gECdACffPKJn5HHHBCSveqqq7qbb77Zz+TXgYgSQQgIASEgBKqEAH0AmlhMWtdbbz3Xvn17v0ET66r54gRrsk1jXSURGiZZsOJEa/3YY4851tdiBswmQaxHh0x9+umn/nnDFEqCVhUB3heR7KpCrMSbGQGR7GYGXNk1JgI0/pj9XXnllX4t9nbbbeeWWGIJN2jQILfVVlu5yZMna7DQmFUrqYWAEBACBRFgPfFHH33kxo0b581Z55tvPrfFFlv4T3B99dVXBeNnPcAvv/zibr31VrfZZpv5ddtsAIdZuX3LO+v4qPz/s/wQydabkCYERLIrVJs2ays3XZsd8AfBHJxvNp533nl+Y5dRo0Z5k/F+/fr5NWYbb7yxJ9uYkbOGCJNy02bofWjM96FCzYKSEQJCoMERoA3nO9AvvfSSO/jgg/364i5durgRI0a4qVOnyoopYf2CI/0iExWY2bPDOp9n2mOPPdyLL77o+82ESSlYShHgHRHJTmnlZrRYItkVqHhmuDEjZp3R008/7R5//HFvHoWJFNfhPX5xp4WLhjV/i2PPo26+5/hbGhYnzs/CWDrmmn8Y1+JbmNC18KFfGL5QOvnih2lY2hY2TDPOLy5uU2mwA+wjjzziifRtt93myTXfN+WzEmzrT0eAaeBGG23kBwbPP/+823bbbb3p+P777+9NCe+55x6/6c2jjz6aq+98ssXJF5bJnlv8UHZ7Zn7hvaVhrj0L70O/JP6EiQsX5m/X0bCF4kWf50vHZLbndh+Nb/nH+YdxuWaH3Icfftg9++yzfq0lGxrROOoQAkIg2wjwyUY27KKN5xvXvXv39t+E5hvYOkpDgD4Uk3uw5Pvbm2++uZ/IxrRcR3YREMnObt2nteQi2SXWLI0BG3tAxq644gp3xBFHuAEDBri+ffs6CJnOxsWAb5nyGRZ2BGQQgDn4IYcc4om17YpqJJsJFv5EaLDPOecct+OOOzo03MTt06eP/56o3oX6fxfYzXTllVf2Eyc77LCD/57sDTfc4D/LgxaL/7sOISAEsoUA7f0bb7zhaBP4FvSmm27qmECl3VebUN67QL+J9ReWYGi0IdpsJqfJzfJwbeTYItmNXHuSPQ4Bkew4VBL40fGOHDnSk+kNNtjAk6sDDzzQrzEaPXq0GzNmjM4GxQDztRNPPNGdf/757t577/VrsaOvREiyw8EWWg/ejauvvtqv3WMnVb0L//dfOP744+sSj6FDh7rDDz/cT5btvffeftd4vvHav39/vw6fDY10CAEhkB0EaNeZSKefn3feef0E3BNPPCFyXcFXAIz5hjabyLVu3drttdde7rPPPqtgDkqqkRAQyW6k2pKsSRAQyU6CUhAGwDAL33PPPf0MLOtzWU8EuWLWW2d6MKCuQwIdvAY5c/E4jQZxOInPqXei8d4J1uHfeOONDvP/nj17uvHjx/u1+fneh/Dd0LUQEAKNjwBLRi699FK/yVmPHj3856isbW/80tVHCayffOCBBxwYzzHHHH69Nn2m2tr6qKPmlII615rs5kRceVUbATiAvpNdBMrshAnBZlfRhx56SJt1FIFdmoLm02SnqYwqi/MbHrFJz7LLLus12kym6RACQiDdCEDy0FqzOdfCCy/srZJkzVK9Oodc8eWORRdd1H8SjX1OGJzqyBYCItnZqu8slFYku4hapuO94IIL/Drbm266yXcCmm0tAsAUBRXJTlFlNlEU/t/87w844ACv0ea7rhr8NQGYHgmBBkeA//zXX3/tsFJr06aNXwr28ccfN7tmFTkwnUazd9ppp7lTTz3Vn2y+yck9/ueee66fEOATWY16UNbffvvN796O2Tjf1Kbd1ZEtBHgP6kmTjTxYK7IjPpujMv4fO3asu+iii9BMSLYAACAASURBVPxSQjY8ZjxAuEY7kJl2jbHsu+++22zig9d3333nN4lmYu2ss87yuLI/A/Kk7X8vkp3w1eKFRIu9++67O9Zea91QQuBSGkwkO6UVG1Ms/vtsyLPUUkt581EGgzqEgBBIJwIM8vhcF1rspZde2n/buRaDaORgf49dd93VrbXWWv7EpHrBBRf0crGxJv5sxsbgv9F3Owfj1157zXXq1MnxDXKua4F7Ot/qxigV9V1PJPvnn392Dz74oN+rZciQIW7w4MFuu+22czvttJOffGMvlyeffLIhiSHtC9Y6lIGv6DTHwYTFO++8404//XS32267eT7FZsFgyslnEWl700S0RbITvlkAdf311/uNzi655BJpsxLiltZgItlprdn4cvH/Z5d5doqX2Wg8RvIVAmlAgLXYaFfatm3rN0D88ssva1IsCAfEmc+C8ilIPjF44YUX+qVqbNJIH4Q/nyhEAcBSFuLQVtkZR1Lxs3B2bW5NChpkitwoMmaccUZ32GGHaZwVYJOWS941vtgR99UOntULyWYynS8JQK7ZkI/NbCGAkET2Zbr22mv9mAByyNdlkN0O+z+F/8O452E4uw5d4ofxLH1c/POlb8+bSqspkh2mHZUhTDOUJ8wz6s896XzwwQfeQmibbbbxFjh8MpW2i+Uh7HvDZxJp28A4zIfr8Aifmb/5NYWJhW1OF3m0JjsB4gDFS7DZZpv57x5HKz1BEgqSIgREslNUmQmKwv+dT7QtssgisbvNJ0hCQYSAEGgABBgIbrTRRn59MOaM9P31cDAofuaZZ/yeMJDt0KIGwvLyyy+7CRMmeG0QO6JzjQXO77//nhOfcJD2M8880w92b731Vj+gxeTcBra5wDW4oJ1l4I2Z/pJLLumY8NBYqwYVUcUsf/jhB/+NdN5RNKkh2aau64FkI8fUqVO9tpWvzUACw/8R8PB/RMu9/vrre9Nx4nDyvyQ8X6cZPny4O/bYY/1+A5BJI4DTpk1zt99+u/8vksZJJ53kzdCZMGNiDSuOiy++2H/l5uabb/ZfObB2iDwwt7777rsdX68Bx2uuucabtPOMg6UjLGllnMqEwNlnn+34sgsa6y+++MLLGUeyiY+VLmmzFOWoo47yy1IwlWcJDc+nTJniLfpef/316TBhkg9ZMfsm7eiBTMjJlwSo46iygnJfdtll3nLnzjvv9JOG4HDXXXd5cm7poQ3HeoAJEJOJZ2BCPMOESRDM/A0Ti9/cLvUmkp0AdYDCxIFZVtZl1rriEoisIFVEQCS7iuDWYdL83xnEYsbIwE+HEBAC6URg8uTJfjINc3EGxvXS1+cj2QxuGagfdNBBXuOGi4k5359GG8xgmIEpg38GoTzDRJN9JvbZZx9vLsrGjvRptS4r+UNmlllmGTfLLLN42WstUzrf8tqVCnJ13HHHuQ4dOvjlDkcffXSObDPOrgeSzf/llltu8d9uRx4mBqIH7yVfIeEzrzZBxbsLIUW7ve+++/r/JKblm2yyid9vgLXPhHnsscfczjvv7Pce4D/KfxHtLibUrPnmE7JHHnmk/6+yHATC/c033/j/J8SRPRngIsTj/05afAmFSTXkIiwbNKMZPvjgg/1/nE+TYu5O2rb2OWou/uGHH/pNHkmPZbG0D8jFRs9XXHGFnwBgHES6TPRBbDnIk7hY+4EX+IUHz+FNyErbE7fHBXWPP9iAJ5MvTBQcccQR7qmnnsq1TbR3KDyZwABP0jZMwM8wwQIBTJgUIEytDpHshMjzx+DFHjZs2HSzNwmjK1jKEBDJTlmFFigOjTQdaseOHUWyC2Clx0KgURFgQIQmdbbZZnNrrrmm1wjVS1nykWw2X0ITxuCSfum9997z5HTcuHGeJLDMDWLDAJyB5yGHHOIeeeQRP0BFY7X99tu7ueaay/EZLcpfy4N2lnJCStgADU17EplsEJ3UrWYZk8pg4fLJwvM0ntQvWtyVVlrJzTDDDN5qYe211/Zkiv8en83DigFyGjXDzodVpf1Zi40mF0KI5UccaQzrhvy5h9xi7oz2+7nnnvPyQ0rhDljHUG4muyCSENJBgwZ57TJEkHcdS1kmx8CAyTG+IQ855nzzzTe9dnfixImeVGO+zoQgGneIPsQeLS7kFDnYPJCJQqxWSIv9HdCuQ5qJS7iQZFNG2gBM41kuQ35o3JnAg5xDkCG/EGsmRpgcoK0xHNAsb7755j6v6H+We2QdMGCAO/nkk6ezwslXd+DEZ1TBM0qysbw55phjfBsG6Q4xAUswQR7wZVKBstbqoOzSZCdAnxeQ3TyZXdIhBESys/UO0JHQBohkZ6veVdpsIcDADg3WrLPO6gej/O/r5chHspn8e/HFF72JKSaZyExYBugQaHZCxqySgTUaKPouBp2Eo7yYcGKeXS8km0EpmzHNPPPMXqtHu4tflk7qDyIBaYIklHMmSaNSYaJyxqWLH8oqCGCLFi1yJ3sgsJnfOuus4yd9mBCqFcnGWg0z7/32289PTvHucfCf4b+GhpRJAE60vpBiyB7/P4grBJU6JB7/MZZ5YEFy+eWX+3DspUBcJsIgraQLMeT/SrkhpMRFuceyD7Ti5MuEGtraQw891BN1zKk5MQnHOoA9Y8AMko2mG3KMltf+O5BmSCv/r88//9zv5wB5xoycMMRFVkzGLQ7tC58xRbNNXpQLDfPAgQP9nhCUj0kJ8ELrbOUJ203ikC7yoYUm7UIH6RYi2ZB+MAFbSD/m9oYJkxtggnl6rd4jykhZRbIL1fbf6y8w4xDJTgBWBoKIZGegkoMi0gmKZAeA6FIIpBABNL7svTDnnHN6M0v+9/Vy2EAVM9DommzkZEDOestXX33Va8wYqyy33HJeOcBAlAE9pqOYWNogl3gMSrt27VoXJBuskQ2CyeZn3bp188QD8hE9IRChn92bGz4r9jpJGhbGXMsj333U38LHuWglKXvv3r1zO8vbDvNpcfkmesuWLb02G422EW4mfGaaaSZPNmtFjiDZmCOj1UULHP5f0EJDdNEIo43u0qWLN82m7eD/ZP9FSCxED0LKpAL1BsEkHCQb7TQaWMg5B1phNOcQeDOnJq1JkyZ5gsukGbKsvvrqjuUdaP8hkHbyviy00EJ+PTgkG9mZ0GDcYgf+8Jh+/fp5Ig8pNZJNGPKjrBBr5OE5Gz1vueWWfoIO7TztEFYxaIkxYwcrltWggb/hhht8O0Q64UEcNo1Dm1+IZBOXMyTZrMG2NJkgNE02JJv2q1evXr6tY4IGPFgnj9u9e/ccJhY/lKs5rsFTJDsB0rwkItkJgMpIEJHsjFT038WkgRbJzladq7TZQwCNDANHBvoMgms1MItDPh/JZpDOwJ/BMus3GfyylpKTzw6OGTPGbxyElhHizdpJKxcuA+Q11ljDm4UamYjLvzn8kAcZMCmFZKMtg6SwoRIWBubaddJ7woVhLT6uneFzu47GK3SfL91i0yM86+fZUR7TfjshZ5zcx13n87PwUTdfePM31+Jxz7XdmxsXzvzMtXi4bHAF6TRiDdmef/75/VIGNKZ8pg5Nb61INkSOzcKY7OC/xQSWHWzQxX8GbTXaZYgxhBbyDDF86KGH/D2kkwkU2hGeb7DBBt50GwILJviDQ5Rks+yDSTH+C5ws9wATSDZEdfnll/cadixQeE/s/4GLRhqrFcg06TOxRhp2oGWmXGAPYY+SbMg9nwNE7v79+3stPe0Ka7KxgsF0nnaINepsuMbGaLQnkGvCg0lcG4IMkHa09MRD4x89CIPWnUkFNjujHKbJbopkUwdMEoIRm50ZJuDBiYl+uEFaNN9q34tkJ0RYJDshUBkJJpKdkYr+u5h0ACLZ2apzlTZ7CPAfZ+MiTJVZFxwOUGuNRhzJRj60SphKol1DM8YaSjROrLdGEzp69GivGcPkE+JtpqyUh/gM3lkDW0/m4pi6UgcM+OupDmr9DqQhf0gH5tV8qQOSzRIsiByTCpAsTKo7d+5cU5KNjOySDTHmHYwzgea9hFijeYbQQjwx+cZigf8Z5BjCzTpziN4OO+zgza7LIdn8dzG5ZhIKIh0eyGOnabL574cTBHyOkGWvTAzwFYWQZDPByJIS5GQncmTG9J32gYk6zOKNZNMWsQ6csjIWxnwd8gxO+Q5kwqSciUDbsCwMi5xMKmGpg7bbSDam7eRBnpQP/NDQ0+ahyWatORps1tCH9WRY4NbyEMlOiL5IdkKgMhJMJDsjFf13MWmoRbKzVecqbfYQ4H+OiWe7du3caqut5nfTrRcU4kg2bRJkgI2WWLuJ6Sbh0I6xkRKbSzFAxowc7RDaNTRFZtqK5o0BLethSYcBYS0P8Ed+NG3sLg7xr/UguZZ4pDFvyBbm0506dfKb9TGphQYVksX7Vw+7i/POQUgxGUeDyyZa/GeQj2ec/PcgoWyQaCSbcSFm8EwY8B/kXYYUolHFhJmJrnJINsSTjQsht2iikcFkgSCzIRn/dTBm0g0zb8g0chOWtdu0FZB0JgXCjc8wb2e9Ntp7lpwQnpOJD4gu5vFsQEaZyJN0Id6Qa4jzHXfc4TX5+d5Z8ABHmyQw7TJpIR+abjYzIx8mJ7AmQDPPhBuacu4JhxUBmnasAyDrpMMyGCYOINyGCe9TiEk+uartj8wyF0+AMi+WzMUTAJWRICLZGanov4tpHZk2PstWvau02UOAQRzrLDHLxDyT/349HIxBot/JZgCHKSUm4gw8MZXEvJXdgdnpFyKDmfhXX33lNzNC48QOxuwyTDh2PWYyAa1xvZBsiD9rS9l8rlbmwvVQ32mVAbIF2YNIQa4hRXbwX6sHko08/LfYgIz/DJpSyC3/L9NMQ0hXWGEFT56ZwOK95fvYK6+8st/ZG4sS/mN8+heC3bNnzxzJxr9Yc3HMoiGOTEpAVFlKYf938lh11VV9XpBRSDbm9vPOO68no1i1oJmGmGKyjXaatEKSjRk82mDWetMuoOVmog4rgx49evj2xDTZ4EM+hGOpCWvT2dUbzPId1C0TF5irs8EdGmsmHyDuTPxBksEZKwcmC0mLMqNZh/gTlskLTNQ33HBDbx4Oyeb9CTFhyQb4wtdWWWUVj7ltCJlPtmr6Uw6R7AQIi2QnAClDQUSyM1TZf5tV0piLZGer3lXa7CHAekgGfKwRZRDZ1MCxOdFhDMIAn4EyO4YzqOdgQMoAlEE3OzYzAGeX3yuvvNIPqNlhF20U8RkIjxgxwg+kGZSzjpEB+uyzz1435uLXXXed/3wX5B9CVi+THM1Z12nPi76UM1q39USyqQNkZM0x/y/IJv8tJt/YaIuJLSaz0PqaZQhaat5fNLtYkUAG0S7zX2StNdcQTUggJuWYxtv/mAklCDD/SdogOzA7J28IJ20ReUEqaQeQg3yYODvvvPP8juFgCMlGA4wWHtNvLFjQuGNiTRtiWnYm6NACQ8BpH1h6MmrUKG9Jwv8Pcku6EFYm8SDrJi+yMJHA5oq0MZD0aH1aGcwlDzTt5MeO6RB64mO5Qrkh0WE6mLAzgYHGnA3fWBvOpme0y7RjZnZumEDcwYR2kElGJhPJr5BcJl81XJHshKjyckiTnRCsDAQTyc5AJQdFpJEWyQ4A0aUQSCkCaGgYVPOtbAaBrLOs5SDNYEYGBp0M+tFMm0y4DDIZpDPgZ90mg3QG/GgKP/30Uz8wJhxtGGahaOjYlZe00CiikUMLZ2lans3pkjcDUnYFbtWqlR/cc19LmZqz/Mrrf3sE1Ism2+qD9w9NKP8pSCjLSTBLxrzZNK5hWP6LtBn8vwhv/0X+h1yjQea/ycQXZJh3nAPyyn/YTOctTdYZ4xdqYyHJpIXJOP951iYji/1XSBfCiRae/ziTa7QLyED+HIRFVtImLgfPmASw9gESC+klPWQL80Bu2oy+fft6Imzk2yfUxA/50sYiPzKBp7VZ+FsZLAlr88CccmAeTvtHOwYOHMThmrIQLg4TS6+5XXCSJjsB6iLZCUDKUBCR7AxVtjTZ2apslTbTCDAoYtCK9mfhhRf22pDowK+WACFLnDz4ITunhQldNipC48QAlAExYxoGpnyyjLKyxjIu3eYqK3KzZpP18GzEFm5i1FwyKJ/aIsD7V28kG0TC/1H0PxZFLAyb5DqMb+GT+uWTxUg2mmtIqqWLGz3smfnbfVw7EoaBkGNRg0aa728TvpiDfEx+yysuvslj4cP7MHzob+nhV+sDWUSyE9SCSHYCkDIURCQ7Q5Utkp2tylZpM40AAzM0PHwfls9Ioc1GY1QPA7ZSKwbZ0axhxsoaRz6Nw06+mJLyfV2IdpwWqdT8io2HfOSP2SvfSGZXZAanOrKFAO9BPZLsRqsFtM+Yk7NuPO5zWeWUh/8pk2FseAZ5ZA01mnkd8QiIZMfj8g9fkex/QJJpD5HsbFU/nb/MxbNV5yptdhHg/46pJ6QPzSqml7YbbqOiQvvFekzWPrKulE8osW6Rb8uGZqC1KB8DUbRufJ+cNaa1lqcWGCjP+jQXb8R6gWSzsRp7M0CKK3mgGT/ppJP8Rmusi8ZEWxNi+REWyc6PzXRPRLKngyPzNyLZ2XoFRLKzVd8qrRCAlLLzLbsFs9s1O+8yYKItaNSDcQyDZEyxGYjzGR9Mx2tVJvIFU75FPM8883iS/cgjjzQ8zo36ftRabt4HabLLrwX+U/zPw3Xc5af6vxSoI9JlIgyXvHTkRwB8ZC6eH5/cE5HsHBS6cM6JZGfrNaBjkSY7W3Wu0mYbARtMslswn8Lp2rWru+aaaxp+UEm5omctahoZGIDyfd0FF1zQm+ZDtlknzjMd2UOAehfJrky923+8Mqn9M5Vqp//PHBvTRyQ7Yb2JZCcEKiPBRLIzUtF/F5MORSQ7W3Wu0goBEOATMJhFsj578cUXd+PHj/faX2lwSn8/aE8ZU7Fx0nzzzeexHTZsmF8LzzMd2USAuhfJzmbdp7XUItkJa1YkOyFQGQkmkp2Riv67mCLZ2apvlVYIGAL89/n0DRv9tG/f3nXs2NFvKMSncUS0DaXkLpihreZ7vJiIzzLLLB5PTNfBmlNHNhGg7kWys1n3aS21SHbCmhXJTghURoKJZGekov8uJp2/NNnZqnOVVggYAvz/WcfMjuPLLrusa9u2rdt6663dk08+6dclMj4QOTS04l0Gm2zCxHdxd9llFz9hwaZyZ555pl8bLvziccuSL++ASHaWajz9ZRXJTljHItkJgcpIMJHsjFT038Wk8xfJzladq7RCIESANoBxwH333ef69OnjZpttNrfEEkv4b0/ziS8IpIhiiNj/XaO55jvcJ598suvUqZPXXrPD+U033ZT7ju//hdZVVhEQyc5qzae33CLZCetWJDshUBkJJpKdkYr+u5gi2dmqb5VWCORDgEHTK6+84r9Dy2ewINs9e/Z0F154oXvnnXe8xvv333/PtOkz7SUYsAMxn/iZOHGiW2WVVbwFAGuw0WS/9NJLNd3ZPF/9yr92CIhk1w575VwdBESyE+Iqkp0QqIwEE8nOSEX/XUyR7GzVt0orBPIhQFvAieb6gQcecFtttZXffZy1xSussIIbPny4e/zxxz25/OmnnzK1bpsBJZ8OYg37E0884UaPHu2/p4t5fYcOHfx3uW+//Xb3448/Suuf7wXLsD//q6uvvtp17tzZ7bjjju69997Te5Lh9yENRadNXGONNVzLli2LLs4MRcdo4Agi2Q1ceVUQXSS7CqDWcZIi2XVcORJNCNQAASPbn3/+ubv00ktdv3793KKLLurmmmsuv2P2Jpts4s4991z/re0pU6a4jz76yH3zzTd+0y8GXha/UV3KwDe2+d422uq3337bPfvss37H8AEDBrgFFljAseYabf+6667rzjvvPPfZZ5+JNNXgXW2ULPkv3Hbbbf5zeeutt57jm+n8bz755BOdf2PAf0141P/7YPX07rvvui5duvglMsX+D0Wyi0VM4VODgEh2aqoyUUHo/LUmOxFUCiQEMoWAkWQI9D333OOGDh3qevXq5RZaaCFvSo4Wd8UVV3Tbb7+9O/HEE90tt9zinnvuOb8B2BtvvOEmT57sGIi9//77nlBAKurtRDZkRFZkxlweQn3nnXe6U0891Q0ZMsStvPLKbs4553SzzjqrJ9jc77PPPu7WW291X331VW5SIVMvhwpbNALTpk1zW2yxhX+P1llnHbfTTju53Xbbze2666650+4LuRbHwtl96Eaf2X3UtTjmb/fmmn/UtedJ3Ghcu7e40Xvzxw2f2bW5Ybh81xY2qWvpWPjwHr+ovz1vyrU4xbqWpsWze3Pj/KN+dl+s21QePOMdbt26tevbt2/R/wWR7KIhU4S0ICCSnZaaTFYOkexkOCmUEMgqArQRaHc5WZs9YcIEt/POO7s111zTdevWzS222GLeZBoSOu+88/pN0zAv5/nGG2/sBg4c6EkE65XjTgZs+JsbF8b8yNeuzW0qnj3DDa+JS1qDBg1yaObZ8G2llVby5rz2+a25557ba/CXW245bxaJme8FF1zgpk6d6jeKAw8dQiApArwvbC642WabuaWWWsr/b/g+PSf/Ic7w2vzMjYZtKnw0neh9mGbctflF3TCd8Jpw0XuLG/pzHd5bmGj8fGGShg/j57uO5hlNO4zXVNjos6bi8Sx8Ht6H/oXSDGW1a4sfphl9ZvfmWhzu813ne8Y7DNF++umnk/4FcuFEsnNQ6CJrCIhkZ6vGRbKzVd8qrRAoBwHaCw7cr7/+2g+wLrvsMnfkkUe6Lbfc0pPV1VZbzWt/u3fv7j8LxjpUditnEGeuDQRD156ZGz6zazTKaNDRpptfPrepdCwOsvHpMmTt0aOH19T37t3bE6Fhw4b5T5uxBhuNtZXbX+hHCJSAAP8brCewgrjiiisc/51qnpdffrlP39xq5lVs2vUoU7FlKCe8ld/cctJq7rjIjOXSl19+WdIyGZHsEhoPRUkHAiLZ6ajHpKUQyU6KlMIJASEQIkDbwYmGjr1dOBl0oenlm9FskoaZ+Q033OAJBaSi1JNBHebbmKtDjNmEDb9S0yPelVde6SZNmuTuvvtu9+ijj/pdwdHUf/HFF7lvhFM2yqhDCFQKgfB/w/ulUxg04jtg73Ep/wuR7FJQU5xUICCSnYpqTFwIGkqtyU4MlwIKASFQAwQYhF588cVee81u52effbZjh3MdQkAICAEh0FgIiGQ3Vn1J2goiIJJdQTAbICmR7AaoJIkoBDKOwIcffugGDx7sWrVq5Vq0aOHWX39998ILL0jLnPH3QsUXAkKg8RAQyW68OpPEFUJAJLtCQDZIMiLZDVJRElMIZBiBSy65xG9CBsGeYYYZ/A7NfEbsh//f3p2H21fV9QN/ElHEAs1QoUQkUggNnFAwBZEhBhE0Q1K+CpZoGYOAmiM4i5Jz4gBGaiaVmiNB+YRmYppTSqQNZkWD2GBPk//s3/Na/j5fNodz7j3DPfeec+97P8+++9y9117De6291uf9+XzWWt/5zhZGJUUPAkEgCCwfAiHZy1dnyfEaIRCSvUZALkk0IdlLUlHJZhDYggjonywUZWXvHXbYoRFsJBvZtrLtF7/4xS2ISoocBIJAEFheBEKyl7fukvMZEQjJnhHAJXs9JHvJKizZDQJbCAFzsX/t136tbW+EXBfBRrLNzb7kkku6//zP/9xCiKSoQSAIBIHlRiAke7nrL7mfAYGQ7BnAW8JXQ7KXsNKS5SCwRRBgxba/9Q/+4A92Rx55ZPcTP/ETbT/rhz70oZ19rI855pjuuuuuy9zsLdIeUswgEASWH4GQ7OWvw5RgSgRCsqcEbklfC8le0opLtoPAFkDgG9/4RvemN72pe9nLXtZ9+tOfboT72GOPbSuNv/71r+8uvvji5k6uH8sRBIJAEAgCi4/AwpJsA8lan/a2NFA95znPWfO4K6+LX+XLl8PCdq2vH//4xztCjG2duOqtdfzLh/Ri5Xit60Mdf/e73+1233337t///d/XvL4rv4uFYnITBILAMiCg/7BV13/913+1vukXfuEXuv3337+7+uqrt+8vnD5mGWoyeQwCQSAIfA+BhSDZNXAQgq2gecMNN3R/9Vd/1f3Zn/1Zd+2113Ysjr/3e7/XXXnlldtP/w/e83zY/Qr3sY99rHvKU57SnXLKKS2euj94rXTqfv0/7IqoyeOXv/zl7i//8i9b3gnww0hbGt3KCGgHjmoPBI5//ud/7v76r/+6++pXv9r9yZ/8SXfNNdd0V1111fZ20K+T1epr8PlFF13UHXTQQd1HP/rRke3BO/Ve/1q/++n/wR/8QbNAWKDma1/7Wvf3f//33b/+67/eoi2sjMLWe1r17YoE33jjjd03v/nN7vrrr29b1/zRH/1R9/u///sj60gdVH3UtV8v/d8f+chHmjvm+9///qFtqB928HfF7VonAfiTn/xk96d/+qfdn//5n3esUd/61re6//3f/71ZW662vfVqNyUOAkFgGgR+6Zd+qXvkIx/Z+sBp3s87QSAIBIEgsLEIrDvJLoEaCUVAkNMPfehD3Rve8IbuGc94Rnfaaac1EvzoRz+6O+6449qqmuYkPehBD+oe/OAHt6vfddY919VOhGqvvfbqfuRHfmR7XPVOxddPp57VtZ7V/64PechDWh7NlzrppJO6xz3ucd2TnvSk7uyzz+5e97rXdR/4wAe6L3zhC923v/3tm5Gtja32xUlde9AWLOiCVCE2b33rW7tnP/vZ3ZOf/OSbtYUjjjiie9jDHrZqPVc91bVfX/3fP/7jP97d8Y53vFlb8rzeG7zWM/eHPdMWDj/88DZ3Tls4+eST236nLBII/W/91m81RQHFQV8Jszi1sT45qTrnWWJPWCT6Xe96V/fSl760e+pTn9pt27ate+xjH9udcMIJ3dFHH90deuih3SGHHHKzb3YY/lU//Toe/K0P2GmnnboHPOABQ+twMHylU3EP1r18yZ98EogfxYuDGAAAIABJREFU85jHdI9//OObMu+CCy7o3vGOdzQlIUUR4l31vj5IJ5UgEASWFQEyxNOe9rRmcFjWMiTfQSAIBIGtjMC6kewi1//wD//QSPWFF17Ytqr4qZ/6qe5+97tfd7e73a0Jv7vsskv3wz/8w90973nP7sADD2wk9qijjmoC96Me9ahuLc8TTzzxZvEN/r9aWkUCfvInf7K7733v293rXvdqed9111272972tu23+/L/hCc8oXvBC17Qve9972tWuhK24bLVjmoL//Zv/9YslAioBV8oVZCYe9zjHt33f//3d7e//e2ba+8+++zTHXDAAd3BBx/cFoRBZmC/Wv2s93OKFkqA+9///t2+++7b2rRFbGzHcte73rW7z33u00g4Rcwzn/nMRixZvAuPzd4Oqpws/W95y1u6M888s5FSmMHrTne6U7fjjjt2u+22W1OGcZV84AMf2B122GGtbSxKnff7ieOPP74p2bRb9avt3uUud2l9GQXOj/3YjzUFgXcIzOZW8nxBuAuPzV7vKV8QCAKTIxCSPTlmeSMIBIEgsEgIzJ1kEyS5T3/qU59q1jzWPcTzzne+c3PbvPe9790IkwGFAPqbv/mbjYSzaHIT997nPve5tkfkl770pW6lk/Du+WrXleJY6f1h78nbH//xH3d/+Id/2NyYP/jBD3ZXXHFFW8Dk3HPPbdZtBBGBcFoxlLWL1U75WLi3irCtnP/93//dLPu/+qu/2pQsyMkee+zR3eEOd2iKFUoXll9z53/jN36jg6e2wC1fW+AyzjNgsI6H1dtgfXlnpXMw/Kj/K235EKau2oIFa7i0cyPmmkyp8va3v71Z5rV9pFHbV17EEkl77nOf28L+4z/+46azdKpzCiVu1O9973ubhwdr/957790UKeqekor1muKN5ZcrN+xgCEuk9POf//yK337V1WDdDP5f4frXClP36v/Baz3vX9W9Nsll3HQBUw94r1x++eXtG+eN8fCHP7y7+93v3lEguvLMYbG3XQ8lC4s+nHIEgSAQBAqBkOxCItcgEASCwHIiMDeSTWhkqUSSzjjjjGaFJFAjGCxXz3ve87r3vOc9jWgSWs1frQU/lhPKm3Kt7P/zP//TsdqbV46AcxXmPsrlGQYsm1xXTz/99PbsX/7lXzYt2YaHuv3EJz7RpgSof277LH3cdgkTv/7rv95IFTKFkJmbj5xthsM843/6p39q88qRMSTs1a9+dVMu8dpg7ea1gYS/7W1vay7Um6HsyvAXf/EX3ate9apmiWaZ5qGAaP7sz/5sU0Qh0xQTwpmLbRG6zXAgzqbDWKfhs5/9bFMUqVseG5QrCDcrt/7ghS98YesnfCfOHEEgCASBkOy0gSAQBILAciOw5iSbkMhaSXA+66yzOpZqezwSsLlLmntpkSCk4//+7/+2W+42o3BZQjOygWgh0ixfLN2wQaxYtwndLFss2+YmbxYslEO5LQiFSHCjpmBAsM1bN/ealdK8XEoJOBVmy/1Z3TL3VS5lRMAooCzmZj0Cq92bz41s/+iP/mibh86aK8wytgV5Nu/80ksvbVMlrIFAocKd/uUvf3nzSmDB1dbhsdnrvcpI0WRuNkXLa17zmubl4vvnXm5utzUcKOaqrdyyFeVOEAgCWwWBkOytUtMpZxAIApsVgTUj2SUYIkwvetGL2jxrpIG1xv9cqv/2b/+2EfDNCua45TIfE04IJiufuZxICLfyX/7lX+6+/vWvbyce48a5aOG0B6TijW98Y/NiYLmnbDnnnHOaZZ+FD8na6gfLLYUTxRO3clZ+1t799tuveYB85jOfWRrSpc4RStZpUyK4hN/mNrdpc+cpDXh11PSIrV7vptBQPlml/NRTT23z9q1LwbJtygwccwSBILDYCJTcM48rRTzDhLFyHvEPxrnYSCd3QSAIBIHlQ2DNSDbiiEj/zM/8TLPMsF7ZgsLWOyy4Za1aPojmk2MDHEyQDm7U5513XiMlFn2yYBfceAQIt0xHlcsWbOajIg4WgrPwG6stS13aws1rtDCjdDCv+2Uve1lTuJi3bf7yu9/97u4//uM/bv7Sgv2nDLauojSykOHOO+/cFAYWOLvuuuua14owzhw3bVNHyfI3f/M3beqM9QgoJSygSNlG+RK80lqCwGIg4Fs0djl5I5FrEGDeadaO+PCHP9zWEeHBc9lll7XT7/q/fo+6Dr5z5JFHtvUcXvGKV7Q4Vnqvnomjfvev7htHTN/jMUepy5uIxxE5o8qV/mYx2lpyEQSCwOZAYGaSrVO2n/Hv/M7vNIsld2Db2fgfoeIunGNlBAjaFr1CQm1dxn3UXGXzlJfNZdhgTdnCIsc6j3BZzMo8a4qYHCsjQHijeDGP357u5mzbauyVr3xl24N9EYUgeeJ9Qam25557tukAVtInfG6m6Q8r19xsT02XMC+dG7kpA5Rtp5xyyva52rPFnreDQBCYBAF9Wp3GNApEWw1aV4E3FhnHGG3Klylxpnzx2jMVSh+4Fqd1G37gB36gLQy6FvHJm5065NX0PZ5zpnAh8/ruN7/5zU1ZMLjF5CKOOZPUZcIGgSAQBDYKgZlJNrdHLsEWM0KwzS3mBrmMVtiNqgTpGsgI2rTLrNo8ARAsWmyD3jIMdIQRyhUDue23WOSt0FxEaxnKsJFtoNKGk/UKvvnNb3a/8iu/0lZdp3ghCGkfi4SjvHBpty94KVUs8qfNUhgsUl4L30W8wsmpP2VpsuK6aQOuVtb3beUIAkFgvgjUd+h709decsklzTvPjiiUXxZv1c/ttNNObfFSW43aMeIRj3hEU5Bba+QXf/EXb3HaMWPY/ZXueafOlcKNetZP0+/TTjutTeNBqi26imyT2ZSF19Tuu+/eylg7oFgjgqU+/fh821xiDwJBYPMiMDXJNhghT7Zi0lEjAaxXXBwjEE7fYGBHa27vaIoLFi1E2z2YL+JRgol5txQD9ghnhbVivAE6x3QIwJUnA48GFhNu94g2V/xFaAvywO2QMoV7OEHTNlabZZeA6WpttrdgSsFi/rq9tX1LD37wgxvxXoQ6n610eTsILCYCvi0nLyJrSiCl+lxyjb4NCUVMTYF67Wtf2xRfjAk8eCxmaL0Znns80riRL+Ipb8ZkeZVnBFoZuLozlNQuMBZjVGZyHSu9MlOek0HIJ4XVYtZkchUEgkAQWBwEpibZBEGDERKIWCHbrDARBGevXBiag2sfXZpymnN7Ri8qeTHwslibf73DDjt0L37xi9t2TGkLa9MW1Lv5fqyahD34Eng2+iCs2d+a14K1GOwXrV9Ivc9eM5RThGALHyHa9tom0Afb2bFNDEGgEPA9ORkH7HZh4UnEmpu2xTot4EjJiYzecMMNbVxjXDANrk84K55luyqDspjyR8GgjNdff31bI8I2izzqeNQg3JR9rNvCeC9HEAgCQSAIrIzAVCRbB2uxHnOSrCBukR6dtAEmx9ogAEsu9xbB4sZFq26O66JZhuWTQuCoo47qdtxxx0a6yj18bZBILBAwleCd73xnm0tn7h/LAuFoI745acqPtkkQJZiyhmT9hbVtq/pZAu9xxx3XFG3cQvWzOYJAEJgdgerHrPBf3xiFlnnKL3nJS9p4a697fd1WIpVwsX6KspM5Xv3qVzcFL08qSl4LNL7vfe9r4z5cNmIMmr32E0MQCAJBYP4ITEyydags1o973OOattfiPItqYZ0/fPNNAdawZc3iwnXCCSe0rb/mm+pksRtkn/70pzdrpr2eEeytJJBMhtb0obUFVmKrd/McQWwtMLcRWEuTZ4XFc3ha/O7v/u6GEf7pEV2ONy2K+PnPf74p2ViVLr744gi1y1F1yeUCI6AP431lDjUrLXLNUmsFbm7ViHXNRd6qJFK5YQCL73znO91v//Zvd8Z4lm2LsrF0my4U76UFbujJWhAIAhuKwMQkm7Xqve99b3e7292us0DGrAsxGeycOvRhg1ndH3xW91dCT5iKW7jB/1d6d5xnlQfXeR3i5jVw6KGHNsy5tC2C10CV3SrYhBR7YCMDs2BRcfbrbBDXClP36/9x0u2Hrd8rpVVpjHutOMcNP0048/5OP/30puDiQcJ1b70PrpOPfexjm1XDqucsHtMeMFMHK9XDKFzdX+2od4ddV3t3nOcV7zhhpwkjfoo2e2ezIh188MEzf2fT5CPvBIHNgIDviQzzsY99rH1LyDVFIa8ca13EG2d0LVP43Xjjjd3rX//6too67HhVXXHFFQshk4zOeZ4EgSAQBDYGgYlJNoHP9hXmCZuHTTie9jCgme9ki6IiDAbBOvymSf3kJz/Z5qTWAOje1Vdf3QbKfvh6r67mGL30pS/tjj322DafEUE566yzmvbays2zHJU3+1kbsFfKxyzpeFfctsFiybJvssVL5pneOPmVvrq3KIo5uRa9o9Ge9jCAq1PKhJNPPrnNgRuMS3rc18xPNtjLg7bAousejfuog/ubVa/tQUwZwBvjTW96U3OD++pXvzoznvImH7Zh4+Y/r0M6H/3oR9uKtrZHs63Meh/WCth7773bwlzqY9q26D31+HM/93NtPv9VV111i7iEoUjg0vmlL32pPXePQGxNCPOURx3CecfiPSxU+i4roVMK+W5hOcvhffnw/c+qbFwtH+a/+9ZMHUEIZs37aunleRDYbAjoDywk+Za3vKX1X8atxz/+8W2RQd+T584coxGAD6xqvQgedqaJcSk3bSz4jcYuT4JAENh6CExEsnWutpexuJXtLGZZ6ExnbAXO5z73uU2jbIGRT3/60x2yVYcwiPKpp57aXXbZZW2eUL3HdZpFvT84etY/CfBW5hbWoICcWp35iU98Ylthsx+20qyrZ8OOuu8q/4P5qHf6cdfvejbp1fuwZsW6zW1u08jiSoRy0vinCS9PyCrXZYvEIAHqYtqD8GO7FIt7UYpwTeuTdukZxLUXLtO1ir32gXwMWvgL87oi2eLk4owYwtOKqjD9yle+cot2NFgO8Qw7Kn7W3J//+Z9ve40OehpUmP51WFzj3BOH+FmztQXtW9ruz/uQxt/93d+1rWBYMayyC9dp09ZeuGwedthhzQ3x2c9+9vbt3qos4qdAMSXh2muvbfVEiXHppZd2z3rWs1rdSX/UKX7rGXBv9544eF0g9BQ0/fcqTddRZarwwiDt+iX5thr44DsVtq79+Cf97Vv44Ac/2Fw1LYJmT+0cQSAIjIeAb9D4/7znPa95hBi3/OYaPvjdjhfj1g4FM/2nsZjiD9E+++yz120s2trop/RBIAgsCwITkWyC3hOe8IQm6L3oRS+aiVQRsD/xiU80YnLBBRd0xx9/fLMsIlt16MQJ9SybCBHSLA/f+MY3umOOOaZZd80BRszdRz4I5a71myDst7iKZFsRmQXKPCPEjfBdAre0/fYey3l/AJaOuFyd8mEREFZmcVUcyiYf4nZ6ZzCuKuO4V3EiNaxwj370o5vyYdx35xFOfs4///w2N4viAl59rCZNE9E999xzm6cBAsmzgedBxSk9Sg17iGt76o+iQfvQJmFjb+aqG5hrE+rF6XfVibpQL0WyETHh+3VV+ZeudLzrdx3VRsQrTdZWyhv7Wlc+5N1Z+dC2tVf/V7kqvkmu3qVg4gFi26xZrMmTpKv8tmlDWhG9WazoygBTdWALsNe85jXNi6FfFmHgxQOBAsP2YOqJUoEXAq8UlmnxqANtUF25qnPfddU5zOUfyWZ9YRkXTp0LK1zViavwnvfr3G/hxOt35eOcc85p8VYc3q/8qPPKSz+uSXAXVpys5VZx32uvvZoXUeV30rgSPghsNQQoZZ///Oc3xeR+++3Xvf3tb595TN5qGA6WV/+jT7Mgpz4J0T7zzDObt0D6pkG08n8QCAJbEYGJSDah0/YWtu1iGZ6lIyUsE5QRNK6bz3nOczqr55rvWcIoEsvCbVVL50Mf+tDuyiuv3D4/2crmLMnesdqlFa5tMYH42mOW5ZJrZbmLF8n2jFDvXfPK7enMJV35lIn7MDcylqOyGLv/2c9+trlrs+CyJNU8afmgJLD3JOHalYaXlZRbrcXh5GVWyz9rMXdnJAG53MgDyXzQgx7UhBbExf/THsiJxbMQqfe85z2NQHAh5jUBTweLwzOe8YymNbfwipXtL7/88u6nf/qn29QF7cOiLEjapz71qY4rNbdm9XLIIYe0Oa3lLl6W7De84Q2NMGqHFC/cipEYeUG+tEOYs5iah4ZU1aHNeUe70xZ4W2gHFoSRD21E3imGCHRI6R577NHaIqu7+9XOK85xr9oiPLRfaXJXnjaucdMUTh2bg62MlCB9PCaJR1hloJiAmy3JPve5zzXlke8XwXX4Hs33432gznnPULJY+ddcQO6eFA3cP73/1Kc+tQnS9rj17fn29S19d/Ei2eqEV4T5mBY80h9QjsBRupQYFnfsTyuxbRpljjwgvBQE++yzT/PkILi/+c1vbt84Uq2fsqiSPPtOTKfQZqZVsMBLvuTbehj6rPWo80nrNeGDwCIhUN+N6SIsrve9733bWJxvZ21qCb6wNNVLX4do68NLllqbVBJLEAgCQWA5EZiIZFuAi4sqoodA6GCnPQipp512WvfCF76wWZhtSfTIRz6ykRaWIoeOGvlFkoVDnpALHbrVlV/+8pe31S0RFgsD2U4I8fDblkJcOAnkrN7mbhbJpiRAvt72tre1rZCQpZNOOqn7+Mc/3oRgVlUrZyJblRdltQ8wsmRFTSSs8sFl1z3CNeUD92XWOQO7MCz1tgghlLPMTXsYzBBGAxkSt5GCAqsygoHkISfTHnBVpzDSHig4WEjLKswd3EHZocys3CyYSAwCrH3AGmHiGcFyqJ1YMwC5ede73tXqABFG2JAzdUXhgWQjb1zUrdpsPjUir73Qzmt/0njmM5/ZyFWRSnm+7rrrGkHUbpEvUx20IeSz8iHvNPvaKvdmeZWmefWUSvIw7YHwUkogmtY1KGXQtPGN8572Xd4L2vIs7U/+1eF97nOf9t35hrlvWlCNcg3GwsAfAebNQmkCd20EadVGkGFh3OPhgXRfeOGFTUH25S9/udULkq4dqM8i2dqBdqSfQI4POuigjkW6vBn0IdIUt7w4tHl54XGhL9Gm5AOZlg/5VqfqWv/CcsZizlWdMkg/o28pxdE4mA+GEZ/pGco6S/sZjDf/B4HNiACvJf2xbblYWylL9Vv1TW/GMq93mWAJU/0zRbL+ST81y/iw3mVIekEgCASBeSAwEclGGM3FRHoJwNMOVN5FYAmdLLyIrP1gkWxki2uXuJ2Eb+7ABNdyxyTsCksQ1pF7H6E1iH7gAx/Ynjfkp0g2Uk8wJlhzsS0rqTRYmFjULJImbeSc9XmQZHNNNX8USVMG5FI+CNjyQYhHeBBq1lKkxMlix3qpvO5Pe0gD+d95552375M8bVyzvAczlsO73/3uTXhRR9MecISrbcoQGMRBPSGnrNlIVbUFBAg5veiiixoxdx+RRbxZM3lHwMgCZJRBrH7VTpHQQZKNKCJl2hFhzLs8BBB2lkJtZiWSrV1qv+XCLL8IW+XDAmXIGwKuHVCwIOoW7OJ1QfhThmkOeUXwTB+g5CllxDRxjfsOLChCeGf43uRh2sM3ay4zIut79j8s4cUyr94c6o3yY9icbMoPpBWGCK9+STsylUDenL43ddwn2bxx9DPSFEbdS4MbPAWP+uNRwathkGSbDoBk6yeE0y/VnGxxIfbaAWFeO1bn6l6fghhrk/6f9pA/Ss4jjzyy9ZnTtp9p0897QWBZEPA9Gj8ovCiDec3pfzfim5Hm4Cl/7rnW72XBdjCfVQ4KTgruAw44oPXr7ucIAkEgCGxVBCYi2QgEV0UC7yyDAlJmXi2BmBCsIyaMIgvILdJF8HVf2Fr4rFwti2Qjt8IUyd53333bQkrVsXt3kGQjaSxWBOAKR+hF3NwntE9KspE3pEB6BHDu6lZeJ4A7EWz3kQCWT9hNc3iPQM81muVVuasM08Q37TvSVA5aa+78/Xn0k8aJOFs8Sh1T4sCRMoWyAgGTTilX1BMCrK5KEYNcDi58hmRTBrEcy6tTHIMkmyeDqQMIWoVD6hAsRMkcYNbJUZZsJFv+kC0Y9Bc+Y60kcHAdR+arLSBZlDmmPmgjRSYnxU1b8D0ivBQS2vO8D3PXeYo88IEPbCucT9uOYU2pxiuE+zWs4FDKLm282pR665Ns72r38CySrdxFsrme+w6rPoeRbFNEtI3KvysvHW1ZXWln45LsWvisLNSUfOLxvfvuq97Fe8QRR7TFgWbx/FAeij7u8KzwypkjCASBWyJAptDHU7hulFKq+isebhRwTjseOOt/V8oA/cK048EtS7/+d5SVjMYbyfjLM6n62PXPTVIMAkEgCGw8AhORbMSYFRV5MBhMI+DpdM1tJqxv27atWa38zxXbPGYaUAIpIVv8SNRakmxlYMVi5a6DIG/xMiSbldoAOI4lu8h+kWxER5nudre7NSLCXdlpzqcr4ds872ndRWEHI1p5ygKW82nqoMo97VWayCKL4BlnnNFcbKeJSzzc+M2lZdk1v1lbcCIo3KwRKdZlYYtkw2AYyS48Bkm2vA0j2eqcq695t4WjuuHqRpGE3JlfPw3JRgSRX4oIpLTaQLUJQh+CVvOPJ8VPW2BNNheY27R8zvuAK6KI5NkffRoBCs76DmU3bYMHQtU5JQtLOfd9ijZh+yS77o1DsmHh/WEkW7sq5V6F8y1bE8I8btauaUi2vFIOqWPWc1b5+v7rNyWR6RHV3iatM8I4xZA1B6y6Pm08k6ab8EFgmRDQNxlbTP3h4Wa82ohvRV+HRJvSdI973KPlxcrm9rznhSRvTt8zL5makrRMWPfzCmNegtaNUV5y1kbg3s9TfgeBIBAENgqBiUg2l8uddtqpCfXTkmwCsgWrWGLMi2RVMi/T1QJFBiAEl6VLGmttyUawaVgJ1XXIE2EfmSrtMm0s0ueZw0DBVbPvLj5IsrmFI2fm5SKE3hl2VrqTXgkOXN7MeZJfQv1GHMqEiNq3257p0woGvBUsTIW4schWO6i2wB2d9R+hE3atSTaixxpdc4BhKR3kBc62efKMVdI+oNqiQ/m1E677oyzZLOLmdyPxXODXsh3Ig7bAm4FCx8JsiNu8DwSPC7V6YrGdlmRrLxQDvnXffPUB4uWNQnFg6gAM50GyrWtAmVb5d4UfTwSWdd4V5lFz72bhVncOih1eFNpDuYv3LdnySvFhqgEvCP+vdb1TSCDsFAUUk5W3edd94g8Cy4SAcVvfbKyk0Ox/x+tZDt+nvkJeyE+UcLxtKJX1E+YxW/+DUo8SseSN9czjWqelP+Wif+tb37r1p/5PP7XWKCe+IBAElgGBiUi2QYAbEFfXaUk20mJetNW7kVjCrtOiVoRG7t2EYPMzWSb7JLuE1iK307iLW7iJezEtd3X+yDFijHyzCFpECbmj/SZwC4d8GSC5/8qv8vfz4X/kAYlnaTKft+JnHZUGN/Ryg52mcYiPBwBFBwI4rUV8mrT77xgwufbSVFudue8V0A+30m9xqFvae1izKldbcNUWrPqNxCOT0kCya072MEt2zYUe15JtX27z880vr7pSh9y4TWVAaFi5WThZIGtLMbibb806MYpkaw+IIgu2eq/4XXlnsKT2FT0rYTXsmXi0ZV4N5v9qp/M+EFG4sM6rL3mY9FDvlFUsvdzmYd+vd/Oxea5YKMw3Os6cbHkYdBd3T1rDLNkW7LPegnoUxlVdm+ZhBXrtCFnmzk6ZopxOafB2GUWyxUP5ZJoDN9XyxpEG4Vk70P8JN+1B4USx4pvpzxefNr68FwQ2IwLGW/0IRZ4xZpq+aq1w8f075cG3T47iAcZbS/9W/QuvJuOaaTnW63D6bewzntRBFuE1Jx5h9EvGFH2Y8UtaG3lIX//K65EXlzJudJ42Eo+kHQSCwNZFYCKSbc6Q1Yy5N5WldhLoDCYsPKxhiJOBQefbPwndSDwroIEEEWMNtHUQkmOAMeggslZq9tzcK0LxOHOyzz777EbikQQLJBFUkWd5YmFHVgjCrJRIDCEduZAvVuqyghn0BvNBKWBRKy6iXJoR7Ro0rYROc02ZMO1B+OdWZl48kruRA5f6R5S0B4qJSfMCP/NYuYrXnOJ+O/AbfgQldaEe1I0VmxFe7xq8tSG4wlddUsSMS7KReN4U6oqgglBzEaeEoexRd4gwYq8NWn2e8IZ4UaYg6BRF6oW1Wlm8Jx8EJm3G9Af5ZQUWlzIRrlhJEaZJcdN2vIO0wcbq6Iih72LehzQpoliHYAbrSQ/vINe2YIPJYJ3DkZLDcwvS+bZ9U+pY3WgDvjPfr+8RhvDn+YJ41pxs+RL3MJJNSVDrQejTKNV4A1BgmTupXUnTKvDSMV1BG9fH6Hf0C9qGfLBEURpykZRXFjPtgIcEhYE+S7sSnz7GHG3fzjSHb4YHAeGVt89msHpNg0PeCQKrIUBBZ3zS/yKq0/Szq6UxzXPfMAUykk0RV9OFkG/9IY8p37a+x7QZi6jqD/Uj5CfvG38sekkpKJx+UBiygTFKuI08YG08ooTXV5GzFgX/jcQlaQeBILD1EJiIZBOQDVpWj+TmO2nHybJDq7xt27YmHBsw+of4CNkGEAIzsuQd86hZDREYAishlUXJPe6dBFvundxM+wMqAkagry28DFRIgoGJkM16zUXcXGlpiMcARXhGuN235644kH4LMskXoizvhGpWLcI5qyUCRmi3gBsXaBZQW4+5ImlcwhCCaQ7YsAAauJRzPdyDV8onnKyszqpeq3OvFH7wGRyQQ275PBJK2OiHUw/c4rmeSYOW3v/eUXfqWvtAsG2fZa0AZMgWXvIFr2qj2q70WN7Vn3bGU4GmHYFDnJBpAg7SJG51LF+s1tqsOtROEDKnfJhjL58Ij3pHwoRB1pRRfrn2ckV2XztCtiiIEMbKX7/cq/32jnWXtmPNAAAgAElEQVQDWFrtTTotWV8tncHn6txia0iqheF8L5Me3pFv3yEyO3gQzign7FFNIeabsjo7/Cg/KDUo1pBWdULApLhDpgmk+gjPHXBSj7bwQpDVEeuPvXLN/TYlQHikmMCqLtW5k2Cob9DHaGvalj6HcKx/QrK1DURau/CNm1OuPbry1GHR9q5+Q3m0GcK/+Cc9lEW5KBHM5xTXNG1n0nQTPggsGwLVP/pOKMV9k4ty+PaRbH1On2T7tu0vrU+juGOV5q1GAa1f09/pv/SH5513XhunyChkJJ5MxkhbmOoLF4FkKyeX+PK6S1+1KC0w+QgCQWA9EZiIZBOACZs6Tla0YcRopcyz5BlYEI9RJFFnjCQhPIRr5IigzIJJsGfBNYh4RghGiFixECoEhhW6DiSYUI78SA9J495L4ObWiQB7nyWbtao/OCFA3iVYO73H2lmkXlh5JbTLB2EfwXNfOu9///sbcStihgghY9MecJBXggNiL38beSg77Tl3ZQRlUjc1+YeRullJ083FFolmxaRcUQcUNYQUmBI8aPYRWO0D+dQetE/XGty1XW0GcUP01IX3kV0rTZtrqw4tuue9PhFClgkviCGhhxAkTUIOV2ffgXTkVT4QQvkQh3ojLHkX8UK4lEXbnPZg9eAJYk68ciJuVc5p4xznPWnAipKKlWjSedneZzWGD0FzWJ7doxwzT1GdUIwRQE0f0f55H/Ag4eXCyowoU7DpF3i7aFN9bPUHhFL5Vk+UH/ow9WM+NQWLvsZzbaQOGPM6gDNFm3YqDEuRvoCSRl4JvdqDtiMf7otHn0Vo1iY9kxYFYb9dVVrjXL1H8LaWhXnsyjkMv3HiSpggsJkR8O1SdJnaRgG+SN+J73iQZMsf5TwlMDJtnHPPSb4wbujrKAuMHRR/+l5jnzCUlcYxXk2MH305ZiPqWZ7kgeJRHZAT3MsRBIJAENhqCExEsnWc3HTNCTTXiUVw0s6zOuCV3vOsH65+S7+e9e+5339WlVhhhr1Tzwx69W6951rPK+66VlwVth/O73rXb3FX/N6f9hAXUmBhKMTKPKw+IZg23lnekycEhiWYyzihRlnHPbxfuPs96hgMV/8P1of/pe95hXHtH/37Fa7uVXyVp8H3KlzVZ//9ClthKq5+mMpfxe/ZNIf3KCVYzK1Oi+DNoryZJA/SpkxhnS1rKovuJGURtjAYlbYw/XD1u3D13uC9euZ+/6hwrnVW+vVO/d9/b9w0Kv5qF/Xe4P1RaQymOep/5J0CCO5c0SfFfVS8uR8ENhsC+kNKrV122aUpyHyLi3LoJwZJtrxVf0ERSAFNiUhpywBAqUlh55tntaZY7CuCvUsWM41vUSzZ+jvefbZPo+T0f44gEASCwFZDYCKSDRxaU5YZWlOdvQFhkQaxzViBLHOIjW0xWMZY8jYa8xIKbHlkji7X+lkW8tqM9TaPMhEgWQbMJeeuT/my3gf3ecoVq1xbiZ21Psf8ECCYc6HnZq/eCd4RWueHd2JebgR4HlnUkkKK59JGj5V9NEeRbNZ3XjamlPGaseaHKSHWI2HUqKlyvHWs8VHbWopb+XgzmcO9CHOy5Un/ZGoRkk1OTH/VbwX5HQSWCwF9TJ2jcr5I/eyoPG7E/YlJtkHCPCBzW2lODQrpQOdXdbDlGsaKbZsrc0CRmkVo0PJAo45w7brrrs1lTX4XIW/zq5GNixmuXJZtSWN7M4IkC+d6H6ZesE7svvvubW5z3y1/vfOy2dNT51xJTTP4oR/6oTYXM6uKb/ZaT/lmQYA1mPLPAqF2KVik8WgYyZY/pNmiZ5TVpkKZIsVFnKeSHSqQbGFMXzF9Dakuucv7rN62QlwEki0/8mZaG3dx07sWqQ5maVt5NwhsZgT63ymDjikpvmXGVB6UpryZIsdzpvofeHiPolD4wbV2PHOKz5QX/MW7wpka4xS/9/uHdxiRTNsTnhzUD8Ob1xTdmnrsmfgpWb3rcI/ykmHIFDunscFCte6ZvjhvI9HEJFvmAWlu8l3ucpe2pZU51FWoPkj5PRsCMOVaZs6zxaYsemS+6iId8mj/T9p2i3BRAvQ/vkXK6zLnBc46G54M2oJ5wivNZZ9nWeXFXEHzHU1fMA897svzQdzgYw0LCx6aj33llVemr50P1Il1kyCgf7JWBm87O5UQuhblGEay3bvmmmva+hDcwWuMd9+6IRZvQ7L1sVdccUVbcNM6HyXMCmc+NyXcoriLy5Pxwfo9tvNSJzmCQBBYPAT636bf9T9504kEW88IF7HALBnEwtFl4PGtI97WubJejfWKEGpHxVfr1Fi3hpFWX8ZgxFBknR2LENcOCoWQd61RYXqsNMictSON/8lG1qiQZv2Pi+r7qwy1vo/1Iayd5bRwrR1+yK0Wu1W+eR4Tk+wCjmswoLkK244IsMhVFW6emd4KccPRYk7btm1rbm8WUKvVzxep/PJJ6WIROQOq7cuuvfbaEO01rCQYs16aMoBgWy1fR6Vj2YhDfmgILUZmpW4uzFwDdWie5ZgdATgaqAwgFjrjuYBss9LlCAJBYGUELJBJ6at/WiRPG3324Jxs9wiST3ziE5vHCmFSnimsubsrB8u2aWIs2HZZMGWPsCscQdGOFSz3i7LwmfHB4pjyZB2fjAsrt9c8DQLrjYBvkpWXEgw5RXKRZf2RZwypDGh4ByUfoo3UWh/CYozkPZyvSDjCLDwrsTWa9F8Ir+c4Ai8bHnkUheL0nPeOdEyBY5HWxyHg+jlXi09b1JES0RQa3jHSpWBE+C147bl7SD+lpHjFg9jz/iE3OfVDLNd4lUVkkXty9LzXt5qKZGsMOlGmfFZWrsLIoAynM12bT8UcTG5ju+22W9sCanD147VJZe1i8YHapmiHHXZo25zF4rY22PqedDhWJzc9g9Boy7P+Ctprk9LksVgETScpX7b209lRvqUPmBzLwTcQbCusP+QhD2kr+HPPN3DkCAJBYHUECFdW4dY3cbteFO+qYSRbf2mhM27V8szFnQHDtpLmX5sexIuNAEwgJMDaocEWkrYiZKUhK9iTelFINoHcwnP77rtv1u1ZvbkmRBBYVwTIF+Q3ZNMikYg2RR8CXe7WdmG59NJL2+4unuN75Hrb6fK40Rch0OJgWDNlRRys1YxurMaIN5duYXlesiALwxMHIRcnCzjCjDiTdcUjfqRcH6iPI2da/8l2ymRMLt7epbDUFyL23rXjj12m7CBFXtKvyoP7dqlhpHAPsWfRRrznPTZMTbK1CAUFRBFt7kHM+8CKoD3dNwNTLl/22LXQmcWOaI8WyeVtWMnUt49Dvi12ghz42Giw0haGIbbyPZjpmGgCCVHcsg888MDtnd4iYCoPhFkCIEurdRp0zFadL23oyqXM00EEdPi0sgY76zDYIo81i8Y5RxAIAuMhQPhjvWAAQEZZRRalz2SxIWSW958S+e4Jf+QnFhbCLWGUBxMZi8WGe6QyGFMp4QmOFsFErAmqPIqQ23kLjavVgPRZ23fccce2PaL/FwH71fKd50FgKyDge+R2zZrMgs1zhgVYH8NYWm7b+hTGPduRItFIuT4LgbXtqW8aL0FUEWiyICsy7ztejpSByDN5hjzoXcYCRiJkHa8xt5uXLnlHOHOqkWFE2dxpiz++6lWvajIlfoFgM/BKG89UDoRe3J4jzkg50m0MoJg0DljbwpzuUhQog/IyVs27b5qJZGuQCmo+0SmnnNKsrla4tBe2ws0785vtg9AIuE0cccQRbb77SSed1BrjohPsqgf17YMzXxg52H///dtexz7mHOMjAEeuLzohboAWGDvssMNa56YDWrRD50oziBSam6/+ebXoG3KMj0B9PwYWc7D33HPPNoBs1Nz78XOekEFgsRAooc70JeST0Lfs8oj8E3i5W+pzi0wrqwVojzrqqKaM28hySpsgSyl817vedaFc9RerhSY3QWBjENBvIJiIKbJLZqfI87/dDHy/+hQKPEQXIbUdH1dr01Yuuuii7SRbOH0RDihOnjcIM2s3TzzEV5/AYIT4kg1Zxcm3lIXcwG1JahGyMsiRG3nmsJCbImm+NmKN6JcHpzIg0RaFthuDvFFI2n1B+vIlDIUmTsXtnAKS2zsFpvQoJ3GuefeXM5NsGWSCV0H87c0fYtE644wzWgUCc96F2JimujapwkZj0QDPOuusRkwJ2GeeeWZzhdDwlulQHo2d9olwYz91buQ+JgSxBINlKtN65RV2ZaWgkbNqO6Kl46MVLEvGeuVn3HTkW90S/iiIKAV4YOiYWWB1sMLkGI5ADQZcqY499timYHvAAx7QBoNFscANz3nuBoHFREB/w/JCALMAGiOAcWmZ+yF5Z3UynvIYosgkxLIM2c6RRYcssVFllK6+nuxifZanPOUpGe8X8/OYKlfkfGsAsD7WwlYi8pvF0sl9F+lCctbiQK6saM1zo78KtPgpn5HAWjXaFVlEnNb60LZZWhE16XKBRka197U+pAVDxFCZGFvIUat914xxyCa3aV4x8ifPg4d41CFSzKNGOISWIpLrtfUs4Gv6H+WdOBFSZJxVWH5wFe+QXRjRrAvB8r1t27YWBulGztWb9NQjBSF3b9Zxcq6+Cy/AfUq21cbk6eijj25tCSm3BSBSrL9D/LUD8Un3+c9/fuv3EHCGXUoDuGmnMFB+RBzpZ2FHuKWr/NqKd+bNSWYm2VWBKkWhCIq0xxZEIyjyqefyqiCrNZKKa6tcYaIBayi26bCvJ5dgmhgfsYa0jId6JuBo1LTrtvFg5bQytoatXMKkPXyvduGgLRhMzMtDUO985zu3Ldu0DZ1Cf4BZ1Dah4zQI0UKa6kBBgDRy1Sm3nNT5TXUOC4O0QcHikRSUvhWEwJSRZfFgWdT2mHxtbQTIJIR+YyvLKitMWUKWFRlGCxYiwjBPN1P09BeUshb0mbfAuBJu0jb/Xb9Pwc7wspH5WSmveTY5AggQYkWpQ2HlMIaRW5AlrsfIIGKzFvUubmki7+Lvj4fGTaQL3yBT4hi+dYSKDNIPO3lJb/mGvkSZkTRpcVtW7rWW0ZUZJzDVslbKdmXAQFI9H3XAHUFFYs1HRtSH9XfioCgoEs9VnPLOHGpzn7lsew+RfuMb39jwRZrlg1wib+QVRFX5EVXtQj2xUiO4CHBNiYEdRQxDEdkQYTYVxjpDlAg1N5uMK13T43hw4kCMtfKlL+HGzupNiaB94Zu8/hB3ccqX/gcRpwyQV1ZxeaMEUE55opghk1LAKt+8PW3XjGSreJVHI6HRKzx3YdtKHH744c3sDwhaJgCt1FhGNaJlv6/Mys7qp8HRPCOhtkJj/de4aGJ8LMuOj/zrIHV8Fiw46KCDmuLFNkQ+XloznVa1hWUv76Rts9qCwcBgwfJv0Rtzm60gbl4JJYWOZVmwkU+ngVYnduKJJ7bFb+51r3u11SitQK6z1Omq9612FD7KbmsMA4K5i/a3NX+RF4ABwiBb38VWwyjlDQJriQDLLmvMfvvt1xTYLBrL/m2RsQi4hEWCMoHVOKFf3agDpmQXC2DyHLDYkPwsy9i1UbgtU7rqEvFBeBEX9Ytk+U2eM7azKCItyA0rpvu+P2Hc005ZLpEu8bGOIm9+u4cECY9UkovIR8ib//vEuUg2wl9TU+VH+uYF8wBDNCs+cUoLkSuLJ/nKc+l6JowTUSejyxPDgfxKR7ktEkamNX4rk/iEReCEKQKJACKyCD8Lr/zXHGWET1xwGiTp8mKtBZiQn31XRRSRSGXynnSs3yC/4pUHp/Ig2cLA3/o4rmXhFR6e3KiV5ZxzzmnWZ96S5A/3pKd81lfSz6hDc6kRXCevGeRX36qMVvym7HvMYx7TvGw88y5uY5sseZEPa/d415WXC15AMWiqIVkI78EPKQ/Jwwi39Yi4p8NBnbO+wx0WcNq2bVvLC6LOiEf5aOVz+eHtIyyZ6vTTT287MiD5CLw0zAVHtLUZmMFUPY2qm2m/1TUl2ZUJjV1D1pgIkeZpIts6YAVkrVPxGlQNeBq0czMdVSZXDZdFkuZEg77f/e7X5rBzp/a/hkzzpCFtpkP9smrrqCxmQMNt1VHbe/jgfIS0ZLRncOq3BzhUm6jrMmIj7/1Tx2qwQkR9Hzw/EGvz2I8//vjW0SGqOtllPQxOBi7fOsXK7W9/+7bSr31ruf9o7+UK3cdmVD2Pur8I+FTehl3dq9MgaGCkgHzEIx7R7bPPPs2tEsk2V4iGvC9ILELZkocgsMwI+PZ8dwQ1c4QJfsYb40yO2RGovo0w+7CHPax54jAWIAOe5dhcCJDlkFgnEoRoIXbkO0YTlkkkjjXTbwTGuGa8xwmQKoSqppEyyFF8kYn8RgLJyb5Rc2cRNERvJZKNMDoQXtZLY6z35Atx8j4XZ3GQObhDm8rGBZqchSia96sNUxRIV17IX/LvGWKNqJLfEWf38RvE0G/EzH1ltiaVBblwHO/KB9LsNzIoHWWWJxjW4XuRFwoqirQ69FXyDTdYOhFT8VKwuS9tBNU9hJHVW/5cKRMqjN/cuJFeuLACyxcLNFLKS4bspn7kHx8RB6tzKQqQenWE5yHjnvESUh4yrf9540qHy7nwygUXFmZYWNxRntSdvHheShjGx1IycGVXX9XPaEPqRzmVWZ6lpc25yqOyIPDKr4wUB0g57IX3v3oim8qzNHhEwEaZ5Usc/bqpupjmOheSLSNAARoyoSBWozvkkEMasUS6zTdl6aIhUUCNRUNSqSpPw5r0lKZ3Bq/rFU/lWxkM7LQuKpRQbVsOZIqlksKBK72yq2zuDxQO8r0ZD+WCCe2ejs2HTWvGJdr8XdtSHXfccU3T5KP0AemwdZowLVz79ThNHQ++M/h/P/5xfq/2fuXdQKRj9ZFz6zOnzgKB3IMRa9uc0LDplFgxhRf3Mh+FjUHZoOAbp2GkVLrjHe/YymwxN3vD6hB1cDpu38Gw+h6nPvphKv3Baz/MqN+D79T/o8L371edG6gMDjp6Llg0rAR8e177/gn8XK5sVWGQ1l9Ix5kjCASBtUPA90kY9A1abdx36Lsk2Od7mx7n6hcRLuO5PbGt5I64wDzH5kMA8eRaTKbnMk1O8y1RqBvDyLMID7JiTEeiyH7IkTER+UZiBkm29iKM8L5LsiLChqwiSqNI9sUXX9xIqbBkbSQdkSdHiA8Jlmfpkq8YsvwmZyJ3xmvyFp4inLwi6TxEKLxdyaxkUWUVR59kI/OIPFlfGDjIa5FspFV6jEgs3ZQR0kMihYNDHb4n75OVcKc63BcOMZdOyVPyD3PkXx7xp2EkWxnkkSxGJhEPzoFcwsz3Kj1yCBxrfnR93wgwmZ0novAsyJQg8JIH9UkJ4X+EnJyrv4WfcDxu5Fn5hdMOyLnqStzqXlpOdYYsI+HSEreTp4BwZET4lEu78sJRvVLkaHvypO3BUj54JmgT0tY+1SMCDRNtV94Qd1c44KLy2q+bqotprnMj2f3MaLi0LCpVI2W650LKuoVkIJ7m7CLhzPhcZS2eYaU65nzmfkBrAP1TZff/93vYvX6Yweer/d9/d1j8Gh4tOe0NDa68E55tYcVCZZ9OZeRCZUGzU089tZVFY9Ch+DC30qFT0zH4yGiLuI7zcDCHn4WbAoaVm/WTVZc7yNOf/vQ23YC2TOfo41utXvrP1fGs9TzO+zSQCBVNHKs9oY7nxqGHHtpcFffee+9GsAgjlAuUTDoTH7/5PTqfzXro1HSoXMCQalNICLz2djVdgofD/e9//yas8ezgTkQJxdOB1lnH2q/TYd/i4PNh/w9rCxVu2LOV6l2fRAtMq8wFyvoT9relTCDIUyRSoPBS8P0rrz6OooWm3ABQA9pmrfeUKwgsAgJkEMI6F0HjMYW3PoUQ7iDg5RgfgRKKCdSwtNCZsa6mA40fU0IuEwLq3TiOZKtrpI8cR5ZF4opk+65YMMlqxkiyP1l3JZKNWBtvWTzJRcjWaiTbGMyAIU9OJK1kaiSLBVN85EayOjlLHuSLkkB5kENEUDgnV2UkTRnMwUY+ETzh3e+TbPlDyBA0B7IOjyLZSJxyFWGnfEDkyHys330iJy/k4mEkGzEXHt64g3J5l/yAgMJaHQwj2fJA7pKu8iOjSLY8kK1Y56UJb9bdwkV55EmZYEK5gpD7H58jyyOs8iI+fazyCStOWIpPnZJ3/E9Wkpbnnqkj8VRa6s8zygjyUXkaVHruk9fUsVOe4AJjdYPkKyPFgrjlS33AFU5+V/nUI2zgUIoHedGeBuumZXDKP+tCsgtAFUbDBAQfHY2RSkZGWPYMfoRuZMvv3XbbrVl8LFqCiCOsrv3f7tVZzwav9byug+/X//3ng3EMhhHWPaSQEC2v8izvykCgRhQpFDQ6nVJpWRAOWDi34lFl95GYo0M7pZOgTOFKzJUWpsgo8s3yWdY/ltBRdVN1VM/79Vn1Neraf7cfpuLo3+uH7adVbYGFXlvQBiiSCCCs9cgjt2CdHIFPB1Ika7O3hapzg5XBy0Cng6R0o0yjmEJIYVWEVJ0j4OrcYjp93Pv10f89Kky/nvph6n7dGxXXsHDCypf8yaf8WrxQ/rVdngoURRbuIAwYIGlUdfJlRdvs9b4V+7eUeTERIEz7/ijEKbx9n7aIIYjpl3KsjoD+ClYsR7bLse6OPptRhCCrX8uxeRFQ/8Yv5ASpQVqKwPVJtm8NCUR+kCWkxXemjRgLPROXOFg0kVAWyXL1JisjwquRbAQXMRNX/5RHchZihXwjyghzkWzEr7zHEEMEkDzGMi1PSBrZDPkqko3oedYn2WUpLZItLZbTItnKI3/jkGytRr6RTIRZeRy+N3HIMwwRSfnCI8Yh2bgHWYu83SfZ5V1J/kaWnYNTVuUBqcbT1GUfY/nyjrzArRSZZLp+nMrif/XLgu8d1mZpwaXK6aqceAD8+jKSZ9KTZzgoS1nfxyHZ+n3tlDIFxsg0K7u6QrLlTd1VGktJsod1OyrFx4ZoaayIB02MD4f2q6yCLMQm0ztZuEadXG49E87veqf/u+6NexVfxVtx99NnibUCNCJNQ6PBcd/w4XLN0DCVUaeTYzQCPijaOh+kzk5HQvulo9TZ0oCxalpkgbVQ/Q2rj37dDP4efGewDfTbyajfg+/U/9IiaJgWQfigNdXZ+Kh9xD5yHRyCqYPI8T0tKeu9+Xs6XZpHHaGOj5sVbTbvBVsD8mYorPvXcepp3HYi3n7YfjqjfluYA4mmPKEtNwDQ5iPUBhYDlE7dYKIDzxEEgsDGIWCcISybG8hjimLsmGOOaQK4+77REvo2LpeLlzJMnIwkxuQjjzyyTfeiYOSZpP8ui9Ti5T45WksEjNksirxMWRXJa74bJNvYjSCTeRAqJNDYR6Y3FiJPCBtSRt4zXQrJ9pvMbz4x+Yj8TOYrko30iKcO3AHZRY7IjIMHuZuXBU6hzTLiiH8YyUbEye7KRVZHcpFsJE5+yHHckxkGyXV9ki1tcSPTZDvjPtfj1Uj2KGup/okbszjKGCdP8KPQgAHZ2P+DJLvvLi6vyLUrGXQYyUZ21Z+8wpObtHKLtw7ffJFsPK1/qPM+yRZWW5A36cor/OBTygj/qw/PlUd9lFzk/SLZ5OXB/sRzeVA/8kRJQt4qki3voyzZ0pcmuZIHhnrD1eSN3LlpSbYKA1ydwFbZGrsK0rh8uIRwA+CwU8Madn+1e96b5t3B9wjQPi551TjlHaFWFqey5RgPgWoHrtUWdHTags5aR+fDWqluB+tnMOxKdb7as9Wea6fagnwaNHQmBox+W0h7uGVbqHqHk44VZrCDoe8Kpr4zdTmqDkbdX+mdahverbPuTXJV7/opbVS+tVnlqO8/dX7LOs+dILARCFRf41slGNtikKcUzynzic1tNN74dnPcJJ/pz1h+eGPx6uGpg2hTKBqTg9fWaS2+IcQEQUaqyTvuFclGdIyniAsXZKQaKScfGxspabgKl1EK2SH3U7BTqiNRwiDfrMhI+yiS7b60Bg/pWCtA+uJDOBFX1kpedKza5Ar5NtYj9PKJiFsNHEEnhxjbEVHPPWPJlienOJVJnMhbKdnlu0+yETpygW+FxVu8SLYy6of6h/zofxB5GElX/uFHHsItkEXYllxMSVBzspFGRF+YPsmm9PBuzV1Ghv3PEGCao3ScDIOIfh3yg9B6NopkI9WUbA64U5BQRsg/rwVYKLN44Apn8cEQLv0DVtoVo2XlSR2KzzN5RtRN0YULYo2sy1uRbO1BHUgbHp7zAIAXrLzHgKs+xCnv2pH86cfkf1jd9PM5ye91cxefJFMJGwSCQBAIAkEgCASBeSFA8CNgEfbt9mGal6lpFiklhBPW+ooyAqdzsx5VvroqOyGUQG8tGetmmP5kDRWCMusQoXozY7JZ63rWciE7yHVfIUUR43/fld9IISJLCcP4VO1KGPc8Q1Kdnnmv7nvXfe+573dfkSO8tud+nxRWuTxH4Cp94RBa+XaKXx4drmXAoSjwnufikKb35KvKK11nlV36wiDrrMEIG0u9fIvLc/HIg3v9vPfLVHl3LSwKD+k5vCv/hYf3YVTpuBZmVReu3veuvHiXUsP/rsosHddhWAqj7MOeuQcrYfr5KzwZSeoZnAtL9VJYtBf//x/x1bsUHM7Km3gKu8JF2Zzeq/JWnqRdz/vvKqd44SBPnhUmsgGrwreft2l/h2RPi1zeCwJBIAgEgSAQBJYWgRJSWeYuuOCCRiSRbWtqmG9smgorEeGQQCY8Qc+5mQ7lUTZlJGAiC6ZmHXjggQ0LmFiDwtQY7paEV2E3Gw6bqU7nXZZx6l6YwXB1r679fNa9wXf6YSb5PRjfqHj74QbDrPQMkTM91BRB7vMsriz5iN6sRz/dWeNa6f15pVPx9tOue66jjn6Y/u9++FH3K0w9r//715We9cOt1e+Q7LVCMvEEgSAQBIJAEAgCS4cAwsgKxDrLfdLuANzIWW5dWXHtBoGIW+k2lqgAAAQ2SURBVPTJXEKCdBHvuiKqRcRXu5awN+51tfgq7bqKt/9O3Xet/CoDi715oLbpYcXfb7/9GrFWdos42v+ayya3T+Ta+zmCQBD43qJkLLIUU86yKAebIFAIhGQXErkGgSAQBIJAEAgCWxKBIqXcMZFJ8yZtx8iVHNm87W1v2+YiF/m0JaNt+sxNNp/b4ojPetazGlm1EKITcXUO/q7/VwvXf3+Sdypspe1/i3JaKPLkk0/ujj766O6ggw5qq6zbwUOZzLO2UjirtS1VlcX8RMQBJog5jHIEgSBwEwKDSrKbnuRXEOi6kOy0giAQBIJAEAgCQSAI9BBgsTVfzxw9cywtlIOosnJzJ7/VrW61/dxhhx26W9/61u3ccccdb/bb/8POfvhhz9cinn4a9VteK+/f933f17YdfPjDH96df/7521fZVWZlj9W61yDyMwgEgSAwIQIh2RMCluBBIAgEgSAQBIJAEAgCQSAIBIEgEARGIRCSPQqZ3A8CQSAIBIEgEASCQBAIAkEgCASBIDAhAiHZEwKW4EEgCASBIBAEgkAQCAJBIAgEgSAQBEYhEJI9CpncDwJBIAgEgSAQBIJAEAgCQSAIBIEgMCECIdkTApbgQSAIBIEgEASCQBAIAkEgCASBIBAERiEQkj0KmdwPAkEgCASBIBAEgkAQCAJBIAgEgSAwIQIh2RMCluBBIAgEgSAQBIJAEAgCQSAIBIEgEARGIRCSPQqZ3A8CQSAIBIEgEASCQBAIAkEgCASBIDAhAiHZEwKW4EEgCASBIBAEgkAQCAJBIAgEgSAQBEYhEJI9CpncDwJBIAgEgSAQBIJAEAgCQSAIBIEgMCECIdkTApbgQSAIBIEgEASCQBAIAkEgCASBIBAERiEQkj0KmdwPAkEgCASBIBAEgkAQCAJBIAgEgSAwIQIh2RMCluBBIAgEgSAQBIJAEAgCQSAIBIEgEARGIRCSPQqZ3A8CQSAIBIEgEASCQBAIAkEgCASBIDAhAiHZEwKW4EEgCASBIBAEgkAQCAJBIAgEgSAQBEYhEJI9CpncDwJBIAgEgSAQBIJAEAgCQSAIBIEgMCECIdkTApbgQSAIBIEgEASCQBAIAkEgCASBIBAERiEQkj0KmdwPAkEgCASBIBAEgkAQCAJBIAgEgSAwIQIh2RMCluBBIAgEgSAQBIJAEAgCQSAIBIEgEARGIRCSPQqZ3A8CQSAIBIEgEASCQBAIAkEgCASBIDAhAiHZEwKW4EEgCASBIBAEgkAQCAJBIAgEgSAQBEYhEJI9CpncDwJBIAgEgSAQBIJAEAgCQSAIBIEgMCECIdkTApbgQSAIBIEgEASCQBAIAkEgCASBIBAERiEQkj0KmdwPAkEgCASBIBAEgkAQCAJBIAgEgSAwIQIh2RMCluBBIAgEgSAQBIJAEAgCQSAIBIEgEARGIfD/AOd2y5TElh32AAAAAElFTkSuQmCC;" parent="1" vertex="1">
                    <mxGeometry x="-92.5" y="-550" width="985" height="600" as="geometry"/>
                </mxCell>
                <mxCell id="20" value="AS" style="whiteSpace=wrap;html=1;" parent="1" vertex="1">
                    <mxGeometry x="20" y="470" width="120" height="60" as="geometry"/>
                </mxCell>
                <mxCell id="21" value="相关属性的数值" style="text;html=1;align=center;verticalAlign=middle;resizable=0;points=[];autosize=1;strokeColor=none;" parent="1" vertex="1">
                    <mxGeometry x="-60" y="420" width="100" height="20" as="geometry"/>
                </mxCell>
                <mxCell id="22" value="类似管家的作用" style="text;html=1;align=center;verticalAlign=middle;resizable=0;points=[];autosize=1;strokeColor=none;" parent="1" vertex="1">
                    <mxGeometry x="250" y="200" width="100" height="20" as="geometry"/>
                </mxCell>
                <mxCell id="28" style="edgeStyle=none;html=1;exitX=0.5;exitY=1;exitDx=0;exitDy=0;entryX=0.5;entryY=0;entryDx=0;entryDy=0;startArrow=none;" parent="1" source="29" target="7" edge="1">
                    <mxGeometry relative="1" as="geometry">
                        <mxPoint x="650.5882352941176" y="240" as="targetPoint"/>
                    </mxGeometry>
                </mxCell>
                <mxCell id="27" value="触发能力" style="ellipse;whiteSpace=wrap;html=1;" parent="1" vertex="1">
                    <mxGeometry x="615" y="100" width="120" height="60" as="geometry"/>
                </mxCell>
                <mxCell id="30" value="执行任务" style="text;html=1;align=center;verticalAlign=middle;resizable=0;points=[];autosize=1;strokeColor=none;" parent="1" vertex="1">
                    <mxGeometry x="380" y="380" width="60" height="20" as="geometry"/>
                </mxCell>
                <mxCell id="32" style="edgeStyle=none;html=1;entryX=1;entryY=1;entryDx=0;entryDy=0;startArrow=none;" parent="1" source="33" target="7" edge="1">
                    <mxGeometry relative="1" as="geometry"/>
                </mxCell>
                <mxCell id="31" value="外部事件" style="ellipse;whiteSpace=wrap;html=1;" parent="1" vertex="1">
                    <mxGeometry x="780" y="470" width="120" height="60" as="geometry"/>
                </mxCell>
                <mxCell id="33" value="GameplayEventData" style="text;html=1;align=center;verticalAlign=middle;resizable=0;points=[];autosize=1;strokeColor=none;" parent="1" vertex="1">
                    <mxGeometry x="590" y="430" width="130" height="20" as="geometry"/>
                </mxCell>
                <mxCell id="34" value="" style="edgeStyle=none;html=1;entryX=1;entryY=1;entryDx=0;entryDy=0;endArrow=none;" parent="1" source="31" target="33" edge="1">
                    <mxGeometry relative="1" as="geometry">
                        <mxPoint x="708.8822271688109" y="474.2919343904159" as="sourcePoint"/>
                        <mxPoint x="534" y="419.99999999999955" as="targetPoint"/>
                    </mxGeometry>
                </mxCell>
                <mxCell id="15" value="动画结束，没有 GameplayEvent 触发" style="text;html=1;align=center;verticalAlign=middle;resizable=0;points=[];autosize=1;strokeColor=none;" parent="1" vertex="1">
                    <mxGeometry x="610" y="360" width="220" height="20" as="geometry"/>
                </mxCell>
                <mxCell id="35" value="" style="edgeStyle=none;html=1;entryX=0;entryY=0.5;entryDx=0;entryDy=0;endArrow=none;" parent="1" source="7" target="15" edge="1">
                    <mxGeometry relative="1" as="geometry">
                        <mxPoint x="860" y="349.99999999999955" as="targetPoint"/>
                        <mxPoint x="534" y="383.7823834196888" as="sourcePoint"/>
                    </mxGeometry>
                </mxCell>
                <mxCell id="12" value="播放动作，等待 GameplayEvent 触发" style="text;html=1;align=center;verticalAlign=middle;resizable=0;points=[];autosize=1;strokeColor=none;" parent="1" vertex="1">
                    <mxGeometry x="364" y="450" width="220" height="20" as="geometry"/>
                </mxCell>
                <mxCell id="36" value="" style="edgeStyle=none;html=1;endArrow=none;" parent="1" source="7" target="12" edge="1">
                    <mxGeometry relative="1" as="geometry">
                        <mxPoint x="477.1999999999998" y="419.99999999999955" as="sourcePoint"/>
                        <mxPoint x="486.8000000000002" y="509.99999999999955" as="targetPoint"/>
                    </mxGeometry>
                </mxCell>
                <mxCell id="29" value="TryActivateAbilitybyClass" style="text;html=1;align=center;verticalAlign=middle;resizable=0;points=[];autosize=1;strokeColor=none;" parent="1" vertex="1">
                    <mxGeometry x="510" y="220" width="150" height="20" as="geometry"/>
                </mxCell>
                <mxCell id="37" value="" style="edgeStyle=none;html=1;exitX=0.5;exitY=1;exitDx=0;exitDy=0;entryX=0.5;entryY=0;entryDx=0;entryDy=0;endArrow=none;" parent="1" source="27" target="29" edge="1">
                    <mxGeometry relative="1" as="geometry">
                        <mxPoint x="474" y="359.99999999999955" as="targetPoint"/>
                        <mxPoint x="650" y="140" as="sourcePoint"/>
                    </mxGeometry>
                </mxCell>
                <mxCell id="38" value="ApplyGameplayEffectToTarget" style="text;html=1;align=center;verticalAlign=middle;resizable=0;points=[];autosize=1;strokeColor=none;" parent="1" vertex="1">
                    <mxGeometry x="370" y="500" width="180" height="20" as="geometry"/>
                </mxCell>
                <mxCell id="42" style="edgeStyle=none;html=1;" parent="1" source="40" target="7" edge="1">
                    <mxGeometry relative="1" as="geometry"/>
                </mxCell>
                <mxCell id="43" style="edgeStyle=none;html=1;entryX=1;entryY=0.5;entryDx=0;entryDy=0;" parent="1" source="40" target="11" edge="1">
                    <mxGeometry relative="1" as="geometry"/>
                </mxCell>
                <mxCell id="40" value="直接调用" style="ellipse;whiteSpace=wrap;html=1;" parent="1" vertex="1">
                    <mxGeometry x="690" y="600" width="120" height="60" as="geometry"/>
                </mxCell>
                <mxCell id="44" value="GC" style="whiteSpace=wrap;html=1;" parent="1" vertex="1">
                    <mxGeometry x="590" y="750" width="120" height="60" as="geometry"/>
                </mxCell>
                <mxCell id="45" value="效果表现" style="text;html=1;align=center;verticalAlign=middle;resizable=0;points=[];autosize=1;strokeColor=none;" parent="1" vertex="1">
                    <mxGeometry x="610" y="730" width="60" height="20" as="geometry"/>
                </mxCell>
                <mxCell id="47" style="edgeStyle=none;html=1;entryX=0;entryY=1;entryDx=0;entryDy=0;" parent="1" source="46" target="11" edge="1">
                    <mxGeometry relative="1" as="geometry"/>
                </mxCell>
                <mxCell id="46" value="外部" style="ellipse;whiteSpace=wrap;html=1;" parent="1" vertex="1">
                    <mxGeometry x="120" y="690" width="120" height="60" as="geometry"/>
                </mxCell>
                <mxCell id="49" value="通过tag" style="text;html=1;align=center;verticalAlign=middle;resizable=0;points=[];autosize=1;strokeColor=none;" parent="1" vertex="1">
                    <mxGeometry x="530" y="660" width="60" height="20" as="geometry"/>
                </mxCell>
                <mxCell id="51" value="配置GE 来实现CD 和消耗" style="text;html=1;align=center;verticalAlign=middle;resizable=0;points=[];autosize=1;strokeColor=none;" parent="1" vertex="1">
                    <mxGeometry x="210" y="470" width="150" height="20" as="geometry"/>
                </mxCell>
                <mxCell id="52" value="" style="edgeStyle=none;html=1;exitX=0;exitY=0;exitDx=0;exitDy=0;entryX=0;entryY=1;entryDx=0;entryDy=0;endArrow=none;" parent="1" source="11" target="51" edge="1">
                    <mxGeometry relative="1" as="geometry">
                        <mxPoint x="414" y="559.9999999999995" as="sourcePoint"/>
                        <mxPoint x="414" y="419.99999999999955" as="targetPoint"/>
                    </mxGeometry>
                </mxCell>
                <mxCell id="53" value="等待额外条件" style="text;html=1;align=center;verticalAlign=middle;resizable=0;points=[];autosize=1;strokeColor=none;" parent="1" vertex="1">
                    <mxGeometry x="725" y="410" width="90" height="20" as="geometry"/>
                </mxCell>
                <mxCell id="54" value="PreAttributeChange" style="text;html=1;align=center;verticalAlign=middle;resizable=0;points=[];autosize=1;strokeColor=none;" parent="1" vertex="1">
                    <mxGeometry x="-120" y="600" width="120" height="20" as="geometry"/>
                </mxCell>
                <mxCell id="55" value="PostGameplayEffectExecute" style="text;html=1;align=center;verticalAlign=middle;resizable=0;points=[];autosize=1;strokeColor=none;" parent="1" vertex="1">
                    <mxGeometry x="-130" y="620" width="170" height="20" as="geometry"/>
                </mxCell>
                <mxCell id="56" value="&lt;span style=&quot;color: rgb(77 , 77 , 77) ; font-family: , &amp;#34;sf ui text&amp;#34; , &amp;#34;arial&amp;#34; , &amp;#34;pingfang sc&amp;#34; , &amp;#34;hiragino sans gb&amp;#34; , &amp;#34;microsoft yahei&amp;#34; , &amp;#34;wenquanyi micro hei&amp;#34; , sans-serif ; font-size: 16px ; background-color: rgb(255 , 255 , 255)&quot;&gt;GE可以看做是一种改变Attributes和GameplayTags的容器&lt;/span&gt;" style="text;html=1;align=center;verticalAlign=middle;resizable=0;points=[];autosize=1;strokeColor=none;" parent="1" vertex="1">
                    <mxGeometry x="30" y="920" width="420" height="20" as="geometry"/>
                </mxCell>
                <mxCell id="57" value="&lt;span style=&quot;color: rgb(77 , 77 , 77) ; font-family: , &amp;#34;sf ui text&amp;#34; , &amp;#34;arial&amp;#34; , &amp;#34;pingfang sc&amp;#34; , &amp;#34;hiragino sans gb&amp;#34; , &amp;#34;microsoft yahei&amp;#34; , &amp;#34;wenquanyi micro hei&amp;#34; , sans-serif ; font-size: 16px ; background-color: rgb(255 , 255 , 255)&quot;&gt;GESpec的概念类似于创建一个GE类的实例。&lt;/span&gt;" style="text;html=1;align=center;verticalAlign=middle;resizable=0;points=[];autosize=1;strokeColor=none;" parent="1" vertex="1">
                    <mxGeometry x="560" y="920" width="340" height="20" as="geometry"/>
                </mxCell>
                <mxCell id="58" value="FGameplayAbilitySpecHandle" style="whiteSpace=wrap;html=1;" parent="1" vertex="1">
                    <mxGeometry x="1270" y="410" width="120" height="60" as="geometry"/>
                </mxCell>
                <mxCell id="59" value="FGameplayAbilitySpec" style="whiteSpace=wrap;html=1;" parent="1" vertex="1">
                    <mxGeometry x="1230" y="620" width="120" height="60" as="geometry"/>
                </mxCell>
            </root>
        </mxGraphModel>
    </diagram>
    <diagram id="XpEDep1fThdQtdH3oPbM" name="第 2 页">
        <mxGraphModel dx="1612" dy="2384" grid="1" gridSize="10" guides="1" tooltips="1" connect="1" arrows="1" fold="1" page="1" pageScale="1" pageWidth="827" pageHeight="1169" math="0" shadow="0">
            <root>
                <mxCell id="-4jIvJIA9d3lIVQqnTIh-0"/>
                <mxCell id="-4jIvJIA9d3lIVQqnTIh-1" parent="-4jIvJIA9d3lIVQqnTIh-0"/>
                <mxCell id="-4jIvJIA9d3lIVQqnTIh-2" value="UAbilityTask" style="whiteSpace=wrap;html=1;" parent="-4jIvJIA9d3lIVQqnTIh-1" vertex="1">
                    <mxGeometry x="570" y="90" width="120" height="60" as="geometry"/>
                </mxCell>
                <mxCell id="-4jIvJIA9d3lIVQqnTIh-3" value="UAbilitySystemComponent" style="whiteSpace=wrap;html=1;" parent="-4jIvJIA9d3lIVQqnTIh-1" vertex="1">
                    <mxGeometry x="200" y="100" width="120" height="60" as="geometry"/>
                </mxCell>
                <mxCell id="-4jIvJIA9d3lIVQqnTIh-4" value="ASC" style="text;html=1;align=center;verticalAlign=middle;resizable=0;points=[];autosize=1;strokeColor=none;fillColor=none;" parent="-4jIvJIA9d3lIVQqnTIh-1" vertex="1">
                    <mxGeometry x="90" y="110" width="40" height="20" as="geometry"/>
                </mxCell>
                <mxCell id="-4jIvJIA9d3lIVQqnTIh-5" value="&lt;div&gt;一个可激活的能力规格，托管在能力系统组件上。这定义了什么是能力(什么类，什么级别，输入绑定等)&lt;/div&gt;&lt;div&gt;&lt;br&gt;&lt;/div&gt;&lt;div&gt;并且还保持运行时状态，必须保持在被实例化/激活的能力之外。&lt;/div&gt;" style="text;html=1;align=center;verticalAlign=middle;resizable=0;points=[];autosize=1;strokeColor=none;fillColor=none;" parent="-4jIvJIA9d3lIVQqnTIh-1" vertex="1">
                    <mxGeometry x="1430" y="80" width="560" height="50" as="geometry"/>
                </mxCell>
                <mxCell id="_12JZrvVxvkap0576MRR-0" style="edgeStyle=none;html=1;entryX=1;entryY=0.5;entryDx=0;entryDy=0;" parent="-4jIvJIA9d3lIVQqnTIh-1" source="-4jIvJIA9d3lIVQqnTIh-6" target="-4jIvJIA9d3lIVQqnTIh-8" edge="1">
                    <mxGeometry relative="1" as="geometry"/>
                </mxCell>
                <mxCell id="_12JZrvVxvkap0576MRR-1" value="包含" style="edgeLabel;html=1;align=center;verticalAlign=middle;resizable=0;points=[];" parent="_12JZrvVxvkap0576MRR-0" vertex="1" connectable="0">
                    <mxGeometry x="0.2057" y="-1" relative="1" as="geometry">
                        <mxPoint as="offset"/>
                    </mxGeometry>
                </mxCell>
                <mxCell id="_12JZrvVxvkap0576MRR-3" style="edgeStyle=none;html=1;exitX=0;exitY=0.5;exitDx=0;exitDy=0;entryX=1;entryY=0.5;entryDx=0;entryDy=0;" parent="-4jIvJIA9d3lIVQqnTIh-1" source="-4jIvJIA9d3lIVQqnTIh-6" target="_12JZrvVxvkap0576MRR-2" edge="1">
                    <mxGeometry relative="1" as="geometry"/>
                </mxCell>
                <mxCell id="_12JZrvVxvkap0576MRR-4" value="包含" style="edgeLabel;html=1;align=center;verticalAlign=middle;resizable=0;points=[];" parent="_12JZrvVxvkap0576MRR-3" vertex="1" connectable="0">
                    <mxGeometry x="0.1191" y="2" relative="1" as="geometry">
                        <mxPoint as="offset"/>
                    </mxGeometry>
                </mxCell>
                <mxCell id="-4jIvJIA9d3lIVQqnTIh-6" value="FGameplayAbilitySpec" style="whiteSpace=wrap;html=1;" parent="-4jIvJIA9d3lIVQqnTIh-1" vertex="1">
                    <mxGeometry x="1340" y="120" width="120" height="60" as="geometry"/>
                </mxCell>
                <mxCell id="-4jIvJIA9d3lIVQqnTIh-7" value="FGameplayAbilitySpecContainer" style="whiteSpace=wrap;html=1;" parent="-4jIvJIA9d3lIVQqnTIh-1" vertex="1">
                    <mxGeometry x="1270" y="-80" width="120" height="60" as="geometry"/>
                </mxCell>
                <mxCell id="-4jIvJIA9d3lIVQqnTIh-8" value="FGameplayAbilitySpecHandle" style="whiteSpace=wrap;html=1;" parent="-4jIvJIA9d3lIVQqnTIh-1" vertex="1">
                    <mxGeometry x="1100" y="60" width="120" height="60" as="geometry"/>
                </mxCell>
                <mxCell id="-4jIvJIA9d3lIVQqnTIh-9" value="FGameplayAbilityActivationInfo" style="whiteSpace=wrap;html=1;" parent="-4jIvJIA9d3lIVQqnTIh-1" vertex="1">
                    <mxGeometry x="1140" y="300" width="120" height="60" as="geometry"/>
                </mxCell>
                <mxCell id="-4jIvJIA9d3lIVQqnTIh-10" value="网络相关的" style="text;html=1;align=center;verticalAlign=middle;resizable=0;points=[];autosize=1;strokeColor=none;fillColor=none;" parent="-4jIvJIA9d3lIVQqnTIh-1" vertex="1">
                    <mxGeometry x="1040" y="320" width="80" height="20" as="geometry"/>
                </mxCell>
                <mxCell id="stV1CIeg4ScqyAa0e8UO-0" value="Handle指向一个特定的授予能力。这些都是全球独一无二的" style="text;html=1;align=center;verticalAlign=middle;resizable=0;points=[];autosize=1;strokeColor=none;fillColor=none;" parent="-4jIvJIA9d3lIVQqnTIh-1" vertex="1">
                    <mxGeometry x="940" y="30" width="330" height="20" as="geometry"/>
                </mxCell>
                <mxCell id="_12JZrvVxvkap0576MRR-2" value="UGameplayAbility" style="whiteSpace=wrap;html=1;" parent="-4jIvJIA9d3lIVQqnTIh-1" vertex="1">
                    <mxGeometry x="1100" y="170" width="120" height="60" as="geometry"/>
                </mxCell>
            </root>
        </mxGraphModel>
    </diagram>
    <diagram id="Dn8YD0j0zeCRZnQnaciP" name="第 3 页">
        <mxGraphModel dx="1103" dy="2001" grid="1" gridSize="10" guides="1" tooltips="1" connect="1" arrows="1" fold="1" page="1" pageScale="1" pageWidth="827" pageHeight="1169" math="0" shadow="0">
            <root>
                <mxCell id="-YvzQ3wBEwrn5XlmwnoC-0"/>
                <mxCell id="-YvzQ3wBEwrn5XlmwnoC-1" parent="-YvzQ3wBEwrn5XlmwnoC-0"/>
                <mxCell id="-YvzQ3wBEwrn5XlmwnoC-2" value="BP_RPGItem_Pickup_Base" style="whiteSpace=wrap;html=1;" parent="-YvzQ3wBEwrn5XlmwnoC-1" vertex="1">
                    <mxGeometry x="510" y="190" width="120" height="60" as="geometry"/>
                </mxCell>
                <mxCell id="-YvzQ3wBEwrn5XlmwnoC-3" value="可拾取物" style="text;html=1;align=center;verticalAlign=middle;resizable=0;points=[];autosize=1;strokeColor=none;fillColor=none;" parent="-YvzQ3wBEwrn5XlmwnoC-1" vertex="1">
                    <mxGeometry x="490" y="130" width="60" height="20" as="geometry"/>
                </mxCell>
                <mxCell id="-YvzQ3wBEwrn5XlmwnoC-4" value="碰撞触发，判断是不玩家，玩家添加" style="text;html=1;align=center;verticalAlign=middle;resizable=0;points=[];autosize=1;strokeColor=none;fillColor=none;" parent="-YvzQ3wBEwrn5XlmwnoC-1" vertex="1">
                    <mxGeometry x="625" y="220" width="210" height="20" as="geometry"/>
                </mxCell>
                <mxCell id="-YvzQ3wBEwrn5XlmwnoC-5" value="RPGItem" style="whiteSpace=wrap;html=1;" parent="-YvzQ3wBEwrn5XlmwnoC-1" vertex="1">
                    <mxGeometry x="1110" y="80" width="120" height="60" as="geometry"/>
                </mxCell>
                <mxCell id="-YvzQ3wBEwrn5XlmwnoC-6" value="RPGPlayerControllerBase" style="whiteSpace=wrap;html=1;" parent="-YvzQ3wBEwrn5XlmwnoC-1" vertex="1">
                    <mxGeometry x="1790" y="390" width="120" height="60" as="geometry"/>
                </mxCell>
                <mxCell id="-YvzQ3wBEwrn5XlmwnoC-7" value="数据" style="text;html=1;align=center;verticalAlign=middle;resizable=0;points=[];autosize=1;strokeColor=none;fillColor=none;" parent="-YvzQ3wBEwrn5XlmwnoC-1" vertex="1">
                    <mxGeometry x="1140" y="20" width="40" height="20" as="geometry"/>
                </mxCell>
                <mxCell id="-YvzQ3wBEwrn5XlmwnoC-8" value="URPGPotionItem" style="whiteSpace=wrap;html=1;" parent="-YvzQ3wBEwrn5XlmwnoC-1" vertex="1">
                    <mxGeometry x="960" y="210" width="120" height="60" as="geometry"/>
                </mxCell>
                <mxCell id="-YvzQ3wBEwrn5XlmwnoC-9" value="药水" style="text;html=1;align=center;verticalAlign=middle;resizable=0;points=[];autosize=1;strokeColor=none;fillColor=none;" parent="-YvzQ3wBEwrn5XlmwnoC-1" vertex="1">
                    <mxGeometry x="970" y="170" width="40" height="20" as="geometry"/>
                </mxCell>
                <mxCell id="-YvzQ3wBEwrn5XlmwnoC-10" value="PrimaryDataAsset" style="whiteSpace=wrap;html=1;" parent="-YvzQ3wBEwrn5XlmwnoC-1" vertex="1">
                    <mxGeometry x="1100" y="-90" width="120" height="60" as="geometry"/>
                </mxCell>
                <mxCell id="-YvzQ3wBEwrn5XlmwnoC-12" value="表现" style="text;html=1;align=center;verticalAlign=middle;resizable=0;points=[];autosize=1;strokeColor=none;fillColor=none;" parent="-YvzQ3wBEwrn5XlmwnoC-1" vertex="1">
                    <mxGeometry x="570" y="50" width="40" height="20" as="geometry"/>
                </mxCell>
                <mxCell id="-YvzQ3wBEwrn5XlmwnoC-13" value="玩家控制" style="text;html=1;align=center;verticalAlign=middle;resizable=0;points=[];autosize=1;strokeColor=none;fillColor=none;" parent="-YvzQ3wBEwrn5XlmwnoC-1" vertex="1">
                    <mxGeometry x="1890" y="350" width="60" height="20" as="geometry"/>
                </mxCell>
                <mxCell id="-YvzQ3wBEwrn5XlmwnoC-14" value="FRPGItemData" style="whiteSpace=wrap;html=1;" parent="-YvzQ3wBEwrn5XlmwnoC-1" vertex="1">
                    <mxGeometry x="1670" y="70" width="120" height="60" as="geometry"/>
                </mxCell>
                <mxCell id="-YvzQ3wBEwrn5XlmwnoC-15" value="关于玩家库存中的URPGItem的额外信息" style="text;html=1;align=center;verticalAlign=middle;resizable=0;points=[];autosize=1;strokeColor=none;fillColor=none;" parent="-YvzQ3wBEwrn5XlmwnoC-1" vertex="1">
                    <mxGeometry x="1630" y="30" width="230" height="20" as="geometry"/>
                </mxCell>
                <mxCell id="c4jsmkWPk-v0gvGWlSDy-1" style="edgeStyle=none;html=1;exitX=0.5;exitY=1;exitDx=0;exitDy=0;" parent="-YvzQ3wBEwrn5XlmwnoC-1" source="-YvzQ3wBEwrn5XlmwnoC-21" target="c4jsmkWPk-v0gvGWlSDy-0" edge="1">
                    <mxGeometry relative="1" as="geometry"/>
                </mxCell>
                <mxCell id="c4jsmkWPk-v0gvGWlSDy-2" value="寻找" style="edgeLabel;html=1;align=center;verticalAlign=middle;resizable=0;points=[];" parent="c4jsmkWPk-v0gvGWlSDy-1" vertex="1" connectable="0">
                    <mxGeometry x="0.1054" y="1" relative="1" as="geometry">
                        <mxPoint as="offset"/>
                    </mxGeometry>
                </mxCell>
                <mxCell id="-YvzQ3wBEwrn5XlmwnoC-21" value="FRPGItemSlot" style="whiteSpace=wrap;html=1;" parent="-YvzQ3wBEwrn5XlmwnoC-1" vertex="1">
                    <mxGeometry x="1280" y="440" width="120" height="60" as="geometry"/>
                </mxCell>
                <mxCell id="-YvzQ3wBEwrn5XlmwnoC-22" value="表示项槽的结构体，显示在UI中" style="text;html=1;align=center;verticalAlign=middle;resizable=0;points=[];autosize=1;strokeColor=none;fillColor=none;" parent="-YvzQ3wBEwrn5XlmwnoC-1" vertex="1">
                    <mxGeometry x="1260" y="520" width="180" height="20" as="geometry"/>
                </mxCell>
                <mxCell id="-YvzQ3wBEwrn5XlmwnoC-24" value="保存线" style="whiteSpace=wrap;html=1;" parent="-YvzQ3wBEwrn5XlmwnoC-1" vertex="1">
                    <mxGeometry x="2270" y="-50" width="120" height="60" as="geometry"/>
                </mxCell>
                <mxCell id="-YvzQ3wBEwrn5XlmwnoC-31" style="edgeStyle=none;html=1;exitX=0.5;exitY=1;exitDx=0;exitDy=0;" parent="-YvzQ3wBEwrn5XlmwnoC-1" source="-YvzQ3wBEwrn5XlmwnoC-28" target="c4jsmkWPk-v0gvGWlSDy-9" edge="1">
                    <mxGeometry relative="1" as="geometry">
                        <mxPoint x="1600" y="460" as="targetPoint"/>
                    </mxGeometry>
                </mxCell>
                <mxCell id="-YvzQ3wBEwrn5XlmwnoC-28" value="拾取物体" style="ellipse;whiteSpace=wrap;html=1;" parent="-YvzQ3wBEwrn5XlmwnoC-1" vertex="1">
                    <mxGeometry x="1430" y="10" width="120" height="60" as="geometry"/>
                </mxCell>
                <mxCell id="c4jsmkWPk-v0gvGWlSDy-13" style="edgeStyle=none;html=1;exitX=0.5;exitY=1;exitDx=0;exitDy=0;entryX=0.5;entryY=0;entryDx=0;entryDy=0;" parent="-YvzQ3wBEwrn5XlmwnoC-1" source="-YvzQ3wBEwrn5XlmwnoC-32" target="c4jsmkWPk-v0gvGWlSDy-12" edge="1">
                    <mxGeometry relative="1" as="geometry"/>
                </mxCell>
                <mxCell id="-YvzQ3wBEwrn5XlmwnoC-32" value="InventoryData" style="shape=trapezoid;perimeter=trapezoidPerimeter;whiteSpace=wrap;html=1;fixedSize=1;" parent="-YvzQ3wBEwrn5XlmwnoC-1" vertex="1">
                    <mxGeometry x="1610" y="230" width="120" height="60" as="geometry"/>
                </mxCell>
                <mxCell id="c4jsmkWPk-v0gvGWlSDy-6" style="edgeStyle=none;html=1;exitX=0;exitY=1;exitDx=0;exitDy=0;" parent="-YvzQ3wBEwrn5XlmwnoC-1" source="-YvzQ3wBEwrn5XlmwnoC-33" target="c4jsmkWPk-v0gvGWlSDy-4" edge="1">
                    <mxGeometry relative="1" as="geometry"/>
                </mxCell>
                <mxCell id="h9jqTJ2cmiUDGSkyl-eq-10" style="edgeStyle=none;html=1;exitX=0.5;exitY=1;exitDx=0;exitDy=0;" edge="1" parent="-YvzQ3wBEwrn5XlmwnoC-1" source="-YvzQ3wBEwrn5XlmwnoC-33" target="h9jqTJ2cmiUDGSkyl-eq-8">
                    <mxGeometry relative="1" as="geometry"/>
                </mxCell>
                <mxCell id="-YvzQ3wBEwrn5XlmwnoC-33" value="&lt;span&gt;SlottedItems&lt;/span&gt;" style="shape=trapezoid;perimeter=trapezoidPerimeter;whiteSpace=wrap;html=1;fixedSize=1;" parent="-YvzQ3wBEwrn5XlmwnoC-1" vertex="1">
                    <mxGeometry x="1590" y="440" width="120" height="60" as="geometry"/>
                </mxCell>
                <mxCell id="-YvzQ3wBEwrn5XlmwnoC-35" value="使用" style="text;html=1;align=center;verticalAlign=middle;resizable=0;points=[];autosize=1;strokeColor=none;fillColor=none;" parent="-YvzQ3wBEwrn5XlmwnoC-1" vertex="1">
                    <mxGeometry x="1135" y="1090" width="40" height="20" as="geometry"/>
                </mxCell>
                <mxCell id="-YvzQ3wBEwrn5XlmwnoC-41" style="edgeStyle=none;html=1;exitX=1;exitY=0.5;exitDx=0;exitDy=0;" parent="-YvzQ3wBEwrn5XlmwnoC-1" source="-YvzQ3wBEwrn5XlmwnoC-36" target="-YvzQ3wBEwrn5XlmwnoC-39" edge="1">
                    <mxGeometry relative="1" as="geometry"/>
                </mxCell>
                <mxCell id="-YvzQ3wBEwrn5XlmwnoC-36" value="使用药水" style="ellipse;whiteSpace=wrap;html=1;" parent="-YvzQ3wBEwrn5XlmwnoC-1" vertex="1">
                    <mxGeometry x="1175" y="1050" width="120" height="60" as="geometry"/>
                </mxCell>
                <mxCell id="-YvzQ3wBEwrn5XlmwnoC-37" value="BP_PlayerCharacter" style="whiteSpace=wrap;html=1;" parent="-YvzQ3wBEwrn5XlmwnoC-1" vertex="1">
                    <mxGeometry x="1250" y="730" width="120" height="60" as="geometry"/>
                </mxCell>
                <mxCell id="-YvzQ3wBEwrn5XlmwnoC-38" value="ARPGCharacterBase" style="whiteSpace=wrap;html=1;" parent="-YvzQ3wBEwrn5XlmwnoC-1" vertex="1">
                    <mxGeometry x="1835" y="1010" width="120" height="60" as="geometry"/>
                </mxCell>
                <mxCell id="-YvzQ3wBEwrn5XlmwnoC-39" value="ActivateAbilitiesWithItemSlot" style="shape=step;perimeter=stepPerimeter;whiteSpace=wrap;html=1;fixedSize=1;" parent="-YvzQ3wBEwrn5XlmwnoC-1" vertex="1">
                    <mxGeometry x="1425" y="1040" width="120" height="80" as="geometry"/>
                </mxCell>
                <mxCell id="-YvzQ3wBEwrn5XlmwnoC-43" value="SlottedAbilities" style="shape=trapezoid;perimeter=trapezoidPerimeter;whiteSpace=wrap;html=1;fixedSize=1;" parent="-YvzQ3wBEwrn5XlmwnoC-1" vertex="1">
                    <mxGeometry x="1940" y="930" width="120" height="60" as="geometry"/>
                </mxCell>
                <mxCell id="c4jsmkWPk-v0gvGWlSDy-0" value="FGameplayAbilitySpecHandle" style="whiteSpace=wrap;html=1;" parent="-YvzQ3wBEwrn5XlmwnoC-1" vertex="1">
                    <mxGeometry x="1470" y="700" width="120" height="60" as="geometry"/>
                </mxCell>
                <mxCell id="c4jsmkWPk-v0gvGWlSDy-4" value="在controller中的数据" style="text;html=1;align=center;verticalAlign=middle;resizable=0;points=[];autosize=1;strokeColor=none;fillColor=none;" parent="-YvzQ3wBEwrn5XlmwnoC-1" vertex="1">
                    <mxGeometry x="1400" y="560" width="120" height="20" as="geometry"/>
                </mxCell>
                <mxCell id="c4jsmkWPk-v0gvGWlSDy-11" style="edgeStyle=none;html=1;exitX=0.75;exitY=1;exitDx=0;exitDy=0;entryX=0.178;entryY=0.026;entryDx=0;entryDy=0;entryPerimeter=0;" parent="-YvzQ3wBEwrn5XlmwnoC-1" source="c4jsmkWPk-v0gvGWlSDy-9" target="-YvzQ3wBEwrn5XlmwnoC-32" edge="1">
                    <mxGeometry relative="1" as="geometry"/>
                </mxCell>
                <mxCell id="c4jsmkWPk-v0gvGWlSDy-9" value="AddInventoryItem" style="shape=step;perimeter=stepPerimeter;whiteSpace=wrap;html=1;fixedSize=1;" parent="-YvzQ3wBEwrn5XlmwnoC-1" vertex="1">
                    <mxGeometry x="1500" y="120" width="120" height="80" as="geometry"/>
                </mxCell>
                <mxCell id="c4jsmkWPk-v0gvGWlSDy-10" value="添加" style="text;html=1;align=center;verticalAlign=middle;resizable=0;points=[];autosize=1;strokeColor=none;fillColor=none;" parent="-YvzQ3wBEwrn5XlmwnoC-1" vertex="1">
                    <mxGeometry x="1470" y="250" width="40" height="20" as="geometry"/>
                </mxCell>
                <mxCell id="c4jsmkWPk-v0gvGWlSDy-14" style="edgeStyle=none;html=1;exitX=0.5;exitY=1;exitDx=0;exitDy=0;" parent="-YvzQ3wBEwrn5XlmwnoC-1" source="c4jsmkWPk-v0gvGWlSDy-12" target="-YvzQ3wBEwrn5XlmwnoC-33" edge="1">
                    <mxGeometry relative="1" as="geometry"/>
                </mxCell>
                <mxCell id="c4jsmkWPk-v0gvGWlSDy-12" value="FillEmptySlotWithItem" style="shape=step;perimeter=stepPerimeter;whiteSpace=wrap;html=1;fixedSize=1;" parent="-YvzQ3wBEwrn5XlmwnoC-1" vertex="1">
                    <mxGeometry x="1620" y="320" width="120" height="80" as="geometry"/>
                </mxCell>
                <mxCell id="c4jsmkWPk-v0gvGWlSDy-15" value="更新UI上的插槽数据" style="text;html=1;align=center;verticalAlign=middle;resizable=0;points=[];autosize=1;strokeColor=none;fillColor=none;" parent="-YvzQ3wBEwrn5XlmwnoC-1" vertex="1">
                    <mxGeometry x="1520" y="410" width="120" height="20" as="geometry"/>
                </mxCell>
                <mxCell id="c4jsmkWPk-v0gvGWlSDy-17" value="界面上插槽的数据" style="text;html=1;align=center;verticalAlign=middle;resizable=0;points=[];autosize=1;strokeColor=none;fillColor=none;" parent="-YvzQ3wBEwrn5XlmwnoC-1" vertex="1">
                    <mxGeometry x="1675" y="500" width="110" height="20" as="geometry"/>
                </mxCell>
                <mxCell id="c4jsmkWPk-v0gvGWlSDy-18" value="LoadInventory" style="shape=step;perimeter=stepPerimeter;whiteSpace=wrap;html=1;fixedSize=1;" parent="-YvzQ3wBEwrn5XlmwnoC-1" vertex="1">
                    <mxGeometry x="1940" y="200" width="120" height="80" as="geometry"/>
                </mxCell>
                <mxCell id="c4jsmkWPk-v0gvGWlSDy-19" value="初始化库数据" style="text;html=1;align=center;verticalAlign=middle;resizable=0;points=[];autosize=1;strokeColor=none;fillColor=none;" parent="-YvzQ3wBEwrn5XlmwnoC-1" vertex="1">
                    <mxGeometry x="1890" y="160" width="90" height="20" as="geometry"/>
                </mxCell>
                <mxCell id="c4jsmkWPk-v0gvGWlSDy-21" style="edgeStyle=none;html=1;entryX=0.75;entryY=0;entryDx=0;entryDy=0;" parent="-YvzQ3wBEwrn5XlmwnoC-1" source="c4jsmkWPk-v0gvGWlSDy-20" target="c4jsmkWPk-v0gvGWlSDy-18" edge="1">
                    <mxGeometry relative="1" as="geometry"/>
                </mxCell>
                <mxCell id="c4jsmkWPk-v0gvGWlSDy-22" value="提供本地数据" style="edgeLabel;html=1;align=center;verticalAlign=middle;resizable=0;points=[];" parent="c4jsmkWPk-v0gvGWlSDy-21" vertex="1" connectable="0">
                    <mxGeometry x="-0.5196" y="-1" relative="1" as="geometry">
                        <mxPoint as="offset"/>
                    </mxGeometry>
                </mxCell>
                <mxCell id="c4jsmkWPk-v0gvGWlSDy-20" value="URPGGameInstanceBase" style="whiteSpace=wrap;html=1;" parent="-YvzQ3wBEwrn5XlmwnoC-1" vertex="1">
                    <mxGeometry x="1990" y="20" width="120" height="60" as="geometry"/>
                </mxCell>
                <mxCell id="c4jsmkWPk-v0gvGWlSDy-23" value="还有一些默认数据" style="text;html=1;align=center;verticalAlign=middle;resizable=0;points=[];autosize=1;strokeColor=none;fillColor=none;" parent="-YvzQ3wBEwrn5XlmwnoC-1" vertex="1">
                    <mxGeometry x="1955" y="-20" width="110" height="20" as="geometry"/>
                </mxCell>
                <mxCell id="c4jsmkWPk-v0gvGWlSDy-27" style="edgeStyle=none;html=1;exitX=0.5;exitY=1;exitDx=0;exitDy=0;entryX=0.5;entryY=0;entryDx=0;entryDy=0;" parent="-YvzQ3wBEwrn5XlmwnoC-1" source="c4jsmkWPk-v0gvGWlSDy-24" target="-YvzQ3wBEwrn5XlmwnoC-43" edge="1">
                    <mxGeometry relative="1" as="geometry"/>
                </mxCell>
                <mxCell id="c4jsmkWPk-v0gvGWlSDy-24" value="FillSlottedAbilitySpecs" style="shape=step;perimeter=stepPerimeter;whiteSpace=wrap;html=1;fixedSize=1;" parent="-YvzQ3wBEwrn5XlmwnoC-1" vertex="1">
                    <mxGeometry x="1930" y="790" width="120" height="80" as="geometry"/>
                </mxCell>
                <mxCell id="c4jsmkWPk-v0gvGWlSDy-28" style="edgeStyle=none;html=1;exitX=0.5;exitY=1;exitDx=0;exitDy=0;entryX=0.5;entryY=0;entryDx=0;entryDy=0;" parent="-YvzQ3wBEwrn5XlmwnoC-1" source="c4jsmkWPk-v0gvGWlSDy-25" target="c4jsmkWPk-v0gvGWlSDy-24" edge="1">
                    <mxGeometry relative="1" as="geometry"/>
                </mxCell>
                <mxCell id="c4jsmkWPk-v0gvGWlSDy-25" value="AddSlottedGameplayAbilities" style="shape=step;perimeter=stepPerimeter;whiteSpace=wrap;html=1;fixedSize=1;" parent="-YvzQ3wBEwrn5XlmwnoC-1" vertex="1">
                    <mxGeometry x="1910" y="670" width="120" height="80" as="geometry"/>
                </mxCell>
                <mxCell id="c4jsmkWPk-v0gvGWlSDy-29" value="插槽 对应 能力句柄&lt;br&gt;并添加能力" style="text;html=1;align=center;verticalAlign=middle;resizable=0;points=[];autosize=1;strokeColor=none;fillColor=none;" parent="-YvzQ3wBEwrn5XlmwnoC-1" vertex="1">
                    <mxGeometry x="2100" y="940" width="120" height="30" as="geometry"/>
                </mxCell>
                <mxCell id="h9jqTJ2cmiUDGSkyl-eq-5" style="edgeStyle=none;html=1;exitX=0.5;exitY=1;exitDx=0;exitDy=0;entryX=0.75;entryY=0;entryDx=0;entryDy=0;" edge="1" parent="-YvzQ3wBEwrn5XlmwnoC-1" source="h9jqTJ2cmiUDGSkyl-eq-0" target="c4jsmkWPk-v0gvGWlSDy-25">
                    <mxGeometry relative="1" as="geometry"/>
                </mxCell>
                <mxCell id="h9jqTJ2cmiUDGSkyl-eq-0" value="PossessedBy" style="shape=step;perimeter=stepPerimeter;whiteSpace=wrap;html=1;fixedSize=1;" vertex="1" parent="-YvzQ3wBEwrn5XlmwnoC-1">
                    <mxGeometry x="2008" y="520" width="120" height="80" as="geometry"/>
                </mxCell>
                <mxCell id="h9jqTJ2cmiUDGSkyl-eq-7" style="edgeStyle=none;html=1;exitX=0.5;exitY=1;exitDx=0;exitDy=0;entryX=0.25;entryY=0;entryDx=0;entryDy=0;" edge="1" parent="-YvzQ3wBEwrn5XlmwnoC-1" source="h9jqTJ2cmiUDGSkyl-eq-6" target="h9jqTJ2cmiUDGSkyl-eq-0">
                    <mxGeometry relative="1" as="geometry"/>
                </mxCell>
                <mxCell id="h9jqTJ2cmiUDGSkyl-eq-6" value="玩家控制器控制角色actor" style="ellipse;whiteSpace=wrap;html=1;" vertex="1" parent="-YvzQ3wBEwrn5XlmwnoC-1">
                    <mxGeometry x="1980" y="420" width="120" height="70" as="geometry"/>
                </mxCell>
                <mxCell id="h9jqTJ2cmiUDGSkyl-eq-12" style="edgeStyle=none;html=1;exitX=1;exitY=0.5;exitDx=0;exitDy=0;" edge="1" parent="-YvzQ3wBEwrn5XlmwnoC-1" source="h9jqTJ2cmiUDGSkyl-eq-8" target="h9jqTJ2cmiUDGSkyl-eq-11">
                    <mxGeometry relative="1" as="geometry"/>
                </mxCell>
                <mxCell id="h9jqTJ2cmiUDGSkyl-eq-8" value="OnItemSlotChanged" style="shape=step;perimeter=stepPerimeter;whiteSpace=wrap;html=1;fixedSize=1;" vertex="1" parent="-YvzQ3wBEwrn5XlmwnoC-1">
                    <mxGeometry x="1635" y="545" width="120" height="80" as="geometry"/>
                </mxCell>
                <mxCell id="h9jqTJ2cmiUDGSkyl-eq-9" value="数据变化时" style="text;html=1;align=center;verticalAlign=middle;resizable=0;points=[];autosize=1;strokeColor=none;fillColor=none;" vertex="1" parent="-YvzQ3wBEwrn5XlmwnoC-1">
                    <mxGeometry x="1590" y="520" width="80" height="20" as="geometry"/>
                </mxCell>
                <mxCell id="h9jqTJ2cmiUDGSkyl-eq-13" style="edgeStyle=none;html=1;exitX=0.5;exitY=1;exitDx=0;exitDy=0;" edge="1" parent="-YvzQ3wBEwrn5XlmwnoC-1" source="h9jqTJ2cmiUDGSkyl-eq-11" target="c4jsmkWPk-v0gvGWlSDy-25">
                    <mxGeometry relative="1" as="geometry"/>
                </mxCell>
                <mxCell id="h9jqTJ2cmiUDGSkyl-eq-11" value="RemoveSlottedGameplayAbilities" style="shape=step;perimeter=stepPerimeter;whiteSpace=wrap;html=1;fixedSize=1;" vertex="1" parent="-YvzQ3wBEwrn5XlmwnoC-1">
                    <mxGeometry x="1790" y="585" width="120" height="80" as="geometry"/>
                </mxCell>
                <mxCell id="h9jqTJ2cmiUDGSkyl-eq-15" value="移除插槽中没有的能力" style="text;html=1;align=center;verticalAlign=middle;resizable=0;points=[];autosize=1;strokeColor=none;fillColor=none;" vertex="1" parent="-YvzQ3wBEwrn5XlmwnoC-1">
                    <mxGeometry x="1780" y="530" width="140" height="20" as="geometry"/>
                </mxCell>
                <mxCell id="h9jqTJ2cmiUDGSkyl-eq-16" value="临时的，可以和controller中的数据对比" style="text;html=1;align=center;verticalAlign=middle;resizable=0;points=[];autosize=1;strokeColor=none;fillColor=none;" vertex="1" parent="-YvzQ3wBEwrn5XlmwnoC-1">
                    <mxGeometry x="1715" y="940" width="220" height="20" as="geometry"/>
                </mxCell>
            </root>
        </mxGraphModel>
    </diagram>
    <diagram id="wq_htuL9XIsYNzcytwPu" name="第 4 页">
        <mxGraphModel dx="499" dy="376" grid="1" gridSize="10" guides="1" tooltips="1" connect="1" arrows="1" fold="1" page="1" pageScale="1" pageWidth="827" pageHeight="1169" math="0" shadow="0">
            <root>
                <mxCell id="_Zz50gURGPLTKjzgj0c9-0"/>
                <mxCell id="_Zz50gURGPLTKjzgj0c9-1" parent="_Zz50gURGPLTKjzgj0c9-0"/>
                <mxCell id="_Zz50gURGPLTKjzgj0c9-2" value="EGameplayTaskState" style="whiteSpace=wrap;html=1;" vertex="1" parent="_Zz50gURGPLTKjzgj0c9-1">
                    <mxGeometry x="160" y="130" width="120" height="60" as="geometry"/>
                </mxCell>
                <mxCell id="_Zz50gURGPLTKjzgj0c9-3" value="任务状态枚举" style="text;html=1;align=center;verticalAlign=middle;resizable=0;points=[];autosize=1;strokeColor=none;fillColor=none;" vertex="1" parent="_Zz50gURGPLTKjzgj0c9-1">
                    <mxGeometry x="115" y="90" width="90" height="20" as="geometry"/>
                </mxCell>
                <mxCell id="_Zz50gURGPLTKjzgj0c9-4" value="ETaskResourceOverlapPolicy" style="whiteSpace=wrap;html=1;" vertex="1" parent="_Zz50gURGPLTKjzgj0c9-1">
                    <mxGeometry x="430" y="140" width="120" height="60" as="geometry"/>
                </mxCell>
                <mxCell id="_Zz50gURGPLTKjzgj0c9-6" value="任务资源重叠策略枚举" style="text;html=1;align=center;verticalAlign=middle;resizable=0;points=[];autosize=1;strokeColor=none;fillColor=none;" vertex="1" parent="_Zz50gURGPLTKjzgj0c9-1">
                    <mxGeometry x="370" y="90" width="140" height="20" as="geometry"/>
                </mxCell>
                <mxCell id="_Zz50gURGPLTKjzgj0c9-7" value="FGameplayResourceSet" style="whiteSpace=wrap;html=1;" vertex="1" parent="_Zz50gURGPLTKjzgj0c9-1">
                    <mxGeometry x="100" y="320" width="120" height="60" as="geometry"/>
                </mxCell>
                <mxCell id="_Zz50gURGPLTKjzgj0c9-8" value="二进制位&amp;nbsp; 做标记" style="text;html=1;align=center;verticalAlign=middle;resizable=0;points=[];autosize=1;strokeColor=none;fillColor=none;" vertex="1" parent="_Zz50gURGPLTKjzgj0c9-1">
                    <mxGeometry x="15" y="300" width="110" height="20" as="geometry"/>
                </mxCell>
                <mxCell id="_Zz50gURGPLTKjzgj0c9-9" value="&lt;div&gt;UGameplayTasksComponent&lt;br&gt;&lt;/div&gt;" style="whiteSpace=wrap;html=1;" vertex="1" parent="_Zz50gURGPLTKjzgj0c9-1">
                    <mxGeometry x="30" y="490" width="120" height="60" as="geometry"/>
                </mxCell>
                <mxCell id="_Zz50gURGPLTKjzgj0c9-10" value="EGameplayTaskEvent" style="whiteSpace=wrap;html=1;" vertex="1" parent="_Zz50gURGPLTKjzgj0c9-1">
                    <mxGeometry x="1030" y="140" width="120" height="60" as="geometry"/>
                </mxCell>
                <mxCell id="_Zz50gURGPLTKjzgj0c9-11" value="EGameplayTaskRunResult" style="whiteSpace=wrap;html=1;" vertex="1" parent="_Zz50gURGPLTKjzgj0c9-1">
                    <mxGeometry x="1250" y="140" width="120" height="60" as="geometry"/>
                </mxCell>
                <mxCell id="_Zz50gURGPLTKjzgj0c9-16" style="edgeStyle=none;html=1;exitX=0.5;exitY=0;exitDx=0;exitDy=0;" edge="1" parent="_Zz50gURGPLTKjzgj0c9-1" source="_Zz50gURGPLTKjzgj0c9-12" target="_Zz50gURGPLTKjzgj0c9-10">
                    <mxGeometry relative="1" as="geometry"/>
                </mxCell>
                <mxCell id="_Zz50gURGPLTKjzgj0c9-18" style="edgeStyle=none;html=1;exitX=0;exitY=0.25;exitDx=0;exitDy=0;entryX=1;entryY=0.5;entryDx=0;entryDy=0;" edge="1" parent="_Zz50gURGPLTKjzgj0c9-1" source="_Zz50gURGPLTKjzgj0c9-12" target="_Zz50gURGPLTKjzgj0c9-17">
                    <mxGeometry relative="1" as="geometry"/>
                </mxCell>
                <mxCell id="_Zz50gURGPLTKjzgj0c9-12" value="FGameplayTaskEventData" style="whiteSpace=wrap;html=1;" vertex="1" parent="_Zz50gURGPLTKjzgj0c9-1">
                    <mxGeometry x="940" y="290" width="120" height="60" as="geometry"/>
                </mxCell>
                <mxCell id="_Zz50gURGPLTKjzgj0c9-15" value="包含" style="text;html=1;align=center;verticalAlign=middle;resizable=0;points=[];autosize=1;strokeColor=none;fillColor=none;" vertex="1" parent="_Zz50gURGPLTKjzgj0c9-1">
                    <mxGeometry x="960" y="260" width="40" height="20" as="geometry"/>
                </mxCell>
                <mxCell id="_Zz50gURGPLTKjzgj0c9-17" value="UGameplayTask" style="whiteSpace=wrap;html=1;" vertex="1" parent="_Zz50gURGPLTKjzgj0c9-1">
                    <mxGeometry x="720" y="250" width="120" height="60" as="geometry"/>
                </mxCell>
                <mxCell id="_Zz50gURGPLTKjzgj0c9-19" value="UGameplayTasksComponent" style="whiteSpace=wrap;html=1;" vertex="1" parent="_Zz50gURGPLTKjzgj0c9-1">
                    <mxGeometry x="880" y="450" width="120" height="60" as="geometry"/>
                </mxCell>
                <mxCell id="_Zz50gURGPLTKjzgj0c9-20" value="组件" style="text;html=1;align=center;verticalAlign=middle;resizable=0;points=[];autosize=1;strokeColor=none;fillColor=none;" vertex="1" parent="_Zz50gURGPLTKjzgj0c9-1">
                    <mxGeometry x="930" y="420" width="40" height="20" as="geometry"/>
                </mxCell>
            </root>
        </mxGraphModel>
    </diagram>
</mxfile>